<?xml version="1.0" ?><!DOCTYPE svg  PUBLIC '-//W3C//DTD SVG 1.1//EN'  'http://www.w3.org/Graphics/SVG/1.1/DTD/svg11.dtd'><svg height="32px" id="Embarrass" style="enable-background:new 0 0 32 32;" version="1.1" viewBox="0 0 32 32" width="32px" xml:space="preserve" xmlns="http://www.w3.org/2000/svg" xmlns:xlink="http://www.w3.org/1999/xlink"><g><linearGradient gradientUnits="userSpaceOnUse" id="SVGID_1_" x1="24.001" x2="7.9985" y1="2.1416" y2="29.8586"><stop offset="0" style="stop-color:#FFE254"/><stop offset="1" style="stop-color:#FFB255"/></linearGradient><circle cx="16" cy="16" r="16" style="fill:url(#SVGID_1_);"/><path d="M24,22c1.952,1.952-2.477,5-8,5s-9.952-3.048-8-5c2-2,2.477,1,8,1S22,20,24,22z" style="fill:#F52C5B;"/><path d="M6.538,15.078c0.94-4.015,5.941-3.985,7,0" style="fill:none;stroke:#212731;stroke-miterlimit:10;"/><path d="M19.537,15.078c0.941-4.014,5.941-3.984,7,0" style="fill:none;stroke:#212731;stroke-miterlimit:10;"/><path d="M24,22c-2-2-2.477,1-8,1s-6-3-8-1c-1.212,1.212,0.038,2.846,2.481,3.911   C11.397,25.376,13.522,25,16,25s4.603,0.376,5.519,0.911C23.962,24.846,25.213,23.212,24,22z" style="fill:#212731;"/><path d="M24,22c-2-2-2.477,1-8,1s-6-3-8-1c-1.212,1.212,0.038,2.846,2.481,3.911   C11.397,25.376,13.522,25,16,25s4.603,0.376,5.519,0.911C23.962,24.846,25.213,23.212,24,22z" style="fill:#212731;"/></g><path d="M30,8c0,1.104-0.896,2-2,2s-2-0.896-2-2s2-4,2-4S30,6.896,30,8z" style="fill:#2667C6;"/></svg>