<?xml version="1.0" ?><!DOCTYPE svg  PUBLIC '-//W3C//DTD SVG 1.1//EN'  'http://www.w3.org/Graphics/SVG/1.1/DTD/svg11.dtd'><svg height="32px" id="Joy" style="enable-background:new 0 0 32 32;" version="1.1" viewBox="0 0 32 32" width="32px" xml:space="preserve" xmlns="http://www.w3.org/2000/svg" xmlns:xlink="http://www.w3.org/1999/xlink"><linearGradient gradientTransform="matrix(-1 0 0 1 69.8398 0.3862)" gradientUnits="userSpaceOnUse" id="SVGID_1_" x1="45.8389" x2="61.8413" y1="1.7559" y2="29.4729"><stop offset="0" style="stop-color:#FFE254"/><stop offset="1" style="stop-color:#FFB255"/></linearGradient><circle cx="16" cy="16" r="16" style="fill:url(#SVGID_1_);"/><radialGradient cx="44.998" cy="20" gradientTransform="matrix(-1 0 0 1 69.998 -7)" gradientUnits="userSpaceOnUse" id="SVGID_2_" r="5"><stop offset="0" style="stop-color:#F52C5B;stop-opacity:0.6"/><stop offset="0.1526" style="stop-color:#F5305B;stop-opacity:0.5389"/><stop offset="0.3108" style="stop-color:#F63D5A;stop-opacity:0.4757"/><stop offset="0.4715" style="stop-color:#F75159;stop-opacity:0.4114"/><stop offset="0.6341" style="stop-color:#F96E58;stop-opacity:0.3464"/><stop offset="0.798" style="stop-color:#FB9456;stop-opacity:0.2808"/><stop offset="0.961" style="stop-color:#FEC155;stop-opacity:0.2156"/><stop offset="1" style="stop-color:#FFCD54;stop-opacity:0.2"/></radialGradient><path d="M20,13.001C20,15.758,22.242,18,25,18c2.757,0,5-2.242,5-5s-2.24-5-5-5  C22.242,8,20,10.243,20,13.001z" style="opacity:0.6;fill:url(#SVGID_2_);"/><radialGradient cx="62.9473" cy="3.689" gradientTransform="matrix(-0.9189 0 0 0.9189 64.8423 15.6108)" gradientUnits="userSpaceOnUse" id="SVGID_3_" r="5.4414"><stop offset="0" style="stop-color:#F52C5B;stop-opacity:0.6"/><stop offset="0.1526" style="stop-color:#F5305B;stop-opacity:0.5389"/><stop offset="0.3108" style="stop-color:#F63D5A;stop-opacity:0.4757"/><stop offset="0.4715" style="stop-color:#F75159;stop-opacity:0.4114"/><stop offset="0.6341" style="stop-color:#F96E58;stop-opacity:0.3464"/><stop offset="0.798" style="stop-color:#FB9456;stop-opacity:0.2808"/><stop offset="0.961" style="stop-color:#FEC155;stop-opacity:0.2156"/><stop offset="1" style="stop-color:#FFCD54;stop-opacity:0.2"/></radialGradient><circle cx="7" cy="19" r="5" style="opacity:0.6;fill:url(#SVGID_3_);"/><path d="M22,15c0,4-6,7-10,4" style="fill:none;stroke:#212731;stroke-miterlimit:10;"/><path d="M16.293,8.222c0-2.828,3.535-4.949,6.364-2.121" style="fill:none;stroke:#212731;stroke-miterlimit:10;"/><path d="M5.687,11.758c0-2.829,3.535-4.95,6.363-2.122" style="fill:none;stroke:#212731;stroke-miterlimit:10;"/></svg>