<?xml version="1.0" ?><!DOCTYPE svg  PUBLIC '-//W3C//DTD SVG 1.1//EN'  'http://www.w3.org/Graphics/SVG/1.1/DTD/svg11.dtd'><svg height="33.217px" id="Love" style="enable-background:new 0 0 32 33.217;" version="1.1" viewBox="0 0 32 33.217" width="32px" xml:space="preserve" xmlns="http://www.w3.org/2000/svg" xmlns:xlink="http://www.w3.org/1999/xlink"><linearGradient gradientTransform="matrix(-1 0 0 1 69.8398 0.3862)" gradientUnits="userSpaceOnUse" id="SVGID_1_" x1="45.8389" x2="61.8413" y1="2.9731" y2="30.6902"><stop offset="0" style="stop-color:#FFE254"/><stop offset="1" style="stop-color:#FFB255"/></linearGradient><circle cx="16" cy="17.217" r="16" style="fill:url(#SVGID_1_);"/><path d="M17.63,25.049c5.947-1.237,9.766-7.062,8.528-13.01L4.619,16.521  C5.857,22.468,11.682,26.287,17.63,25.049z" style="fill:#F52C5B;"/><path d="M16,17.217c3.345-0.695,6.649,0.207,9.121,2.188c1.152-2.183,1.579-4.763,1.037-7.366L4.619,16.521  c0.542,2.604,1.962,4.798,3.889,6.341C9.984,20.059,12.655,17.913,16,17.217z" style="fill:#212731;"/><path d="M11.096,3.674c2.043,2.603-3.6,6.933-3.6,6.933s-6.901-1.72-6.065-4.923  c0.802-3.071,4.802-1.15,4.802-1.15S9.136,1.177,11.096,3.674z" style="fill:#F52C5B;"/><path d="M23.822,1.026c2.044,2.604-3.599,6.934-3.599,6.934s-6.901-1.721-6.065-4.923  c0.802-3.071,4.802-1.15,4.802-1.15S21.863-1.47,23.822,1.026z" style="fill:#F52C5B;"/></svg>