<?xml version="1.0" ?><!DOCTYPE svg  PUBLIC '-//W3C//DTD SVG 1.1//EN'  'http://www.w3.org/Graphics/SVG/1.1/DTD/svg11.dtd'><svg height="32px" id="Sleepy" style="enable-background:new 0 0 32 32;" version="1.1" viewBox="0 0 32 32" width="32px" xml:space="preserve" xmlns="http://www.w3.org/2000/svg" xmlns:xlink="http://www.w3.org/1999/xlink"><linearGradient gradientUnits="userSpaceOnUse" id="SVGID_1_" x1="24.001" x2="7.9985" y1="2.1416" y2="29.8586"><stop offset="0" style="stop-color:#FFE254"/><stop offset="1" style="stop-color:#FFB255"/></linearGradient><circle cx="16" cy="16" r="16" style="fill:url(#SVGID_1_);"/><path d="M26,22c0,2.761-4.477,5-10,5S6,24.761,6,22s4.477-3,10-3S26,19.239,26,22z" style="fill:#F52C5B;"/><path d="M16,19c-5.523,0-10,0.239-10,3c0,1.183,0.826,2.268,2.199,3.123C8.998,23.337,12.185,22,16,22  s7.001,1.337,7.801,3.123C25.174,24.268,26,23.183,26,22C26,19.239,21.523,19,16,19z" style="fill:#212731;"/><path d="M26,11c-0.94,4.015-5.941,3.985-7,0" style="fill:none;stroke:#212731;stroke-miterlimit:10;"/><path d="M13,11c-0.941,4.014-5.941,3.984-7,0" style="fill:none;stroke:#212731;stroke-miterlimit:10;"/><g><g><path d="M23.098,21.845c0,0.191-0.156,0.348-0.348,0.348h-1.752c-0.132,0-0.258-0.078-0.317-0.204    c-0.024-0.048-0.03-0.096-0.03-0.149c0-0.078,0.023-0.156,0.078-0.223L22,20.094h-1.002c-0.191,0-0.348-0.156-0.348-0.348    c0-0.198,0.156-0.354,0.348-0.354h1.752c0.137,0,0.258,0.078,0.317,0.204c0.018,0.048,0.03,0.096,0.03,0.144    c0,0.084-0.024,0.162-0.078,0.229l-1.271,1.523h1.002C22.941,21.491,23.098,21.646,23.098,21.845z" style="fill:#43AF20;"/></g></g><g><g><path d="M26.926,20.286c0,0.256-0.208,0.464-0.464,0.464h-2.335c-0.176,0-0.344-0.104-0.424-0.271    c-0.031-0.064-0.039-0.128-0.039-0.2c0-0.104,0.031-0.208,0.104-0.296l1.695-2.031h-1.336c-0.256,0-0.463-0.207-0.463-0.463    c0-0.265,0.207-0.473,0.463-0.473h2.335c0.185,0,0.344,0.104,0.424,0.272c0.024,0.063,0.04,0.128,0.04,0.191    c0,0.112-0.032,0.216-0.104,0.304l-1.695,2.031h1.335C26.718,19.814,26.926,20.022,26.926,20.286z" style="fill:#43AF20;"/></g></g><g><g><path d="M31.582,18.42c0,0.32-0.26,0.58-0.58,0.58h-2.918c-0.22,0-0.43-0.13-0.529-0.34    c-0.041-0.08-0.051-0.16-0.051-0.25c0-0.13,0.041-0.26,0.131-0.37l2.118-2.538h-1.669c-0.32,0-0.58-0.26-0.58-0.58    c0-0.329,0.26-0.589,0.58-0.589h2.918c0.23,0,0.43,0.13,0.53,0.34c0.03,0.079,0.05,0.159,0.05,0.239c0,0.14-0.04,0.27-0.13,0.38    l-2.118,2.539h1.668C31.322,17.831,31.582,18.091,31.582,18.42z" style="fill:#43AF20;"/></g></g></svg>