<?xml version="1.0" ?><!DOCTYPE svg  PUBLIC '-//W3C//DTD SVG 1.1//EN'  'http://www.w3.org/Graphics/SVG/1.1/DTD/svg11.dtd'><svg height="32px" id="Wink" style="enable-background:new 0 0 32 32;" version="1.1" viewBox="0 0 32 32" width="32px" xml:space="preserve" xmlns="http://www.w3.org/2000/svg" xmlns:xlink="http://www.w3.org/1999/xlink"><linearGradient gradientUnits="userSpaceOnUse" id="SVGID_1_" x1="24.001" x2="7.9985" y1="2.1416" y2="29.8586"><stop offset="0" style="stop-color:#FFE254"/><stop offset="1" style="stop-color:#FFB255"/></linearGradient><circle cx="16" cy="16" r="16" style="fill:url(#SVGID_1_);"/><path d="M16,27c6.075,0,11-4.925,11-11H5C5,22.075,9.925,27,16,27z" style="fill:#212731;"/><path d="M10.129,21.975C10.045,22.467,10,22.977,10,23.5c0,4.142,2.686,7.5,6,7.5s6-3.358,6-7.5  c0-0.523-0.045-1.033-0.129-1.525C21.779,21.431,21.203,21,20.651,21h-9.303C10.797,21,10.221,21.431,10.129,21.975z" style="fill:#F52C5B;"/><path d="M6.042,8.62c0.08-0.271,0.38-0.41,0.64-0.33l4.864,1.47C11.816,9.84,12,10.12,12,10.38v0.24  c0,0.26-0.184,0.54-0.454,0.62l-4.867,1.47c-0.27,0.08-0.563-0.06-0.644-0.33c-0.08-0.26,0.063-0.54,0.333-0.62l4.076-1.26  L6.363,9.24C6.103,9.16,5.961,8.88,6.042,8.62z" style="fill:#212731;"/><circle cx="24" cy="11" r="2" style="fill:#212731;"/></svg>