<?xml version="1.0" ?><svg data-name="Layer 1" id="Layer_1" viewBox="0 0 128 128" xmlns="http://www.w3.org/2000/svg"><defs><style>.cls-1{fill:#515570;}.cls-2,.cls-4{fill:#393c54;}.cls-3{fill:#f85565;}.cls-4,.cls-5{opacity:0.2;}.cls-5{fill:#fff;}</style></defs><title/><circle class="cls-1" cx="33" cy="80.5" r="14"/><circle class="cls-2" cx="33" cy="80.5" r="12"/><circle class="cls-1" cx="95" cy="80.5" r="14"/><circle class="cls-2" cx="95" cy="80.5" r="12"/><path class="cls-3" d="M33.26,70.49c-14.35,0-26-13.24-26-29.57q0-.77,0-1.53a1.3,1.3,0,0,0-2.42-.73A37.46,37.46,0,0,0,.27,56.84C.27,75.69,13.7,91,30.26,91S46,70.49,33.26,70.49Z"/><path class="cls-4" d="M33.26,70.49a23.52,23.52,0,0,1-13.07-4C19,71,14,73,7,71a8.11,8.11,0,0,1-5.61-4.83C5,80.47,16.53,91,30.26,91,46.82,91,46,70.49,33.26,70.49Z"/><path class="cls-3" d="M94.74,70.49c14.35,0,26-13.24,26-29.57q0-.77,0-1.53a1.3,1.3,0,0,1,2.42-.73,37.46,37.46,0,0,1,4.61,18.18c0,18.85-13.43,34.12-30,34.12S82,70.49,94.74,70.49Z"/><path class="cls-4" d="M98.63,87c-7.18,0-11.51-3.34-13.35-7.51C84.92,85,88.77,91,97.74,91c10.35,0,19.47-6,24.86-15A32.36,32.36,0,0,1,98.63,87Z"/><path class="cls-4" d="M90,75c-1.33-.73-3.1,2.46-4.19,1.81-2,6,1.48,14.18,11.94,14.18,16.56,0,30-15.28,30-34.12,0-.54,0-1.07-.05-1.6C124,73,110,86,90,75Z"/><path class="cls-4" d="M41.26,74.78C39.88,79.17,36.26,84.37,27,86c-7.63,1.35-13.84-1.74-18.38-5.55A28.3,28.3,0,0,0,30.26,91C41.94,91,45,80.78,41.26,74.78Z"/><path class="cls-5" d="M7,41l.28-.39c0-.41,0-.82,0-1.22a1.3,1.3,0,0,0-2.42-.73A37.46,37.46,0,0,0,.27,56.84s0,0,0,.06A48.1,48.1,0,0,1,3,48,59.5,59.5,0,0,1,7,41Z"/><path class="cls-5" d="M122,52a26,26,0,0,0,2.83-9.77,35.78,35.78,0,0,0-1.71-3.57,1.3,1.3,0,0,0-2.42.73q0,.76,0,1.53a32.28,32.28,0,0,1-4.74,17A19,19,0,0,0,122,52Z"/></svg>