<?xml version="1.0" ?><svg data-name="Layer 1" id="Layer_1" viewBox="0 0 128 128" xmlns="http://www.w3.org/2000/svg"><defs><style>.cls-1{fill:#f2f6f9;}.cls-2,.cls-4{fill:#393c54;}.cls-2{opacity:0.1;}.cls-3{fill:#f85565;}.cls-4{opacity:0.3;}</style></defs><title/><path class="cls-1" d="M15.74,6a2.5,2.5,0,0,0-4.23,1.34C10,15.76,7.93,35.61,16,56.14,26.58,83.29,49.4,100.6,49.4,100.6l5.51-2.36s-2.36-30.3-16.53-58.63C28.76,20.36,20.22,10.37,15.74,6Z"/><path class="cls-2" d="M50.9,100C49.71,91,45,66.9,34.69,48.62A154.22,154.22,0,0,0,16.28,22a2.28,2.28,0,0,0-4,1.32c-.44,9.91.44,24.66,7.06,39.44a94,94,0,0,0,8,14.21A117.45,117.45,0,0,0,49.4,100.6Z"/><path class="cls-1" d="M108.36,61.87A117.5,117.5,0,0,1,80.57,99.25L75,97.16a182.31,182.31,0,0,1,9.38-48.49C85.58,45.06,109.63,59.1,108.36,61.87Z"/><path class="cls-2" d="M79,98.68c.68-8.33,3.73-29.58,11.56-47.55.67-1.53,19.16,6.22,18.13,8.85a94,94,0,0,1-7.28,14.58A117.45,117.45,0,0,1,80.57,99.25Z"/><path class="cls-1" d="M65.53,102.17a40.11,40.11,0,0,1,35,20.54.82.82,0,0,0,1.52-.59,37.77,37.77,0,0,0-73.09,0,.82.82,0,0,0,1.52.59A40.11,40.11,0,0,1,65.53,102.17Z"/><path class="cls-2" d="M65.53,102.17a40.08,40.08,0,0,1,34.11,19c-5.79-12-14-22.55-34.11-22.55-19.14,0-28.1,10.47-34,22.41A40.08,40.08,0,0,1,65.53,102.17Z"/><path class="cls-3" d="M49,97.1a.71.71,0,0,1-1.16.68c-7.18-6.49-18-17.88-24.51-32.54a81.16,81.16,0,0,1-6.7-31.36A1.42,1.42,0,0,1,19.16,33,153.83,153.83,0,0,1,33,53.88C41.88,69.68,46.65,86.4,49,97.1Z"/><path class="cls-4" d="M19.16,37.21A153.83,153.83,0,0,1,33,58.12C41,72.35,45.65,87.3,48.23,98A.7.7,0,0,0,49,97.1c-2.38-10.7-7.15-27.42-16-43.22A153.83,153.83,0,0,0,19.16,33a1.42,1.42,0,0,0-2.51.92c0,1.16.07,2.37.15,3.62A1.41,1.41,0,0,1,19.16,37.21Z"/><path class="cls-3" d="M80.78,95.74a.71.71,0,0,0,1.2.62c6.85-6.84,17.05-18.74,22.89-33.7a73.61,73.61,0,0,0,3.5-11.94c1.49-7.27-12.72-.93-13.71,1.06C86.57,68,82.63,84.93,80.78,95.74Z"/><path class="cls-4" d="M94.86,56c-7.28,14.6-11.19,29.76-13.25,40.53a.7.7,0,0,1-.83-.81c1.85-10.81,5.79-27.74,13.88-44C98.8,43.47,99,47.71,94.86,56Z"/><path class="cls-4" d="M84.61,48.32C83,51.76,91.83,66.47,100.53,76a105.33,105.33,0,0,0,7.84-14.11C109.57,59.21,87.51,46.2,84.61,48.32Z"/><path class="cls-1" d="M84.79,47.93C81.86,50.62,95,66.34,106.28,74.45s12.47,4,11.41-2.39-3.18-17.51-5.3-21.48S94.34,39.18,84.79,47.93Z"/><path class="cls-2" d="M117.68,72.07c-.32-1.91-.73-4.25-1.21-6.7.11,5.76-2.16,10.08-13.64,3.52C95.4,64.64,88,54,88.64,45.36a15,15,0,0,0-3.85,2.57C81.86,50.62,95,66.34,106.28,74.45S118.74,78.43,117.68,72.07Z"/></svg>