<?xml version="1.0" ?><svg data-name="Layer 1" id="Layer_1" viewBox="0 0 128 128" xmlns="http://www.w3.org/2000/svg" xmlns:xlink="http://www.w3.org/1999/xlink"><defs><style>.cls-1{fill:none;}.cls-2{fill:#f8dc25;}.cls-3,.cls-4{fill:#f2bc0f;}.cls-3{opacity:0.5;}.cls-5{fill:#515570;}.cls-6{fill:#f85565;}.cls-7{fill:#393c54;}.cls-7,.cls-8{opacity:0.2;}.cls-8{fill:#fff;}.cls-9{opacity:0.6;}.cls-10{clip-path:url(#clip-path);}</style><clipPath id="clip-path"><path class="cls-1" d="M-238.64,363.63c18.48-15.4,36.72-30,54-37.07,7.84-2.31,12.84,2.94,13.8,9,.47,17.22-.21,32.92-3.12,45.67-2.59,7.52-7.84,11.77-15.3,10.52C-205.85,387.93-222.3,376.4-238.64,363.63Z"/></clipPath></defs><title/><circle class="cls-2" cx="92.5" cy="20.5" r="8.5"/><circle class="cls-2" cx="106.5" cy="21.5" r="8.5"/><circle class="cls-3" cx="106.5" cy="21.5" r="8.5"/><circle class="cls-4" cx="118.5" cy="27.5" r="8.5"/><circle class="cls-2" cx="35.5" cy="20.5" r="8.5"/><circle class="cls-2" cx="21.5" cy="21.5" r="8.5"/><circle class="cls-3" cx="21.5" cy="21.5" r="8.5"/><circle class="cls-4" cx="9.5" cy="27.5" r="8.5"/><path class="cls-5" d="M96.73,31.25A21.27,21.27,0,1,1,75.46,52.52,21.3,21.3,0,0,1,96.73,31.25m0-8A29.27,29.27,0,1,0,126,52.52,29.27,29.27,0,0,0,96.73,23.25Z"/><path class="cls-5" d="M31.27,31.25A21.27,21.27,0,1,1,10,52.52,21.3,21.3,0,0,1,31.27,31.25m0-8A29.27,29.27,0,1,0,60.54,52.52,29.27,29.27,0,0,0,31.27,23.25Z"/><path class="cls-6" d="M58,62.15,42,99.65a12.54,12.54,0,0,0,9.1,17.2,64.36,64.36,0,0,0,25.76-.27A12.56,12.56,0,0,0,86,99.39L70.16,62.15A6.63,6.63,0,0,0,58,62.15Z"/><path class="cls-7" d="M79,106a9,9,0,0,1-2.22-.28,2,2,0,0,0-2.15.76,13,13,0,0,1-19.81,1.71,2,2,0,0,0-2.37-.37,9,9,0,0,1-11.37-2.06,12.53,12.53,0,0,0,10,11.09,64.36,64.36,0,0,0,25.76-.27,12.57,12.57,0,0,0,9.81-14.92A9,9,0,0,1,79,106Z"/><path class="cls-8" d="M67.19,64,71,98.76A7,7,0,0,1,57,100.27a7.38,7.38,0,0,1,0-1.51L60.81,64a3.21,3.21,0,0,1,6.38,0Z"/></svg>