<?xml version="1.0" ?><svg data-name="Layer 1" id="Layer_1" viewBox="0 0 128 128" xmlns="http://www.w3.org/2000/svg" xmlns:xlink="http://www.w3.org/1999/xlink"><defs><style>.cls-1{fill:none;}.cls-2{fill:#f85565;}.cls-3{fill:#00adfe;}.cls-4{fill:#f8dc25;}.cls-5{fill:#d8d8dd;}.cls-6{fill:#4bc190;}.cls-7,.cls-9{fill:#393c54;}.cls-7{opacity:0.2;}.cls-8{fill:#515570;}.cls-9{opacity:0.3;}.cls-10{fill:#f2bc0f;opacity:0.5;}.cls-11{opacity:0.6;}.cls-12{clip-path:url(#clip-path);}.cls-13{clip-path:url(#clip-path-2);}</style><clipPath id="clip-path"><path class="cls-1" d="M-77.33,363.65c-19.06-13.76-38-27.32-52.64-30.76-6.29-1.64-10.54-1.12-13.2,3.51h0c-1,1.71-2.24,5.1-2.24,10.64a155.42,155.42,0,0,0,4.91,39.25c2.25,8,8,12.45,15.86,9.77C-107.31,389.63-91.79,376.89-77.33,363.65Z"/></clipPath><clipPath id="clip-path-2"><path class="cls-1" d="M-90.64,363.63c18.48-15.4,36.72-30,54-37.07,7.84-2.31,12.84,2.94,13.8,9,.47,17.22-.21,32.92-3.12,45.67-2.59,7.52-7.84,11.77-15.3,10.52C-57.85,387.93-74.3,376.4-90.64,363.63Z"/></clipPath></defs><title/><path class="cls-2" d="M93,90c13.07-.35,19.77,1.54,23,4.14-.43-30-26.68-53.81-57.26-50.9C32.06,45.79,12,68.75,12,95.53V106h0C18,101,56,91,93,90Z"/><path class="cls-3" d="M93,90a84.69,84.69,0,0,1,10.83.32c-1.92-28.15-21.38-49.87-43.89-47.08C39.43,45.79,24,68.75,24,95.53v5.35C39.39,96.07,66.45,90.72,93,90Z"/><path class="cls-4" d="M88.89,90.15c-1.24-28.07-13.38-49.7-27.43-46.91C48.65,45.79,39,68.75,39,95.53v1.39A292.59,292.59,0,0,1,88.89,90.15Z"/><path class="cls-5" d="M63,31.64,61.5,44h5L65,31.64A1,1,0,0,0,63,31.64Z"/><path class="cls-6" d="M74,91.25c-.39-28.61-5.3-50.83-11-48-5,2.5-8.83,24.62-9,50.72C60.34,92.88,67.07,91.95,74,91.25Z"/><path class="cls-7" d="M58,72c-12.64,4.49-37,23-46,34h0c6-5,44-15,81-16,13.07-.35,19.77,1.54,23,4.14a51.21,51.21,0,0,0-7.44-25.88C95,64.66,75.7,65.72,58,72Z"/><path class="cls-8" d="M12,106s37-4,67-4,37,4,37,4a18,18,0,0,0,9-17c-1-18-37-22-68-11C44.36,82.49,21,95,12,106Z"/><path class="cls-9" d="M117.44,77.59C115.29,87.52,107.66,93.83,95,97c-14.48,3.62-48.6,3.14-69-2.9-5.72,3.87-10.75,8-14,11.9,0,0,37-4,67-4s37,4,37,4a18,18,0,0,0,9-17C124.73,84.19,121.95,80.39,117.44,77.59Z"/><path class="cls-4" d="M100.36,31c0-3.85-8.14-7-18.18-7S64,27.12,64,31C64,31.65,100.36,31.65,100.36,31Z"/><path class="cls-4" d="M27.64,30.7c0,3.85,8.14,7,18.18,7S64,34.55,64,30.7C64,30,27.64,30,27.64,30.7Z"/><path class="cls-10" d="M64.06,31c1.25.65,36.3.64,36.3,0,0-2.17-2.59-4.11-6.65-5.38C85,30.13,65.12,31,64.06,31Z"/><path class="cls-10" d="M45.82,37.67c10,0,18.18-3.12,18.18-7,0-.15-1.65-.26-4.24-.34C54.83,34.35,40.42,35.81,35,34c-4.21-1.4-5.46-2.81-5.84-3.52-1,.06-1.52.14-1.52.22C27.64,34.55,35.78,37.67,45.82,37.67Z"/></svg>