<?xml version="1.0" ?><svg data-name="Layer 1" id="Layer_1" viewBox="0 0 128 128" xmlns="http://www.w3.org/2000/svg" xmlns:xlink="http://www.w3.org/1999/xlink"><defs><style>.cls-1,.cls-10,.cls-11,.cls-12,.cls-5,.cls-9{fill:none;}.cls-11,.cls-2{opacity:0.6;}.cls-3{clip-path:url(#clip-path);}.cls-4{fill:#00adfe;}.cls-12,.cls-5{stroke:#f2bc0f;}.cls-10,.cls-11,.cls-12,.cls-5,.cls-9{stroke-linecap:round;stroke-linejoin:round;}.cls-5{stroke-width:6px;}.cls-6{fill:#ff1234;opacity:0.7;}.cls-7{fill:#fff;}.cls-7,.cls-8{opacity:0.2;}.cls-8{fill:#393c54;}.cls-9{stroke:#f8dc25;}.cls-10,.cls-12,.cls-9{stroke-width:4px;}.cls-10,.cls-11{stroke:#fff;}.cls-10{opacity:0.4;}.cls-11{stroke-width:2px;}.cls-12{opacity:0.5;}</style><clipPath id="clip-path"><path class="cls-1" d="M-238.64,67.63c18.48-15.4,36.72-30,54-37.07,7.84-2.31,12.84,2.94,13.8,9,.47,17.22-.21,32.92-3.12,45.67-2.59,7.52-7.84,11.77-15.3,10.52C-205.85,91.93-222.3,80.4-238.64,67.63Z"/></clipPath></defs><title/><g class="cls-2"><g class="cls-3"><g class="cls-2"><path class="cls-4" d="M-232.65,299.42q.77-4.8,1.39-9.56C-133.58,246.72-45.05,156.09-2.66,31Q.22,36.51,3,42.11C-42.14,167.32-133,257.29-232.65,299.42Z"/></g></g></g><line class="cls-5" x1="121.25" x2="123" y1="57" y2="57"/><line class="cls-5" x1="58.5" x2="69.75" y1="57" y2="57"/><line class="cls-5" x1="5" x2="7" y1="57" y2="57"/><path class="cls-6" d="M55,46.27h0a15.06,15.06,0,0,0-21.13-.16l-.17-.17a15.06,15.06,0,0,0-21.3,0h0a15.06,15.06,0,0,0,0,21.3L30.88,85.77,32.1,87a2.45,2.45,0,0,0,3.46,0L55,67.58A15.06,15.06,0,0,0,55,46.27Z"/><path class="cls-7" d="M20,56.6a9,9,0,0,1,2.65-6.41c1-1,3.52-2.74.16-2.65a8.81,8.81,0,0,0-4.27,1.18A9.1,9.1,0,0,0,14,56.6,9,9,0,0,0,16.61,63l9.65,9.65a.89.89,0,0,0,1.36-1.13C23.93,66.05,20,59.49,20,56.6Z"/><path class="cls-8" d="M12.36,51.95h0a15.06,15.06,0,0,1,21.3,0l.17.17A15.06,15.06,0,0,1,55,52.27h0a15,15,0,0,1,4.11,7.65A15,15,0,0,0,55,46.27h0a15.06,15.06,0,0,0-21.13-.16l-.17-.17a15.06,15.06,0,0,0-21.3,0h0A15,15,0,0,0,8.26,59.6,15,15,0,0,1,12.36,51.95Z"/><path class="cls-9" d="M55,46.27h0a15.06,15.06,0,0,0-21.13-.16l-.17-.17a15.06,15.06,0,0,0-21.3,0h0a15.06,15.06,0,0,0,0,21.3L30.88,85.77,32.1,87a2.45,2.45,0,0,0,3.46,0L55,67.58A15.06,15.06,0,0,0,55,46.27Z"/><path class="cls-10" d="M31.3,44a15.07,15.07,0,0,0-18.94,1.93h0A15,15,0,0,0,8,56.5"/><path class="cls-11" d="M23,41.53a15,15,0,0,0-10.64,4.41h0"/><path class="cls-6" d="M115.64,46.27h0a15.06,15.06,0,0,0-21.13-.16l-.17-.17a15.06,15.06,0,0,0-21.3,0h0a15.06,15.06,0,0,0,0,21.3L91.55,85.77,92.77,87a2.45,2.45,0,0,0,3.46,0l19.41-19.41A15.06,15.06,0,0,0,115.64,46.27Z"/><path class="cls-8" d="M73,51.95h0a15.06,15.06,0,0,1,21.3,0l.17.17a15.06,15.06,0,0,1,21.13.16h0a15,15,0,0,1,4.11,7.65,15,15,0,0,0-4.11-13.65h0a15.06,15.06,0,0,0-21.13-.16l-.17-.17a15.06,15.06,0,0,0-21.3,0h0A15,15,0,0,0,68.92,59.6,15,15,0,0,1,73,51.95Z"/><path class="cls-9" d="M115.64,46.27h0a15.06,15.06,0,0,0-21.13-.16l-.17-.17a15.06,15.06,0,0,0-21.3,0h0a15.06,15.06,0,0,0,0,21.3L91.55,85.77,92.77,87a2.45,2.45,0,0,0,3.46,0l19.41-19.41A15.06,15.06,0,0,0,115.64,46.27Z"/><line class="cls-12" x1="99.11" x2="108.44" y1="84.11" y2="74.77"/><line class="cls-12" x1="38.33" x2="47.67" y1="84.11" y2="74.77"/><path class="cls-10" d="M92,44A15.07,15.07,0,0,0,73,45.95h0A15,15,0,0,0,68.62,56.5"/><path class="cls-11" d="M83.67,41.53A15,15,0,0,0,73,45.95h0"/><path class="cls-7" d="M82,56.6a9,9,0,0,1,2.65-6.41c1-1,3.52-2.74.16-2.65a8.81,8.81,0,0,0-4.27,1.18A9.1,9.1,0,0,0,76,56.6,9,9,0,0,0,78.61,63l9.65,9.65a.89.89,0,0,0,1.36-1.13C85.93,66.05,82,59.49,82,56.6Z"/></svg>