<?xml version="1.0" ?><svg data-name="Layer 1" id="Layer_1" viewBox="0 0 128 128" xmlns="http://www.w3.org/2000/svg" xmlns:xlink="http://www.w3.org/1999/xlink"><defs><style>.cls-1,.cls-14,.cls-3,.cls-4,.cls-5,.cls-7{fill:none;}.cls-2{fill:#515570;}.cls-14,.cls-3{stroke:#f8dc25;}.cls-3,.cls-4,.cls-5,.cls-7{stroke-linecap:round;stroke-linejoin:round;}.cls-3{stroke-width:8px;}.cls-4{stroke:#f2bc0f;stroke-width:10px;}.cls-5,.cls-7{stroke:#fff;}.cls-14,.cls-5{stroke-width:6px;}.cls-5{opacity:0.3;}.cls-6{fill:#f2bc0f;}.cls-7{stroke-width:2px;}.cls-10,.cls-15,.cls-7{opacity:0.6;}.cls-11,.cls-8,.cls-9{fill:#393c54;}.cls-9{opacity:0.1;}.cls-10,.cls-17{fill:#00adfe;}.cls-11,.cls-12{opacity:0.2;}.cls-13{fill:#fff;}.cls-14{stroke-miterlimit:10;}.cls-16{clip-path:url(#clip-path);}.cls-18{clip-path:url(#clip-path-2);}</style><clipPath id="clip-path"><path class="cls-1" d="M-77.33,215.65c-19.06-13.76-38-27.32-52.64-30.76-6.29-1.64-10.54-1.12-13.2,3.51h0c-1,1.71-2.24,5.1-2.24,10.64a155.42,155.42,0,0,0,4.91,39.25c2.25,8,8,12.45,15.86,9.77C-107.31,241.63-91.79,228.89-77.33,215.65Z"/></clipPath><clipPath id="clip-path-2"><path class="cls-1" d="M-90.64,215.63c18.48-15.4,36.72-30,54-37.07,7.84-2.31,12.84,2.94,13.8,9,.47,17.22-.21,32.92-3.12,45.67-2.59,7.52-7.84,11.77-15.3,10.52C-57.85,239.93-74.3,228.4-90.64,215.63Z"/></clipPath></defs><title/><rect class="cls-2" height="20" rx="8.17" ry="8.17" width="30" x="47" y="100"/><path class="cls-3" d="M42,110H90.83A26.17,26.17,0,0,0,117,83.83V11"/><path class="cls-4" d="M90.83,110A26.17,26.17,0,0,0,117,83.83"/><path class="cls-5" d="M90.83,110a26.13,26.13,0,0,0,20.91-10.44"/><rect class="cls-6" height="12" rx="4" ry="4" width="16" x="54" y="104"/><path class="cls-7" d="M56,108a2,2,0,0,1,2-2h4"/><path class="cls-6" d="M83.21,90,66.8,94a20.12,20.12,0,0,1-9.6,0L40.79,90,62,68.79Z"/><path class="cls-2" d="M105,73h8a5,5,0,0,0,5-5V61a5,5,0,0,0-5-5h-8Z"/><path class="cls-2" d="M19,73H11a5,5,0,0,1-5-5V61a5,5,0,0,1,5-5h8Z"/><path class="cls-8" d="M104,57.3a13.56,13.56,0,0,1,2.64,8.79L106.26,73h6.35l.36-6.57A19.84,19.84,0,0,0,110.65,56H104Z"/><path class="cls-9" d="M66.8,94l16.41-4L62,68.79V94.61A20.12,20.12,0,0,0,66.8,94Z"/><path class="cls-10" d="M93.4,49.82a265.53,265.53,0,0,0-62.71.07A15.81,15.81,0,0,0,16.78,66.47L17.19,74A15.86,15.86,0,0,0,33,89h3.73a15.86,15.86,0,0,0,13.74-7.93L53,76.78a10.43,10.43,0,0,1,18.07,0l2.47,4.29A15.86,15.86,0,0,0,87.24,89H91a15.86,15.86,0,0,0,15.84-15l.41-7.62A15.79,15.79,0,0,0,93.4,49.82Z"/><path class="cls-11" d="M21.41,78.72,21,71.57A15,15,0,0,1,34.25,55.82a252.35,252.35,0,0,1,59.59-.07A14.86,14.86,0,0,1,104.25,62,15,15,0,0,0,91.84,51.75a252.35,252.35,0,0,0-59.59.07A15,15,0,0,0,19,67.57l.39,7.16a15,15,0,0,0,2.73,7.86A15,15,0,0,1,21.41,78.72Z"/><path class="cls-8" d="M17.37,66.18A13.53,13.53,0,0,1,20,57.41V56H13.41A19.81,19.81,0,0,0,11,66.52L11.38,73h6.35Z"/><g class="cls-12"><path class="cls-13" d="M62.67,56a251.55,251.55,0,0,1,29.78,1.76,7.79,7.79,0,0,1,6.79,8.18l-.41,7.62A7.86,7.86,0,0,1,91,81H87.24a7.88,7.88,0,0,1-6.81-3.93L78,72.78a18.43,18.43,0,0,0-31.92,0l-2.47,4.29A7.88,7.88,0,0,1,36.76,81H33a7.86,7.86,0,0,1-7.85-7.43L24.77,66a7.82,7.82,0,0,1,6.86-8.2,267.44,267.44,0,0,1,31-1.84m0-2a269.44,269.44,0,0,0-31.27,1.85,9.82,9.82,0,0,0-8.62,10.29l.41,7.53A9.86,9.86,0,0,0,33,83h3.73a9.89,9.89,0,0,0,8.54-4.93l2.47-4.29a16.43,16.43,0,0,1,28.46,0l2.48,4.29A9.88,9.88,0,0,0,87.24,83H91a9.86,9.86,0,0,0,9.84-9.33l.41-7.62a9.8,9.8,0,0,0-8.54-10.28,253.56,253.56,0,0,0-30-1.78Z"/></g><path class="cls-14" d="M93.4,49.82a265.53,265.53,0,0,0-62.71.07A15.81,15.81,0,0,0,16.78,66.47L17.19,74A15.86,15.86,0,0,0,33,89h3.73a15.86,15.86,0,0,0,13.74-7.93L53,76.78a10.43,10.43,0,0,1,18.07,0l2.47,4.29A15.86,15.86,0,0,0,87.24,89H91a15.86,15.86,0,0,0,15.84-15l.41-7.62A15.79,15.79,0,0,0,93.4,49.82Z"/><path class="cls-5" d="M93.4,49.82a265.53,265.53,0,0,0-62.71.07A15.81,15.81,0,0,0,16.78,66.47"/><path class="cls-5" d="M50.49,81.07,53,76.78a10.43,10.43,0,0,1,18.07,0"/><path class="cls-7" d="M19.48,56.73a15.81,15.81,0,0,0-2.69,9.73"/><path class="cls-7" d="M39.5,49q-4.39.38-8.81.89"/><path class="cls-7" d="M93.4,49.82q-5.54-.66-11.13-1.09"/><path class="cls-7" d="M53,76.78a10.32,10.32,0,0,1,8.51-5.2"/><g class="cls-15"><g class="cls-16"><g class="cls-15"><path class="cls-17" d="M-185.57,381.17q-.73-4.84-1.59-9.6c89.49-57.26,164.33-164,182.85-300.45Q.07,76,4.37,81C-16.95,218.11-94.15,324.57-185.57,381.17Z"/><path class="cls-17" d="M-183.24,400.8q-.44-5-1-9.88C-90.88,335-11.28,228.86,12.87,91.11q4.2,5.14,8.29,10.41C-5.85,239.83-87.87,345.64-183.24,400.8Z"/><path class="cls-17" d="M-182.09,421q-.13-5.1-.42-10.15C-85.13,356.45-.66,251,29.22,112.2q4,5.41,7.85,11C4.27,262.44-82.67,367.44-182.09,421Z"/></g></g></g><g class="cls-15"><g class="cls-18"><g class="cls-15"><path class="cls-17" d="M-108.2,277.43q-1.73-3.53-3.54-7C-48.14,215.78-1.4,120.8-8.5,7.38q4.59,3,9.12,6.16C5.48,127.88-43.12,223-108.2,277.43Z"/><path class="cls-17" d="M-101.67,291.88q-1.54-3.7-3.17-7.31C-38.27,230.39,12.22,135.2,9.64,20q4.48,3.28,8.9,6.69C18.83,142.75-33.57,238-101.67,291.88Z"/><path class="cls-17" d="M-95.93,307q-1.33-3.86-2.77-7.64c69.65-53.55,124-148.83,126-265.75q4.35,3.54,8.64,7.22C31.58,158.54-24.71,253.82-95.93,307Z"/><path class="cls-17" d="M-91,322.75q-1.12-4-2.35-8C-20.55,262,37.72,166.78,44.46,48.3q4.22,3.8,8.36,7.74C43.69,175.24-16.58,270.4-91,322.75Z"/><path class="cls-17" d="M-87,339.1q-.89-4.16-1.89-8.25C-12.81,279,49.49,183.92,61,64q4.07,4.06,8.05,8.25C55.1,192.82-9.25,287.73-87,339.1Z"/><path class="cls-17" d="M-83.93,356q-.65-4.29-1.41-8.52C-5.9,296.66,60.53,201.94,77,80.78q3.9,4.31,7.72,8.75C65.76,211.26-2.77,305.76-83.93,356Z"/><path class="cls-17" d="M-81.85,373.44q-.39-4.42-.91-8.77C.13,315,70.79,220.8,92.23,98.52q3.72,4.56,7.36,9.24C75.61,230.54,2.81,324.47-81.85,373.44Z"/><path class="cls-17" d="M-80.84,391.34q-.12-4.53-.37-9c86.45-48.26,161.43-141.85,188-265.09q3.53,4.8,7,9.72C84.6,250.61,7.42,343.82-80.84,391.34Z"/></g></g></g></svg>