<?xml version="1.0" ?><svg data-name="Layer 1" id="Layer_1" viewBox="0 0 128 128" xmlns="http://www.w3.org/2000/svg"><defs><style>.cls-1{fill:#f2bc0f;}.cls-2{fill:#393c54;opacity:0.2;}.cls-3{fill:#f8dc25;}</style></defs><title/><path class="cls-1" d="M10,91V89.08C10,60,32,35.32,61,33a55.56,55.56,0,0,1,60,55.32V91"/><path class="cls-2" d="M51.63,80H78.46L90.59,38.75a55.26,55.26,0,0,0-51.09,0Z"/><path class="cls-1" d="M65,30.76a122.79,122.79,0,0,0-13.81.78,2,2,0,0,0-1.84,1.77L51.63,89H78.46L80.7,33.31a2,2,0,0,0-1.84-1.77A122.79,122.79,0,0,0,65,30.76Z"/><path class="cls-1" d="M85.7,99H42.61A78.66,78.66,0,0,1,4.22,89H124.08A78.66,78.66,0,0,1,85.7,99Z"/><rect class="cls-3" height="7" rx="1.77" ry="1.77" width="120" x="5" y="84"/></svg>