<?xml version="1.0" ?><svg data-name="Layer 1" id="Layer_1" viewBox="0 0 128 128" xmlns="http://www.w3.org/2000/svg"><defs><style>.cls-1{fill:#f8dc25;}.cls-2,.cls-4{fill:#393c54;}.cls-3{fill:#f85565;}.cls-4{opacity:0.3;}.cls-5{fill:#fff;}.cls-6{fill:#515570;}.cls-7{fill:none;stroke:#fff;stroke-linecap:round;stroke-linejoin:round;stroke-width:4px;}</style></defs><title/><path class="cls-1" d="M4,81a60,60,0,0,1,120,0"/><path class="cls-2" d="M9,81a55,55,0,0,1,110,0"/><path class="cls-3" d="M105,81H23V96a2,2,0,0,0,2,2c25.77-3.7,51.45-3.64,79,0Z"/><polygon class="cls-4" points="105 91.22 105 81 65.48 81 105 91.22"/><path class="cls-4" d="M23,87.78V96a2,2,0,0,0,.34,1.12,2,2,0,0,0,.54.54A2,2,0,0,0,25,98a271.73,271.73,0,0,1,27.8-2.52Z"/><rect class="cls-5" height="21" rx="10.5" ry="10.5" width="32" x="48" y="46"/><circle class="cls-6" cx="56.5" cy="56.5" r="3.5"/><line class="cls-7" x1="64" x2="64" y1="63" y2="68"/><circle class="cls-6" cx="71.5" cy="56.5" r="3.5"/><path class="cls-6" d="M64.78,59.89l2,3.51a1.07,1.07,0,0,1-.92,1.6H61.83a1.07,1.07,0,0,1-.92-1.6l2-3.51A1.07,1.07,0,0,1,64.78,59.89Z"/><line class="cls-7" x1="57" x2="57" y1="63" y2="68"/><line class="cls-7" x1="71" x2="71" y1="63" y2="68"/><path class="cls-3" d="M107.41,105.45c-3,.92-8.22-7.45-9.14-10.44a5.67,5.67,0,1,1,10.83-3.33C110,94.67,110.4,104.53,107.41,105.45Z"/><path class="cls-4" d="M107.41,105.45c-3,.92-8.22-7.45-9.14-10.44a5.67,5.67,0,1,1,10.83-3.33C110,94.67,110.4,104.53,107.41,105.45Z"/><path class="cls-3" d="M113.89,102c-2.27,2.15-10.67-3-12.83-5.29a5.67,5.67,0,0,1,8.22-7.8C111.44,91.19,116.16,99.85,113.89,102Z"/></svg>