<?xml version="1.0" ?><svg data-name="Layer 1" id="Layer_1" viewBox="0 0 128 128" xmlns="http://www.w3.org/2000/svg" xmlns:xlink="http://www.w3.org/1999/xlink"><defs><style>.cls-1{fill:none;}.cls-2{fill:#f8dc25;}.cls-3{fill:#fff;opacity:0.5;}.cls-4{clip-path:url(#clip-path);}.cls-5{fill:#f85565;}.cls-6{fill:#f2bc0f;}.cls-7{fill:#f2f6f9;}.cls-8{fill:#00adfe;}.cls-9{fill:#515570;}.cls-10{fill:#4bc190;}.cls-11{fill:#393c54;opacity:0.1;}.cls-12{opacity:0.6;}.cls-13{clip-path:url(#clip-path-2);}</style><clipPath id="clip-path"><path class="cls-1" d="M108.14,114.81a336.13,336.13,0,0,0-88.1.43,3.34,3.34,0,0,1-3.77-2.83l-1.36-9.74a3.38,3.38,0,0,1,3-3.76,352.12,352.12,0,0,1,92.29.55,3.32,3.32,0,0,1,3,3.59l-1.32,9.12A3.3,3.3,0,0,1,108.14,114.81Z"/></clipPath><clipPath id="clip-path-2"><path class="cls-1" d="M218.67,215.65c-19.06-13.76-38-27.32-52.64-30.76-6.29-1.64-10.54-1.12-13.2,3.51h0c-1,1.71-2.24,5.1-2.24,10.64a155.42,155.42,0,0,0,4.91,39.25c2.25,8,8,12.45,15.86,9.77C188.69,241.63,204.21,228.89,218.67,215.65Z"/></clipPath></defs><title/><path class="cls-2" d="M108.14,114.81a336.13,336.13,0,0,0-88.1.43,3.34,3.34,0,0,1-3.77-2.83l-1.36-9.74a3.38,3.38,0,0,1,3-3.76,352.12,352.12,0,0,1,92.29.55,3.32,3.32,0,0,1,3,3.59l-1.32,9.12A3.3,3.3,0,0,1,108.14,114.81Z"/><path class="cls-3" d="M67.87,104.16a3.39,3.39,0,0,1-6.76,0,3.39,3.39,0,0,1,6.76,0Z"/><path class="cls-3" d="M83.93,104.72a3.39,3.39,0,0,1-6.76-.33,3.39,3.39,0,0,1,6.76.33Z"/><path class="cls-3" d="M32.4,105.57a3.39,3.39,0,0,1-6.74.68,3.39,3.39,0,0,1,6.74-.68Z"/><path class="cls-3" d="M50.12,104.41a3.39,3.39,0,0,1-6.76.34,3.39,3.39,0,0,1,6.76-.34Z"/><path class="cls-3" d="M100.79,106.12a3.4,3.4,0,0,1-6.74-.66,3.4,3.4,0,0,1,6.74.66Z"/><g class="cls-4"><path class="cls-5" d="M114.12,115.66q-3.57-4.45-7.33-8.87-4.75,3.35-9.32,6.87-3.77-4.31-7.75-8.58-4.58,3.62-9,7.42-4-4.16-8.16-8.28-4.39,3.89-8.57,7.95-4.18-4-8.56-8-4.19,4.15-8.16,8.46-4.38-3.84-9-7.61-4,4.4-7.73,8.95-4.57-3.66-9.33-7.25-3.35,4.59-6.51,9.29,1,4.68,2.06,9.35a323.93,323.93,0,0,1,94.62-3.58Q112.77,118.73,114.12,115.66Z"/><path class="cls-6" d="M2.32,100.59q5.07,3.39,9.94,6.87,3.64-4.77,7.49-9.41,4.88,3.59,9.56,7.26,3.86-4.53,7.94-8.93,4.69,3.78,9.18,7.64,4.08-4.29,8.37-8.43,4.49,4,8.79,8,4.29-4,8.78-7.91,4.29,4.14,8.38,8.33,4.48-3.77,9.16-7.37,4.08,4.3,8,8.64,4.27-3.53,8.7-6.91,3.88,4.47,7.56,9,4.62-3.1,9.4-6-.17-4.53-.39-9.08A389.27,389.27,0,0,0,84.32,81a370.66,370.66,0,0,0-40-1.21A322.62,322.62,0,0,0,1.46,95.69Z"/></g><path class="cls-7" d="M74.67,36.72A87.21,87.21,0,0,1,76.06,52C76.06,77.31,64,97.83,64,97.83S51.94,77.31,51.94,52a86.58,86.58,0,0,1,1.18-14.06"/><path class="cls-8" d="M53.62,35.22c-.54,2.79-1,5.7-1.28,8.73L63.62,54.07,75.47,42.22c-.3-2.57-.7-5.05-1.18-7.44"/><path class="cls-9" d="M54.68,30.43c-.71,2.89-1.33,6-1.8,9.17l10.74,9.65L74.88,38c-.51-3.09-1.15-6-1.87-8.8"/><path class="cls-10" d="M69.41,18l-3.24,1.29,2.26-3.76c-1.09-2.65-2.1-4.82-2.88-6.39a1.65,1.65,0,0,0-3.1,0,100.38,100.38,0,0,0-4.12,9.53l1.81,5.44L57.37,21.3c-.27.78-.54,1.6-.8,2.43l4.78,6.37-5.59-3.73c-.55,1.9-1.07,3.9-1.54,6l9.39,8.44L73.46,31A106.77,106.77,0,0,0,69.41,18Z"/><path class="cls-6" d="M64.22,13.22c.3,6.93.5,13.87.64,20.8s.22,13.87.32,20.8.1,13.87.06,20.8-.18,13.87-.49,20.8a1,1,0,0,1-2,0c-.3-6.93-.39-13.87-.49-20.8s0-13.87.06-20.8S62.47,41,62.67,34s.34-13.87.64-20.8a.45.45,0,0,1,.9,0Z"/><path class="cls-11" d="M60.74,68.06l-7.53-1.53c.18,1,.37,2.07.57,3.08Z"/><path class="cls-11" d="M52,56.05q.08,1.66.23,3.29l8,2.71Z"/><path class="cls-11" d="M76,54.12q0-.94,0-1.88l-7.47,5.6Z"/><path class="cls-11" d="M68.59,60.25h7q.1-1,.18-2.07Z"/><path class="cls-11" d="M67.38,77.14,71.21,81c.4-1.22.79-2.5,1.17-3.83Z"/><path class="cls-11" d="M73,74.73c.23-.89.45-1.78.66-2.71l-6.31,2.71Z"/><circle class="cls-2" cx="64" cy="97" r="11"/><circle class="cls-6" cx="64" cy="97" r="8"/><g class="cls-12"><g class="cls-13"><g class="cls-12"><path class="cls-8" d="M56.32,248.63q-2.49-3.35-5.06-6.6c62.25-62.53,102.9-168,80.3-288.9q5.45,2.49,10.86,5.13C162.66,80.36,120.07,186.18,56.32,248.63Z"/><path class="cls-8" d="M66,262.47q-2.32-3.57-4.74-7C126.5,193.1,171,87,153.2-36.31q5.37,2.79,10.7,5.73C179.32,93.88,132.79,200.27,66,262.47Z"/><path class="cls-8" d="M74.9,277.15q-2.14-3.77-4.38-7.45c68.41-62,117-168.65,104-294.25q5.28,3.09,10.5,6.34C195.5,108.5,144.91,215.32,74.9,277.15Z"/><path class="cls-8" d="M83.08,292.65q-1.94-4-4-7.85C150.74,223.2,203.4,116.21,195.4-11.56q5.17,3.39,10.28,6.94C211.14,124.19,156.39,231.32,83.08,292.65Z"/><path class="cls-8" d="M90.43,308.93q-1.73-4.17-3.57-8.24c75-61,131.88-168.27,129-298.08q5,3.69,10,7.54C226.18,140.93,167.15,248.24,90.43,308.93Z"/><path class="cls-8" d="M96.91,326q-1.5-4.35-3.12-8.61C172.25,257,233.45,149.7,235.73,18q4.91,4,9.74,8.13C240.55,158.73,177.14,266.05,96.91,326Z"/><path class="cls-8" d="M102.44,343.71q-1.26-4.52-2.64-9c82-59.46,147.67-166.75,155.26-300.21q4.75,4.28,9.42,8.71C254.19,177.54,186.29,284.74,102.44,343.71Z"/><path class="cls-8" d="M107,362.13q-1-4.68-2.13-9.29c85.7-58.44,155.89-165.52,168.89-300.58q4.58,4.57,9.07,9.29C267,197.34,194.55,304.25,107,362.13Z"/><path class="cls-8" d="M110.43,381.17q-.73-4.84-1.59-9.6c89.49-57.26,164.33-164,182.85-300.45q4.4,4.86,8.69,9.86C279.05,218.11,201.85,324.57,110.43,381.17Z"/><path class="cls-8" d="M112.76,400.8q-.44-5-1-9.88c93.38-55.91,173-162.06,197.13-299.81q4.2,5.14,8.29,10.41C290.15,239.83,208.13,345.64,112.76,400.8Z"/><path class="cls-8" d="M113.91,421q-.13-5.1-.42-10.15C210.87,356.45,295.34,251,325.22,112.2q4,5.41,7.85,11C300.27,262.44,213.33,367.44,113.91,421Z"/></g></g></g></svg>