<svg width="128" height="128" xmlns="http://www.w3.org/2000/svg">
 <defs>
  <clipPath id="clip-path">
   <path fill="none" id="svg_1" d="m70.67,215.65c-19.06,-13.76 -38,-27.32 -52.64,-30.76c-6.29,-1.64 -10.54,-1.12 -13.2,3.51l0,0c-1,1.71 -2.24,5.1 -2.24,10.64a155.42,155.42 0 0 0 4.91,39.26c2.25,8 8,12.45 15.86,9.77c17.33,-6.44 32.85,-19.18 47.31,-32.42z" class="cls-1"/>
  </clipPath>
  <clipPath id="clip-path-2">
   <path fill="none" id="svg_2" d="m57.36,215.63c18.48,-15.4 36.72,-30 54,-37.07c7.84,-2.31 12.84,2.94 13.8,9c0.47,17.22 -0.21,32.92 -3.12,45.67c-2.59,7.52 -7.84,11.77 -15.3,10.52c-16.59,-3.82 -33.04,-15.35 -49.38,-28.12z" class="cls-1"/>
  </clipPath>
 </defs>
 <title/>
 <g>
  <title>background</title>
  <rect fill="none" id="canvas_background" height="402" width="582" y="-1" x="-1"/>
 </g>
 <g>
  <title>Layer 1</title>
  <path fill="#f85565" id="svg_3" d="m10.24,78.3s4.32,29.78 52,29.78s53.6,-25.81 53.6,-29.78s-31.84,-17.87 -51.65,-17.87s-53.95,11.91 -53.95,17.87z" class="cls-2"/>
  <path fill="#ffffff" opacity="0.2" id="svg_5" d="m41.95,96.17a50.46,50.46 0 0 1 -6.28,-1.78a38.72,38.72 0 0 1 -6,-2.79a28.53,28.53 0 0 1 -10,-9.36l0,0a2.44,2.44 0 0 1 4.13,-2.6a2.67,2.67 0 0 1 0.16,0.31a21.93,21.93 0 0 0 3.04,4.92a27.17,27.17 0 0 0 4.31,4.21a36.13,36.13 0 0 0 5.19,3.37a48.78,48.78 0 0 0 5.78,2.55l0,0a0.6,0.6 0 0 1 -0.35,1.15l0.02,0.02z" class="cls-4"/>
  <path fill="#393c54" opacity="0.2" id="svg_6" d="m104.86,71c1.23,0.94 1.94,1.74 1.94,2.32c0,4 -6,29.78 -53.6,29.78c-12.5,0 -22,-2.05 -29.2,-5.08c7.65,5.54 19.59,10.08 38.2,10.08c47.64,0 53.6,-25.81 53.6,-29.78c0,-1.5 -4.4,-4.32 -10.94,-7.32z" class="cls-5"/>
  <path fill="#f85565" id="svg_7" d="m7.56,68.7l26.72,-29.83a11,11 0 0 1 15.52,-0.8l11,10a4,4 0 0 0 5.34,0l11,-10a11,11 0 0 1 15.52,0.8l26.16,29.26a5.15,5.15 0 0 1 -0.55,7.76l-3.19,2.39s-25.81,-9.93 -51.61,-9.93s-53.23,9.95 -53.23,9.95l-2.68,-2.3a5.15,5.15 0 0 1 0,-7.3z" class="cls-2"/>
  <path fill="#393c54" opacity="0.2" id="svg_8" d="m56.47,68.37c-19,0 -39,5.37 -48.31,8.21l2.08,1.72s24.62,-8.92 49.2,-9.84c-0.98,-0.05 -1.97,-0.09 -2.97,-0.09z" class="cls-5"/>
  <path fill="#393c54" opacity="0.2" id="svg_9" d="m60.8,48.08l-11,-10a10.94,10.94 0 0 0 -10.86,-2.27l0,0a10.9,10.9 0 0 1 3.86,2.27l14.5,13.5a4,4 0 0 0 5.34,0l2.83,-3a4,4 0 0 1 -4.67,-0.5z" class="cls-5"/>
  <path fill="#393c54" opacity="0.2" id="svg_10" d="m118.83,68.15l-26.17,-29.26a11,11 0 0 0 -11.66,-3.08a10.89,10.89 0 0 1 4.67,3.07c9.53,11.79 16.33,23.87 20.16,36.27l0.11,0.13c5.67,1.69 9.14,3 9.14,3l3.19,-2.39a5.15,5.15 0 0 0 0.56,-7.74z" class="cls-5"/>
  <path fill="#ffffff" opacity="0.2" id="svg_12" d="m23.42,58.46l9.63,-11.28l4.89,-5.71a6.56,6.56 0 0 1 4.41,-2a6.83,6.83 0 0 1 4.76,1.53l0.15,0.12a2,2 0 1 1 -2.59,3.08a2.17,2.17 0 0 1 -0.24,-0.24a3.17,3.17 0 0 0 -4.32,-0.28a8.08,8.08 0 0 0 -0.6,0.57l-0.66,0.65l-1.32,1.31l-2.63,2.62l-10.54,10.5a0.64,0.64 0 0 1 -0.94,-0.87z" class="cls-4"/>
  <path fill="#ffffff" opacity="0.2" id="svg_14" d="m80.18,41.43a6.65,6.65 0 0 1 4.32,-2.19l0.29,0a2,2 0 0 1 0.4,4.08a2.09,2.09 0 0 1 -0.68,0a3.13,3.13 0 0 0 -2.33,0.38l-0.11,0.06a1.49,1.49 0 0 1 -1.88,-2.25l-0.01,-0.08z" class="cls-4"/>
  <path fill="#515570" id="svg_15" d="m10.24,78c4.6,-1.57 29.92,-9.66 53.23,-9.66c25.81,0 51.61,9.93 51.61,9.93l0.6,-0.45c-2.06,-4.47 -32.32,-12.42 -51.49,-12.42c-19.57,0.03 -53.01,6.6 -53.95,12.6z" class="cls-6"/>
  <path fill="#393c54" opacity="0.2" id="svg_16" d="m85,69.37c0,4.39 -9.78,1.94 -21.84,1.94s-21.84,2.45 -21.84,-1.94s9.78,-7.94 21.84,-7.94s21.84,3.57 21.84,7.94z" class="cls-5"/>
  <path fill="#00adfe" opacity="0.36" id="svg_27" d="m-37.57,381.17q-0.73,-4.84 -1.59,-9.6c89.49,-57.26 164.33,-164 182.85,-300.45q4.4,4.86 8.69,9.86c-21.33,137.13 -98.53,243.59 -189.95,300.19z" class="cls-9"/>
  <path fill="#00adfe" opacity="0.36" id="svg_28" d="m-35.24,400.8q-0.44,-5 -1,-9.88c93.36,-55.92 172.96,-162.06 197.11,-299.81q4.2,5.14 8.29,10.41c-27.01,138.31 -109.03,244.12 -204.4,299.28z" class="cls-9"/>
  <path fill="#00adfe" opacity="0.36" id="svg_29" d="m-34.09,421q-0.13,-5.1 -0.42,-10.15c97.38,-54.4 181.85,-159.85 211.73,-298.65q4,5.41 7.85,11c-32.8,139.24 -119.74,244.24 -219.16,297.8z" class="cls-9"/>
  <path fill="#00adfe" opacity="0.36" id="svg_36" d="m39.8,277.43q-1.73,-3.53 -3.54,-7c63.6,-54.65 110.34,-149.63 103.24,-263.05q4.59,3 9.12,6.16c4.86,114.34 -43.74,209.46 -108.82,263.89z" class="cls-9"/>
  <path fill="#00adfe" opacity="0.36" id="svg_37" d="m46.33,291.88q-1.54,-3.7 -3.17,-7.31c66.57,-54.18 117.06,-149.37 114.48,-264.57q4.48,3.28 8.9,6.69c0.29,116.06 -52.11,211.31 -120.21,265.19z" class="cls-9"/>
  <path fill="#00adfe" opacity="0.36" id="svg_38" d="m52.07,307q-1.33,-3.86 -2.77,-7.64c69.65,-53.55 124,-148.83 126,-265.75q4.35,3.54 8.64,7.22c-4.36,117.71 -60.65,212.99 -131.87,266.17z" class="cls-9"/>
  <path fill="#00adfe" opacity="0.36" id="svg_39" d="m57,322.75q-1.12,-4 -2.35,-8c72.82,-52.78 131.09,-148 137.82,-266.5q4.22,3.8 8.36,7.74c-9.14,119.25 -69.41,214.41 -143.83,266.76z" class="cls-9"/>
  <path fill="#00adfe" opacity="0.36" id="svg_40" d="m61,339.1q-0.89,-4.16 -1.89,-8.25c76.08,-51.85 138.38,-146.93 149.89,-266.85q4.07,4.06 8.05,8.25c-13.95,120.57 -78.3,215.48 -156.05,266.85z" class="cls-9"/>
  <path fill="#00adfe" opacity="0.36" id="svg_41" d="m64.07,356q-0.65,-4.29 -1.41,-8.52c79.44,-50.82 145.87,-145.54 162.34,-266.7q3.9,4.31 7.72,8.75c-18.96,121.73 -87.49,216.23 -168.65,266.47z" class="cls-9"/>
  <path fill="#00adfe" opacity="0.36" id="svg_42" d="m66.15,373.44q-0.39,-4.42 -0.91,-8.77c82.9,-49.63 153.55,-143.86 175,-266.14q3.72,4.56 7.36,9.24c-23.99,122.77 -96.79,216.7 -181.45,265.67z" class="cls-9"/>
  <path fill="#00adfe" opacity="0.36" id="svg_43" d="m67.16,391.34q-0.12,-4.53 -0.37,-9c86.45,-48.26 161.43,-141.85 188,-265.09q3.53,4.8 7,9.72c-29.19,123.64 -106.37,216.85 -194.63,264.37z" class="cls-9"/>
 </g>
</svg>