<?xml version="1.0" ?><svg data-name="Layer 1" id="Layer_1" viewBox="0 0 128 128" xmlns="http://www.w3.org/2000/svg"><defs><style>.cls-1{fill:#393c54;}.cls-2{fill:#515570;}.cls-3,.cls-5{fill:none;stroke:#fff;stroke-linecap:round;stroke-linejoin:round;}.cls-3{stroke-width:5px;}.cls-4{fill:#fff;}.cls-5{stroke-width:3px;}</style></defs><title/><path class="cls-1" d="M3,65H33a0,0,0,0,1,0,0v5a0,0,0,0,1,0,0H3a1,1,0,0,1-1-1V66A1,1,0,0,1,3,65Z"/><path class="cls-1" d="M79.59,63.65,125.25,18a1,1,0,0,0-.44-1.67l-3.25-.92a1,1,0,0,0-1,.25L76.06,60.11Z"/><path class="cls-1" d="M79.6,58,32.94,63A2.17,2.17,0,0,0,31,65.16V86h0c0,.18,0,.36,0,.54a25.5,25.5,0,1,0,51,0c0-.18,0-.36,0-.54h0V60.2A2.17,2.17,0,0,0,79.6,58Z"/><path class="cls-2" d="M34,89.54c0-.18,0-.36,0-.54h0V68.16A2.17,2.17,0,0,1,35.94,66L82,61.11V60.2A2.17,2.17,0,0,0,79.6,58L32.94,63A2.17,2.17,0,0,0,31,65.16V86h0c0,.18,0,.36,0,.54A25.44,25.44,0,0,0,40,106,25.39,25.39,0,0,1,34,89.54Z"/><line class="cls-3" x1="45.38" x2="68.5" y1="95.69" y2="72.5"/><circle class="cls-4" cx="67" cy="70" r="3"/><circle class="cls-4" cx="71" cy="74" r="3"/><circle class="cls-4" cx="42.5" cy="94.5" r="3"/><circle class="cls-4" cx="46.5" cy="98.5" r="3"/><line class="cls-3" x1="45.31" x2="68.5" y1="72.88" y2="96"/><circle class="cls-4" cx="71" cy="94.5" r="3"/><circle class="cls-4" cx="67" cy="98.5" r="3"/><circle class="cls-4" cx="46.5" cy="70" r="3"/><circle class="cls-4" cx="42.5" cy="74" r="3"/><path class="cls-1" d="M60.23,74H52.77A9.78,9.78,0,0,0,43,83.77v.46a9.76,9.76,0,0,0,4.5,8.21v.06a4,4,0,0,0,4,4,4,4,0,0,0,2.5-.9,3.91,3.91,0,0,0,5,0,4,4,0,0,0,2.5.9,4,4,0,0,0,4-4v-.06A9.76,9.76,0,0,0,70,84.23v-.46A9.78,9.78,0,0,0,60.23,74Z"/><rect class="cls-4" height="16" rx="7.77" ry="7.77" width="23" x="45" y="76"/><circle class="cls-2" cx="50.5" cy="83.5" r="2.5"/><line class="cls-5" x1="56.5" x2="56.5" y1="92.5" y2="89.5"/><line class="cls-5" x1="61.5" x2="61.5" y1="92.5" y2="89.5"/><line class="cls-5" x1="51.5" x2="51.5" y1="92.5" y2="89.5"/><circle class="cls-2" cx="62.5" cy="83.5" r="2.5"/><path class="cls-2" d="M57.24,86.4l1.43,2.48A.75.75,0,0,1,58,90H55.16a.75.75,0,0,1-.65-1.13l1.43-2.48A.75.75,0,0,1,57.24,86.4Z"/></svg>