<?xml version="1.0" ?><svg data-name="Layer 1" id="Layer_1" viewBox="0 0 128 128" xmlns="http://www.w3.org/2000/svg" xmlns:xlink="http://www.w3.org/1999/xlink"><defs><style>.cls-1{fill:none;}.cls-2{fill:#f8dc25;}.cls-3{fill:#4bc190;}.cls-4{fill:#515570;}.cls-5,.cls-8{fill:#f2bc0f;}.cls-5{opacity:0.4;}.cls-6{clip-path:url(#clip-path);}.cls-7{fill:#f85565;}.cls-9{fill:#393c54;opacity:0.3;}.cls-10{fill:#fff;opacity:0.2;}</style><clipPath id="clip-path"><path class="cls-1" d="M123.49,65H4.51a2,2,0,0,0-1.95,2.45l4,15.35a8,8,0,0,0,7.8,6.2h99.27a8,8,0,0,0,7.8-6.2l4-15.35A2,2,0,0,0,123.49,65Z"/></clipPath></defs><title/><path class="cls-2" d="M88.36,70.64C88.36,84.09,77.45,87,64,87S39.64,84.09,39.64,70.64,43.91,28.33,64,28.33C85.37,28.33,88.36,57.19,88.36,70.64Z"/><path class="cls-2" d="M88.36,70.64C88.36,84.09,77.45,87,64,87S39.64,84.09,39.64,70.64,43.91,28.33,64,28.33C85.37,28.33,88.36,57.19,88.36,70.64Z"/><path class="cls-2" d="M88.36,70.64C88.36,84.09,77.45,87,64,87S39.64,84.09,39.64,70.64,43.91,28.33,64,28.33C85.37,28.33,88.36,57.19,88.36,70.64Z"/><path class="cls-3" d="M81.62,53l-5.87,5-5.87-5L64,58l-5.87-5-5.87,5-5.87-5-5.66,4.82a82.32,82.32,0,0,0-1.07,12.82c0,6,2.16,9.88,5.74,12.36H82.62c3.58-2.48,5.74-6.38,5.74-12.36A94.22,94.22,0,0,0,87.51,58h0Z"/><path class="cls-4" d="M81.62,59l-5.87,5-5.87-5L64,64l-5.87-5-5.87,5-5.87-5L40.5,64h-.64c-.15,2.06-.22,4-.22,5.64C39.64,79,45,83.29,52.78,85H75.22C83,83.29,88.36,79,88.36,69.64c0-1.67,0-3.58-.17-5.64H87.5Z"/><rect class="cls-4" height="9" width="4" x="16" y="86"/><circle class="cls-3" cx="18" cy="95.5" r="3.5"/><rect class="cls-4" height="9" width="4" x="31" y="86"/><circle class="cls-3" cx="33" cy="95.5" r="3.5"/><rect class="cls-4" height="9" width="4" x="46" y="86"/><circle class="cls-3" cx="48" cy="95.5" r="3.5"/><rect class="cls-4" height="9" width="4" x="61" y="86"/><circle class="cls-3" cx="63" cy="95.5" r="3.5"/><rect class="cls-4" height="9" width="4" x="77" y="86"/><circle class="cls-3" cx="79" cy="95.5" r="3.5"/><rect class="cls-4" height="9" width="4" x="92" y="86"/><circle class="cls-3" cx="94" cy="95.5" r="3.5"/><rect class="cls-4" height="9" width="4" x="107" y="86"/><circle class="cls-3" cx="109" cy="95.5" r="3.5"/><path class="cls-2" d="M123.49,65H4.51a2,2,0,0,0-1.95,2.45l4,15.35a8,8,0,0,0,7.8,6.2h99.27a8,8,0,0,0,7.8-6.2l4-15.35A2,2,0,0,0,123.49,65Z"/><path class="cls-5" d="M110.64,85,14.36,88a10.11,10.11,0,0,1-6.84-2.86A8,8,0,0,0,14.36,89h99.27a8,8,0,0,0,7.8-6.2l4-15.35S120,84,110.64,85Z"/><g class="cls-6"><path class="cls-4" d="M91.63,72,85.57,82.5a1,1,0,0,0,.87,1.5H98.56a1,1,0,0,0,.87-1.5L93.37,72A1,1,0,0,0,91.63,72Z"/><path class="cls-7" d="M102.63,81.5,96.57,71a1,1,0,0,1,.87-1.5h12.12a1,1,0,0,1,.87,1.5l-6.06,10.5A1,1,0,0,1,102.63,81.5Z"/><path class="cls-8" d="M113.63,72l-6.06,10.5a1,1,0,0,0,.87,1.5h12.12a1,1,0,0,0,.87-1.5L115.37,72A1,1,0,0,0,113.63,72Z"/><path class="cls-7" d="M124.63,81.5,118.57,71a1,1,0,0,1,.87-1.5h12.12a1,1,0,0,1,.87,1.5l-6.06,10.5A1,1,0,0,1,124.63,81.5Z"/><path class="cls-4" d="M47.63,72,41.57,82.5a1,1,0,0,0,.87,1.5H54.56a1,1,0,0,0,.87-1.5L49.37,72A1,1,0,0,0,47.63,72Z"/><path class="cls-7" d="M58.63,81.5,52.57,71a1,1,0,0,1,.87-1.5H65.56a1,1,0,0,1,.87,1.5L60.37,81.5A1,1,0,0,1,58.63,81.5Z"/><path class="cls-8" d="M69.63,72,63.57,82.5a1,1,0,0,0,.87,1.5H76.56a1,1,0,0,0,.87-1.5L71.37,72A1,1,0,0,0,69.63,72Z"/><path class="cls-7" d="M80.63,81.5,74.57,71a1,1,0,0,1,.87-1.5H87.56a1,1,0,0,1,.87,1.5L82.37,81.5A1,1,0,0,1,80.63,81.5Z"/><path class="cls-4" d="M3.63,72-2.43,82.5A1,1,0,0,0-1.56,84H10.56a1,1,0,0,0,.87-1.5L5.37,72A1,1,0,0,0,3.63,72Z"/><path class="cls-7" d="M14.63,81.5,8.57,71a1,1,0,0,1,.87-1.5H21.56a1,1,0,0,1,.87,1.5L16.37,81.5A1,1,0,0,1,14.63,81.5Z"/><path class="cls-8" d="M25.63,72,19.57,82.5a1,1,0,0,0,.87,1.5H32.56a1,1,0,0,0,.87-1.5L27.37,72A1,1,0,0,0,25.63,72Z"/><path class="cls-7" d="M36.63,81.5,30.57,71a1,1,0,0,1,.87-1.5H43.56a1,1,0,0,1,.87,1.5L38.37,81.5A1,1,0,0,1,36.63,81.5Z"/><path class="cls-9" d="M124.63,81.5,118.57,71a1,1,0,0,1,.87-1.5h12.12a1,1,0,0,1,.87,1.5l-6.06,10.5A1,1,0,0,1,124.63,81.5Z"/><path class="cls-9" d="M80.63,81.5,74.57,71a1,1,0,0,1,.87-1.5H87.56a1,1,0,0,1,.87,1.5L82.37,81.5A1,1,0,0,1,80.63,81.5Z"/><path class="cls-9" d="M36.63,81.5,30.57,71a1,1,0,0,1,.87-1.5H43.56a1,1,0,0,1,.87,1.5L38.37,81.5A1,1,0,0,1,36.63,81.5Z"/></g><path class="cls-10" d="M61.14,46V34a2,2,0,0,0-2.68-1.89c-5.35,1.94-9,6.61-11.54,12.2A4,4,0,0,0,50.57,50h6.57A4,4,0,0,0,61.14,46Z"/><path class="cls-5" d="M66.86,46V34a2,2,0,0,1,2.68-1.89c5.35,1.94,9,6.61,11.54,12.2A4,4,0,0,1,77.43,50H70.86A4,4,0,0,1,66.86,46Z"/></svg>