<?xml version="1.0" ?><svg data-name="Layer 1" id="Layer_1" viewBox="0 0 128 128" xmlns="http://www.w3.org/2000/svg"><defs><style>.cls-1{fill:#d8d8dd;}.cls-2{fill:#9fa0ac;}.cls-3{fill:#bc5b57;}.cls-4{fill:#393c54;opacity:0.3;}.cls-5{fill:#f8dc25;}.cls-6{fill:#f2bc0f;}.cls-7{fill:#f1f3f4;}.cls-8{fill:#f85565;}.cls-9{fill:#fff;opacity:0.2;}</style></defs><title/><path class="cls-1" d="M40.16,56.07c-15.74,0-28.49-14.52-28.49-32.42q0-.84,0-1.67a1.42,1.42,0,0,0-2.66-.8A41.07,41.07,0,0,0,4,41.11C4,61.77,18.72,78.52,36.88,78.52S54.11,56.07,40.16,56.07Z"/><path class="cls-2" d="M40.16,56.07a25.78,25.78,0,0,1-14.33-4.4c-1.29,4.93-6.77,7.12-14.44,4.93A8.9,8.9,0,0,1,5.25,51.3C9.15,67,21.83,78.52,36.88,78.52,55,78.52,54.11,56.07,40.16,56.07Z"/><path class="cls-1" d="M87.84,56.07c15.74,0,28.49-14.52,28.49-32.42q0-.84,0-1.67a1.42,1.42,0,0,1,2.66-.8A41.07,41.07,0,0,1,124,41.11c0,20.66-14.72,37.41-32.88,37.41S73.89,56.07,87.84,56.07Z"/><path class="cls-2" d="M82.63,61c-1.46-.8-3.4,2.7-4.6,2-2.23,6.6,1.62,15.54,13.09,15.54,18.16,0,32.88-16.75,32.88-37.41,0-.59,0-1.17-.06-1.76C119.89,58.79,104.55,73,82.63,61Z"/><path class="cls-3" d="M102,75.64A38.45,38.45,0,0,0,59.44,37.5C40.46,39.43,25,57.25,25,76.32V85h77Z"/><path class="cls-4" d="M89,74.77A25.53,25.53,0,0,0,65.34,49.28C50.32,48.21,38,60.32,38,75.38V81H89Z"/><path class="cls-4" d="M102,84V75.64a38.49,38.49,0,0,0-.43-5.64h-76A36.17,36.17,0,0,0,25,76.32V84Z"/><rect class="cls-5" height="15" rx="7.5" ry="7.5" width="90" x="19" y="75"/><polygon class="cls-6" points="72 36.26 64 32.97 56 36.26 56 79 72 79 72 36.26"/><circle class="cls-7" cx="64" cy="45.5" r="3.5"/><circle class="cls-7" cx="64" cy="59.5" r="3.5"/><path class="cls-6" d="M26.09,84,32,90H96l6-6a2.19,2.19,0,0,0,0-3.1L96,75H32l-6,6A2.19,2.19,0,0,0,26.09,84Z"/><path class="cls-5" d="M30.38,84l5.95,6H91.67l6-6a2.19,2.19,0,0,0,0-3.1l-5.95-6H36.33l-6,6A2.19,2.19,0,0,0,30.38,84Z"/><path class="cls-6" d="M47.52,84l5.95,6H74.53l6-6a2.19,2.19,0,0,0,0-3.1l-5.95-6H53.47l-6,6A2.19,2.19,0,0,0,47.52,84Z"/><path class="cls-5" d="M79,82.5,65.55,95.29a2.19,2.19,0,0,1-3.1,0L49,82.5,62.45,68.71a2.19,2.19,0,0,1,3.1,0Z"/><path class="cls-5" d="M72,104.48l-6.46,5.31a2.46,2.46,0,0,1-3.08,0L56,104.48V87H72Z"/><rect class="cls-8" height="13.38" rx="1.35" ry="1.35" transform="translate(-39.87 69.54) rotate(-45)" width="13.38" x="57.31" y="76.21"/><path class="cls-9" d="M67.38,79.52,65,77.1a1.35,1.35,0,0,0-1.91,0l-3.77,3.77,2.42,2.42a1.35,1.35,0,0,0,1.91,0Z"/><path class="cls-4" d="M72.5,81.94,70.76,80.2,63.6,87.35a1.35,1.35,0,0,1-1.91,0l-5.8-5.8-.4.4a1.35,1.35,0,0,0,0,1.91L63,91.4a1.35,1.35,0,0,0,1.91,0l7.55-7.55A1.35,1.35,0,0,0,72.5,81.94Z"/><circle class="cls-7" cx="64" cy="99.5" r="3.5"/></svg>