<?xml version="1.0" ?><svg data-name="Layer 1" id="Layer_1" viewBox="0 0 128 128" xmlns="http://www.w3.org/2000/svg" xmlns:xlink="http://www.w3.org/1999/xlink"><defs><style>.cls-1{fill:none;}.cls-2{fill:#f2bc0f;}.cls-3{fill:#f8dc25;}.cls-4{clip-path:url(#clip-path);}.cls-5{fill:#fff;opacity:0.2;}.cls-6{fill:#f85565;}</style><clipPath id="clip-path"><polygon class="cls-1" points="103.17 68 64 37.33 25.83 68 6.5 68 9.5 92 118.5 92 121.5 68 103.17 68"/></clipPath></defs><title/><polygon class="cls-2" points="104.17 66 64 32.33 24.83 66 6.5 68.17 9.5 87 118.5 87 121.33 68.33 104.17 66"/><polygon class="cls-3" points="103.17 68 64 37.33 25.83 68 6.5 68 9.5 92 118.5 92 121.5 68 103.17 68"/><g class="cls-4"><rect class="cls-5" height="62" width="8.5" x="64.17" y="36.15"/><polygon class="cls-5" points="103.63 97.86 91.79 97.86 91.79 35.86 103.63 27.86 103.63 97.86"/><polygon class="cls-5" points="96.33 98.15 88.84 98.15 88.84 36.15 96.33 28.15 96.33 98.15"/><rect class="cls-5" height="62" width="8.5" x="17.17" y="36.15"/><rect class="cls-5" height="62" width="11.83" x="41.84" y="36.15"/><rect class="cls-5" height="62" width="4" x="34.14" y="38.19"/></g><polygon class="cls-2" points="9.17 89 9.5 92 118.5 92 118.83 89 9.17 89"/><path class="cls-2" d="M64.89,77.59,58,81.24a1.54,1.54,0,0,1-2.24-1.63L57,71.89l-5.61-5.47a1.54,1.54,0,0,1,.86-2.63L60,62.66l3.47-7a1.54,1.54,0,0,1,2.77,0l3.47,7,7.75,1.13a1.54,1.54,0,0,1,.86,2.63l-5.61,5.47,1.32,7.72a1.54,1.54,0,0,1-2.24,1.63Z"/><path class="cls-6" d="M64.11,76.82l-6.93,3.65a1.54,1.54,0,0,1-2.24-1.63l1.32-7.72-5.61-5.47A1.54,1.54,0,0,1,51.51,63l7.75-1.13,3.47-7a1.54,1.54,0,0,1,2.77,0l3.47,7L76.72,63a1.54,1.54,0,0,1,.86,2.63L72,71.11l1.32,7.72A1.54,1.54,0,0,1,71,80.46Z"/></svg>