<?xml version="1.0" ?><svg data-name="Layer 1" id="Layer_1" viewBox="0 0 128 128" xmlns="http://www.w3.org/2000/svg"><defs><style>.cls-1,.cls-5{fill:none;}.cls-1{stroke:#00adfe;stroke-miterlimit:10;stroke-width:6px;}.cls-2{fill:#f8dc25;}.cls-3{fill:#fff;}.cls-4{fill:#515570;}.cls-5{stroke:#f2bc0f;stroke-linecap:round;stroke-linejoin:round;stroke-width:4px;opacity:0.5;}.cls-6{fill:#f2bc0f;opacity:0.7;}.cls-7{fill:#393c54;}.cls-8{fill:#f85565;}</style></defs><title/><path class="cls-1" d="M20.18,17C20.18,11,39.8,6.19,64,6.19S107.82,11,107.82,17"/><circle class="cls-2" cx="64" cy="64" r="58"/><circle class="cls-3" cx="39" cy="68" r="13"/><circle class="cls-4" cx="39" cy="68" r="7"/><path class="cls-2" d="M16.5,81c0-7.18,10.07-10,22.5-10s22.5,2.82,22.5,10"/><circle class="cls-3" cx="89" cy="68" r="13"/><circle class="cls-4" cx="89" cy="68" r="7"/><path class="cls-2" d="M66.5,81c0-7.18,10.07-10,22.5-10s22.5,2.82,22.5,10"/><path class="cls-5" d="M38,47c-5-1-12,2-15,6"/><path class="cls-5" d="M90,46c5-1,12,2,15,6"/><path class="cls-6" d="M53,107A71.65,71.65,0,0,1,16.25,96.91,58,58,0,0,0,121.56,57,72,72,0,0,1,53,107Z"/><path class="cls-1" d="M107.82,17c0,6-19.62,10.81-43.82,10.81S20.18,23,20.18,17"/><path class="cls-7" d="M64,83h0a17,17,0,0,1,17,17v5a4,4,0,0,1-4,4H51a4,4,0,0,1-4-4v-5A17,17,0,0,1,64,83Z" transform="translate(128 192) rotate(180)"/><path class="cls-3" d="M57,90H71a6,6,0,0,0,6-6V82.9H51V84A6,6,0,0,0,57,90Z"/><path class="cls-8" d="M64,99a22.31,22.31,0,0,0-12.87,4.1A16.93,16.93,0,0,0,64,109h0a16.93,16.93,0,0,0,12.85-5.9A22.31,22.31,0,0,0,64,99Z"/></svg>