<?xml version="1.0" ?><svg data-name="Layer 1" id="Layer_1" viewBox="0 0 128 128" xmlns="http://www.w3.org/2000/svg"><defs><style>.cls-1{fill:#f8dc25;}.cls-2,.cls-6,.cls-9{fill:none;stroke-linecap:round;stroke-width:4px;}.cls-2{stroke:#00adfe;}.cls-2,.cls-9{stroke-linejoin:round;}.cls-3{fill:#f2bc0f;opacity:0.7;}.cls-4{fill:#00adfe;}.cls-5{fill:#356cb6;opacity:0.4;}.cls-6{stroke:#393c54;stroke-miterlimit:10;}.cls-7{fill:#393c54;}.cls-8{fill:#f85565;}.cls-9{stroke:#f2bc0f;}</style></defs><title/><circle class="cls-1" cx="64" cy="64" r="58"/><line class="cls-2" x1="85" x2="108" y1="52" y2="52"/><line class="cls-2" x1="20" x2="43" y1="52" y2="52"/><path class="cls-3" d="M53,107A71.65,71.65,0,0,1,16.25,96.91,58,58,0,0,0,121.56,57,72,72,0,0,1,53,107Z"/><path class="cls-4" d="M86,117.67a58.12,58.12,0,0,0,22-15.9V49H86Z"/><path class="cls-5" d="M108,101.77V81.45A72.28,72.28,0,0,1,86,99v18.67A57.74,57.74,0,0,0,95.05,113l.21-.14Q96.63,112,98,111l0,0A58.38,58.38,0,0,0,108,101.77Z"/><path class="cls-6" d="M79,41h0a8,8,0,0,0,8,8h21"/><path class="cls-4" d="M20,101.77a58.12,58.12,0,0,0,22,15.9V49H20Z"/><path class="cls-5" d="M42,106.15A71.51,71.51,0,0,1,20,99v2.78l0,0q1.1,1.28,2.26,2.48l0,0q1.17,1.21,2.41,2.36l0,0q1.24,1.15,2.55,2.22l0,0Q28.64,110,30,111h0a57.83,57.83,0,0,0,12,6.68Z"/><path class="cls-6" d="M49,41h0a8,8,0,0,1-8,8H20"/><path class="cls-7" d="M48.89,72A1.9,1.9,0,0,1,47,69.84a17.12,17.12,0,0,1,34,0A1.9,1.9,0,0,1,79.11,72Z"/><path class="cls-8" d="M75.5,72a12.13,12.13,0,0,0-23,0Z"/><line class="cls-9" x1="58" x2="70" y1="78" y2="78"/></svg>