<?xml version="1.0" ?><svg data-name="Layer 1" id="Layer_1" viewBox="0 0 128 128" xmlns="http://www.w3.org/2000/svg"><defs><style>.cls-1{fill:#f8dc25;}.cls-2{fill:#f2bc0f;opacity:0.7;}.cls-3,.cls-9{fill:#fff;}.cls-10,.cls-4{fill:#515570;}.cls-5,.cls-6{fill:none;stroke:#393c54;stroke-linecap:round;stroke-width:4px;}.cls-5{stroke-miterlimit:10;}.cls-6{stroke-linejoin:round;}.cls-7{fill:#393c54;}.cls-8{fill:#f85565;}.cls-10,.cls-9{opacity:0.2;}</style></defs><title/><circle class="cls-1" cx="64" cy="64" r="58"/><path class="cls-2" d="M53,107A71.65,71.65,0,0,1,16.25,96.91,58,58,0,0,0,121.56,57,72,72,0,0,1,53,107Z"/><circle class="cls-3" cx="88" cy="35" r="13"/><path class="cls-4" d="M99.88,29.73a13,13,0,0,0-6.61-6.61,5.53,5.53,0,1,0,6.61,6.61Z"/><circle class="cls-3" cx="39.5" cy="44.5" r="13" transform="translate(-18.1 29.58) rotate(-33.88)"/><path class="cls-4" d="M27.82,38.83a13,13,0,0,0-1,8.67,5.08,5.08,0,1,0,1-8.67Z"/><path class="cls-5" d="M53,32.5s-6.5-16-26.5-13"/><path class="cls-6" d="M86.5,8S75,12,69,28.5c-.5-7.5,2.5-17,2.5-17"/><path class="cls-7" d="M101.82,69.38c6.14,6.8,6.22,16.76-2.57,19.38-6.15,1.84-14.47,2.32-23.37,3.9-19.53,3.48-34.27,12.76-38.12-5.83a1,1,0,0,1,.71-1.15c14-3.61,10.65-30.51,30.1-34C84.18,48.92,95.51,62.4,101.82,69.38Z"/><path class="cls-8" d="M90,85.3v-.19c-.05-5.14-3.29-9.79-7.41-10.63a24.69,24.69,0,0,0-9.46.16A24.58,24.58,0,0,0,64.23,78c-3.54,2.34-4.8,7.94-2.88,12.74l0,.06C62.16,92.78,64,93,66.06,93a66.52,66.52,0,0,0,20.75-4C88.73,88.31,90,87.42,90,85.3Z"/><path class="cls-9" d="M70.9,75.16c.49.17,3.43,1.37,4.84,5.62a1.74,1.74,0,0,0,1.84,1.35l.25-.08a2,2,0,0,0,.84-2.5,14.49,14.49,0,0,0-3-5.28q-1.25.14-2.53.38C72.37,74.79,71.63,75,70.9,75.16Z"/><path class="cls-3" d="M51.08,98c6.59-.46,15.11-3.47,24.81-5.2C84.31,91.3,92.2,90.63,98.23,89l-.65-3.63a4,4,0,0,0-4.64-3.24l-39.38,7a4,4,0,0,0-3.24,4.64Z"/><path class="cls-3" d="M68.58,51.7C62,52,57.75,57,54.81,62l.1.57A3,3,0,0,0,58.39,65l9-1.61a3,3,0,0,0,2.45-3.29L69,51.65A3.21,3.21,0,0,1,68.58,51.7Z"/><path class="cls-3" d="M69.47,51.57l2,8.2A3,3,0,0,0,74.94,62l10-1.79a3,3,0,0,0,2.43-3.48l-.14-.81C82.19,52.71,76,50,69.47,51.57Z"/><path class="cls-3" d="M69.47,51.57l2,8.2A3,3,0,0,0,74.94,62l10-1.79a3,3,0,0,0,2.43-3.48l-.14-.81C82.19,52.71,76,50,69.47,51.57Z"/><path class="cls-10" d="M69.41,55.74,69,51.65a3.21,3.21,0,0,1-.37.05C62,52,57.75,57,54.81,62l.1.57a3,3,0,0,0,1.68,2.18C59.43,60.37,63.28,56.89,69.41,55.74Z"/><path class="cls-10" d="M86.83,59.07a3,3,0,0,0,.57-2.33l-.14-.81C82.19,52.71,76,50,69.47,51.57l1,4A25.26,25.26,0,0,1,86.83,59.07Z"/><path class="cls-10" d="M50.55,95l.53,3c6.59-.46,15.11-3.47,24.81-5.2C84.31,91.3,92.2,90.63,98.23,89l-.51-2.87c-6,1.51-13.64,2-21.84,3.5C65.92,91.44,57.21,94.71,50.55,95Z"/></svg>