<?xml version="1.0" ?><svg data-name="Layer 1" id="Layer_1" viewBox="0 0 128 128" xmlns="http://www.w3.org/2000/svg"><defs><style>.cls-1{fill:#f8dc25;}.cls-2{fill:#f2bc0f;}.cls-2,.cls-6{opacity:0.7;}.cls-3,.cls-5,.cls-7,.cls-8{fill:none;stroke-linecap:round;}.cls-3,.cls-5{stroke:#393c54;stroke-miterlimit:10;}.cls-3{stroke-width:6px;}.cls-4{fill:#393c54;}.cls-5,.cls-8{stroke-width:4px;}.cls-6{fill:#6b718e;}.cls-6,.cls-7{fill-rule:evenodd;}.cls-7{stroke:#fff;stroke-width:2px;}.cls-7,.cls-8{stroke-linejoin:round;}.cls-8{stroke:#f2bc0f;opacity:0.5;}</style></defs><title/><circle class="cls-1" cx="64" cy="64" r="58"/><path class="cls-2" d="M53,107A71.65,71.65,0,0,1,16.25,96.91,58,58,0,0,0,121.56,57,72,72,0,0,1,53,107Z"/><path class="cls-3" d="M62.5,106.5s16,1.5,22.5-11"/><circle class="cls-4" cx="34" cy="69" r="7"/><path class="cls-5" d="M87,71a7,7,0,0,1,14,0"/><path class="cls-6" d="M30.13,49c9.63-.46,20.87,1.49,23,8,.93,2.88,0,6.23-.56,8.56C51,72.44,48.52,77.07,42.86,80c-9.62,4.9-21.47,2.48-26.09-4.87C14.2,71,11.63,61.49,14.24,55.72,16.48,50.78,22.29,49.41,30.13,49Z"/><path class="cls-7" d="M17.4,64.66a15.69,15.69,0,0,1,.16-6.39"/><path class="cls-7" d="M20.31,55a13.1,13.1,0,0,1,3.35-1.15"/><path class="cls-6" d="M95,49c7.77-.37,15.12,1.19,18,5.26,3.65,5.17,1.35,16.17-1.68,21-4.36,6.9-15.69,10-25.89,5-6-2.9-8.89-8.23-10.44-15.55C72.08,51.3,82.33,49.63,95,49Z"/><path class="cls-7" d="M78.84,63.9c-.68-3.21-.47-5.56.63-7"/><path class="cls-7" d="M83,54.72a24,24,0,0,1,4.08-1"/><path class="cls-4" d="M98.71,45.27a78.91,78.91,0,0,0-20.27,2.41c-4.8,1.27-9.31,3.5-14.45,3.49-.49,0-1,0-1.5-.07-5.37-.47-10.49-3-15.94-4.23a77.71,77.71,0,0,0-16.83-1.7A142.13,142.13,0,0,0,9,46.84a5.21,5.21,0,0,0-4.42,5.54c0,.35.05.7.08,1A5.1,5.1,0,0,0,6.3,56.88c3.45,3,3.13,10.3,4.2,14.8.84,3.54,2.18,7.19,4.87,10,5.57,5.72,19.38,7,28.33,3.29C51.77,81.56,55,75.39,58,66.77c.86-2.47,2-6.29,3.76-7.08,6.39-2.84,7.72,5.87,9,9.39,3.86,10.64,10.27,17.25,23.43,18,12.23.7,19.59-3.94,22.53-12.41,1.67-4.8.93-11.16,3.21-15.49a5.29,5.29,0,0,1,1.43-1.68,5.25,5.25,0,0,0,1.92-3.77c0-.45,0-.91.07-1.38A5.22,5.22,0,0,0,118.89,47,136.55,136.55,0,0,0,98.71,45.27ZM52.55,65.63C51,72.44,48.52,77.07,42.86,80c-9.62,4.9-21.47,2.48-26.09-4.87C14.21,71,11.63,61.49,14.24,55.72c2.24-4.94,8-6.31,15.88-6.68,9.63-.46,20.87,1.49,23,8C54,60,53.09,63.3,52.55,65.63Zm58.7,9.62c-4.36,6.9-15.69,10-25.89,5-6-2.9-8.89-8.23-10.44-15.55C72.08,51.3,82.33,49.63,95,49c7.77-.37,15.12,1.19,18,5.26C116.57,59.46,114.28,70.47,111.25,75.25Z"/><line class="cls-8" x1="83" x2="101" y1="32" y2="37"/><line class="cls-8" x1="27" x2="45" y1="37" y2="32"/></svg>