<?xml version="1.0" ?><svg data-name="Layer 1" id="Layer_1" viewBox="0 0 128 128" xmlns="http://www.w3.org/2000/svg"><defs><style>.cls-1{fill:#ff8475;}.cls-2,.cls-4{fill:#356cb6;}.cls-2{opacity:0.3;}.cls-3{fill:#4bc190;}.cls-4{opacity:0.2;}.cls-5{fill:#fff;}.cls-6{fill:#393c54;}.cls-7{fill:#f85565;}.cls-8,.cls-9{fill:none;stroke-linecap:round;stroke-linejoin:round;}.cls-8{stroke:#f85565;stroke-width:6px;}.cls-9{stroke:#515570;stroke-width:4px;}</style></defs><title/><path class="cls-1" d="M17.93,42.21a11.55,11.55,0,0,1,9.75-13,11.55,11.55,0,0,1,13-9.75,11.62,11.62,0,0,1,16.84-3.8A11.64,11.64,0,0,1,78,23.24c0,6.43-5.21,36.88-11.65,36.88C63.86,60.12,30.08,64,23.65,64a11.64,11.64,0,0,1-5.72-21.79Z"/><path class="cls-2" d="M12,52.35c0-.05,0-.1,0-.15q1.92.15,3.87.15A50.48,50.48,0,0,0,65.4,11.64c.32,0,.63-.05,1-.05A11.65,11.65,0,0,1,78,23.24c0,6.43-5.21,36.88-11.65,36.88C63.86,60.12,30.08,64,23.65,64A11.65,11.65,0,0,1,12,52.35Z"/><path class="cls-3" d="M75.64,7.19a4,4,0,0,0-4.76,3.1A58,58,0,0,1,14,57q-1.86,0-3.69-.12A4,4,0,0,0,6.1,60.66Q6,62.32,6,64A58,58,0,1,0,75.64,7.19Z"/><path class="cls-4" d="M53,107A71.65,71.65,0,0,1,16.25,96.91,58,58,0,0,0,121.56,57,72,72,0,0,1,53,107Z"/><circle class="cls-5" cx="91" cy="70" r="10"/><circle class="cls-6" cx="91" cy="70" r="4"/><circle class="cls-6" cx="37" cy="70" r="10"/><path class="cls-3" d="M48.39,70H24.63a11.88,11.88,0,1,1,23.76,0Z"/><path class="cls-2" d="M48.39,70H24.63a11.88,11.88,0,1,1,23.76,0Z"/><path class="cls-3" d="M103.37,70H79.61a11.88,11.88,0,0,1,23.76,0Z"/><path class="cls-2" d="M103.37,70H79.61a11.88,11.88,0,0,1,23.76,0Z"/><path class="cls-6" d="M75.92,107H52.23a8.21,8.21,0,0,1-8.3-7.5,8,8,0,0,1,8-8.5H75.6a8.21,8.21,0,0,1,8.3,7.5A8,8,0,0,1,75.92,107Z"/><path class="cls-5" d="M51,91h6a0,0,0,0,1,0,0v3a3,3,0,0,1-3,3h0a3,3,0,0,1-3-3V91A0,0,0,0,1,51,91Z"/><path class="cls-7" d="M63.92,96.82c-8.15,0-14.81,4.07-15.52,9.27a8.53,8.53,0,0,0,3.83.91H75.92a8,8,0,0,0,3.54-.83C78.8,100.94,72.11,96.82,63.92,96.82Z"/><path class="cls-4" d="M70.63,85.74,65.19,73.29a1.3,1.3,0,0,0-2.38,0L57.36,85.76a1,1,0,0,0,.92,1.4c2.78,0,8.64,0,11.43,0A1,1,0,0,0,70.63,85.74Z"/><line class="cls-8" x1="73" x2="73" y1="104" y2="112"/><path class="cls-8" d="M83.22,23.19a47.21,47.21,0,0,1,18.35,21.69"/><line class="cls-9" x1="102.96" x2="92.74" y1="36" y2="42.14"/><line class="cls-9" x1="93.88" x2="85.45" y1="24.63" y2="33.06"/></svg>