<?xml version="1.0" ?><svg data-name="Layer 1" id="Layer_1" viewBox="0 0 128 128" xmlns="http://www.w3.org/2000/svg"><defs><style>.cls-1{fill:#f8dc25;}.cls-2{fill:#f2bc0f;}.cls-2,.cls-6{opacity:0.7;}.cls-3,.cls-4{fill:#f85565;}.cls-3{opacity:0.2;}.cls-5,.cls-6{fill:none;stroke:#fff;stroke-linecap:round;}.cls-5{stroke-linejoin:round;stroke-width:2px;}.cls-6{stroke-miterlimit:10;stroke-width:8px;}.cls-7{fill:#393c54;}</style></defs><title/><circle class="cls-1" cx="64" cy="64" r="58"/><path class="cls-2" d="M53,107A71.65,71.65,0,0,1,16.25,96.91,58,58,0,0,0,121.56,57,72,72,0,0,1,53,107Z"/><ellipse class="cls-3" cx="36.63" cy="74.03" rx="10.76" ry="6.03"/><ellipse class="cls-3" cx="91.67" cy="74.03" rx="10.76" ry="6.03"/><path class="cls-4" d="M92.17,49.09a9.42,9.42,0,0,0-13.94.69,9.69,9.69,0,0,0,.91,12.92L90.6,74.17a2.22,2.22,0,0,0,3.14,0L105.21,62.7a9.69,9.69,0,0,0,.91-12.92A9.42,9.42,0,0,0,92.17,49.09Z"/><path class="cls-4" d="M36.12,49.09a9.42,9.42,0,0,0-13.94.69,9.69,9.69,0,0,0,.91,12.92L34.55,74.17a2.22,2.22,0,0,0,3.14,0L49.16,62.7a9.69,9.69,0,0,0,.91-12.92A9.42,9.42,0,0,0,36.12,49.09Z"/><path class="cls-5" d="M42.78,50.91a4.94,4.94,0,0,1,1.08.12"/><path class="cls-5" d="M47,53.43a5.24,5.24,0,0,1-1.11,6"/><path class="cls-5" d="M98.77,50.91a4.94,4.94,0,0,1,1.08.12"/><path class="cls-5" d="M103,53.43a5.24,5.24,0,0,1-1.11,6"/><line class="cls-6" x1="50" x2="50" y1="99" y2="114"/><line class="cls-6" x1="46" x2="46" y1="91" y2="109"/><line class="cls-6" x1="79" x2="79" y1="101" y2="114"/><line class="cls-6" x1="83" x2="83" y1="97" y2="107"/><path class="cls-7" d="M83.2,85.29c4.23-2.12,6.34,1.52,6.34,3.39,0,11.43-9.11,20.09-23.27,20.09a27.71,27.71,0,0,1-27.5-24.32c-.23-1.86,1.93-5.14,5.18-3.39C59.18,89.29,73.08,90.35,83.2,85.29Z"/><path class="cls-4" d="M66.26,108.76c6.8,0,12.42-2,16.45-5.36-3.72-4.51-9.64-5.14-16.45-5.14s-12.7.63-16.42,5.11A27.58,27.58,0,0,0,66.26,108.76Z"/></svg>