<?xml version="1.0" ?><svg data-name="Layer 1" id="Layer_1" viewBox="0 0 128 128" xmlns="http://www.w3.org/2000/svg"><defs><style>.cls-1{fill:#f8dc25;}.cls-2{fill:#f2bc0f;opacity:0.7;}.cls-3{fill:#393c54;}.cls-4{fill:#f85565;}.cls-5{fill:#00adfe;}</style></defs><title/><circle class="cls-1" cx="64" cy="64" r="58"/><path class="cls-2" d="M53,107A71.65,71.65,0,0,1,16.25,96.91,58,58,0,0,0,121.56,57,72,72,0,0,1,53,107Z"/><path class="cls-3" d="M107.22,57.3a17.27,17.27,0,0,0-30.75,0C81.15,55.74,102.55,55.74,107.22,57.3Z"/><path class="cls-3" d="M51.53,57.3a17.27,17.27,0,0,0-30.75,0C25.45,55.74,46.85,55.74,51.53,57.3Z"/><path class="cls-3" d="M90.3,77a3.3,3.3,0,0,1,3.28,3.7,29.76,29.76,0,0,1-59.15,0A3.3,3.3,0,0,1,37.7,77Z"/><path class="cls-4" d="M64,89.1a33.08,33.08,0,0,0-21.91,8.32,29.56,29.56,0,0,0,43.81,0A33.08,33.08,0,0,0,64,89.1Z"/><path class="cls-5" d="M112.52,70a5.52,5.52,0,1,1-11,0c0-3,2.47-11,5.52-11S112.52,67,112.52,70Z"/><path class="cls-5" d="M26.52,70a5.52,5.52,0,0,1-11,0c0-3,2.47-11,5.52-11S26.52,67,26.52,70Z"/></svg>