<?xml version="1.0" ?><svg data-name="Layer 1" id="Layer_1" viewBox="0 0 128 128" xmlns="http://www.w3.org/2000/svg"><defs><style>.cls-1{fill:#f8dc25;}.cls-2{fill:#fff;}.cls-3{fill:#515570;}.cls-4,.cls-9{fill:none;stroke-linecap:round;stroke-width:4px;}.cls-4{stroke:#f2bc0f;stroke-linejoin:round;opacity:0.5;}.cls-5{fill:#f2bc0f;opacity:0.7;}.cls-6{fill:#393c54;}.cls-7,.cls-8{fill:#f85565;}.cls-7{opacity:0.2;}.cls-9{stroke:#393c54;stroke-miterlimit:10;opacity:0.3;}</style></defs><title/><path class="cls-1" d="M122,64a58,58,0,1,0-80.7,53.39A10,10,0,0,0,51,125H77a10,10,0,0,0,9.7-7.61A58,58,0,0,0,122,64Z"/><circle class="cls-2" cx="39" cy="63" r="9"/><circle class="cls-3" cx="39" cy="63" r="4.85"/><circle class="cls-2" cx="89" cy="61" r="13"/><path class="cls-4" d="M87.51,78a17,17,0,0,1-12-5"/><path class="cls-4" d="M40.49,78a17,17,0,0,0,12-5"/><circle class="cls-3" cx="89" cy="61" r="7"/><path class="cls-5" d="M121.89,60.57c0-.41-.06-.82-.09-1.23-.07-.78-.14-1.56-.23-2.34A72,72,0,0,1,53,107,71.65,71.65,0,0,1,16.25,96.91l.09.13a58.21,58.21,0,0,0,25,20.34A10,10,0,0,0,51,125H77a10,10,0,0,0,9.7-7.61,58,58,0,0,0,35.25-51v-.27c0-.69,0-1.39,0-2.09s0-1.64-.06-2.45C121.92,61.22,121.91,60.9,121.89,60.57Z"/><path class="cls-6" d="M64,78h0A17,17,0,0,1,81,95v20a4,4,0,0,1-4,4H51a4,4,0,0,1-4-4V95A17,17,0,0,1,64,78Z"/><path class="cls-7" d="M52,116v-5.12A12.21,12.21,0,0,1,62.93,98.59,12,12,0,0,1,76,110.52V116Z"/><path class="cls-8" d="M64,108.21a15.82,15.82,0,0,0-14.83,10.33A4,4,0,0,0,51,119H77a4,4,0,0,0,1.83-.46A15.82,15.82,0,0,0,64,108.21Z"/><line class="cls-9" x1="81" x2="101" y1="36" y2="43"/><line class="cls-9" x1="27" x2="45" y1="49" y2="45"/></svg>