<?xml version="1.0" ?><!DOCTYPE svg  PUBLIC '-//W3C//DTD SVG 1.1//EN'  'http://www.w3.org/Graphics/SVG/1.1/DTD/svg11.dtd'><svg height="32px" id="Dead" style="enable-background:new 0 0 32 32;" version="1.1" viewBox="0 0 32 32" width="32px" xml:space="preserve" xmlns="http://www.w3.org/2000/svg" xmlns:xlink="http://www.w3.org/1999/xlink"><linearGradient gradientUnits="userSpaceOnUse" id="SVGID_1_" x1="24.001" x2="7.9985" y1="2.1416" y2="29.8586"><stop offset="0" style="stop-color:#FFE254"/><stop offset="1" style="stop-color:#FFB255"/></linearGradient><circle cx="16" cy="16" r="16" style="fill:url(#SVGID_1_);"/><path d="M23,23c0,1.104-0.896,2-2,2H11c-1.104,0-2-0.896-2-2l0,0c0-1.104,0.896-2,2-2h10  C22.104,21,23,21.896,23,23L23,23z" style="fill:#F52C5B;"/><path d="M21,21H11c-1.104,0-2,0.896-2,2s0.896,2,2,2h0.307c0.688-0.581,2.52-1,4.693-1s4.005,0.419,4.693,1  H21c1.104,0,2-0.896,2-2S22.104,21,21,21z" style="fill:#212731;"/><path d="M26.529,12.76l-2.537-1.093C23.993,11.651,24,11.636,24,11.62v-0.24c0-0.016-0.007-0.031-0.008-0.047  l2.537-1.093c0.271-0.08,0.421-0.36,0.341-0.62c-0.08-0.271-0.36-0.41-0.63-0.33l-3.269,1.296l-3.29-1.296  c-0.261-0.08-0.56,0.06-0.64,0.33c-0.08,0.26,0.062,0.54,0.322,0.62l2.638,1.123c0,0.006-0.002,0.011-0.002,0.017v0.24  c0,0.006,0.002,0.011,0.002,0.017l-2.633,1.123c-0.271,0.08-0.414,0.36-0.334,0.62c0.08,0.271,0.374,0.41,0.644,0.33l3.291-1.296  l3.24,1.296c0.261,0.08,0.56-0.06,0.64-0.33C26.93,13.12,26.79,12.84,26.529,12.76z" style="fill:#212731;"/><path d="M12.529,12.76l-2.537-1.093C9.993,11.651,10,11.636,10,11.62v-0.24c0-0.016-0.007-0.031-0.008-0.047  l2.537-1.093c0.271-0.08,0.421-0.36,0.341-0.62c-0.08-0.271-0.36-0.41-0.63-0.33l-3.269,1.296L5.682,9.29  c-0.261-0.08-0.56,0.06-0.64,0.33c-0.08,0.26,0.062,0.54,0.322,0.62l2.638,1.123C8.002,11.369,8,11.374,8,11.38v0.24  c0,0.006,0.002,0.011,0.002,0.017L5.369,12.76c-0.271,0.08-0.414,0.36-0.334,0.62c0.08,0.271,0.374,0.41,0.644,0.33l3.291-1.296  l3.24,1.296c0.261,0.08,0.56-0.06,0.64-0.33C12.93,13.12,12.79,12.84,12.529,12.76z" style="fill:#212731;"/></svg>