<?xml version="1.0" ?><!DOCTYPE svg  PUBLIC '-//W3C//DTD SVG 1.1//EN'  'http://www.w3.org/Graphics/SVG/1.1/DTD/svg11.dtd'><svg height="32px" id="Happy" style="enable-background:new 0 0 32 32;" version="1.1" viewBox="0 0 32 32" width="32px" xml:space="preserve" xmlns="http://www.w3.org/2000/svg" xmlns:xlink="http://www.w3.org/1999/xlink"><linearGradient gradientTransform="matrix(1 0 0 -1 -290 -347)" gradientUnits="userSpaceOnUse" id="SVGID_1_" x1="314.001" x2="297.998" y1="-349.1416" y2="-376.8595"><stop offset="0" style="stop-color:#FFE254"/><stop offset="1" style="stop-color:#FFB255"/></linearGradient><circle cx="16" cy="16" r="16" style="fill:url(#SVGID_1_);"/><path d="M16,27c6.075,0,11-4.925,11-11H5C5,22.075,9.925,27,16,27z" style="fill:#F52C5B;"/><path d="M16,19c3.416,0,6.468,1.557,8.484,4C26.057,21.098,27,18.659,27,16H5c0,2.659,0.944,5.098,2.515,7  C9.532,20.557,12.584,19,16,19z" style="fill:#212731;"/><path d="M26.85,13.38c-0.08,0.271-0.379,0.41-0.64,0.33l-4.81-1.47c-0.271-0.08-0.4-0.36-0.4-0.62v-0.24  c0-0.26,0.13-0.54,0.4-0.62l4.84-1.47c0.27-0.08,0.55,0.06,0.63,0.33c0.08,0.26-0.07,0.54-0.341,0.62L22.45,11.5l4.079,1.26  C26.79,12.84,26.93,13.12,26.85,13.38z" style="fill:#212731;"/><path d="M5.042,9.62c0.08-0.271,0.38-0.41,0.64-0.33l4.864,1.47C10.816,10.84,11,11.12,11,11.38v0.24  c0,0.26-0.184,0.54-0.454,0.62l-4.867,1.47c-0.27,0.08-0.563-0.06-0.644-0.33c-0.08-0.26,0.063-0.54,0.333-0.62l4.076-1.26  l-4.082-1.26C5.103,10.16,4.961,9.88,5.042,9.62z" style="fill:#212731;"/></svg>