<?xml version="1.0" ?><svg data-name="Layer 1" id="Layer_1" viewBox="0 0 128 128" xmlns="http://www.w3.org/2000/svg"><defs><style>.cls-1{fill:#4bc190;}.cls-2,.cls-7{fill:#356cb6;}.cls-2,.cls-3{opacity:0.2;}.cls-3,.cls-5{fill:none;stroke-linecap:round;stroke-linejoin:round;stroke-width:4px;}.cls-3{stroke:#356cb6;}.cls-4{fill:#393c54;}.cls-5{stroke:#393c54;}.cls-6{fill:#fff;}.cls-7,.cls-9{opacity:0.3;}.cls-8{fill:#f85565;}.cls-9{fill:#515570;}</style></defs><title/><circle class="cls-1" cx="64" cy="64" r="58"/><path class="cls-2" d="M53,107A71.65,71.65,0,0,1,16.25,96.91,58,58,0,0,0,121.56,57,72,72,0,0,1,53,107Z"/><path class="cls-3" d="M34.76,80.07c.21-4.26,3.42-7.85,8-8.93"/><path class="cls-3" d="M85.22,71.14c4.6,1.08,7.82,4.68,8,9"/><path class="cls-4" d="M78.58,108.39a116.47,116.47,0,0,1-29.25,0,6.29,6.29,0,0,1-5.55-4.32,82.06,82.06,0,0,1-2-23.8c.12-2.42,2.08-4.56,4.92-5.23A74.67,74.67,0,0,1,81.3,75c2.85.67,4.82,2.82,4.93,5.25A87.55,87.55,0,0,1,84.14,104C83.61,106.28,81.37,108,78.58,108.39Z"/><line class="cls-5" x1="64" x2="64" y1="17.14" y2="28.75"/><line class="cls-5" x1="74.72" x2="70.43" y1="19.29" y2="30.9"/><line class="cls-5" x1="83.29" x2="76.86" y1="25.72" y2="33.04"/><line class="cls-5" x1="53.28" x2="57.57" y1="19.29" y2="30.9"/><line class="cls-5" x1="44.71" x2="51.14" y1="25.72" y2="33.04"/><circle class="cls-6" cx="64" cy="45.55" r="19.29"/><circle class="cls-4" cx="64" cy="45.55" r="9.11"/><path class="cls-1" d="M83.29,45.55a19.29,19.29,0,0,0-38.59,0A45.51,45.51,0,0,1,83.29,45.55Z"/><path class="cls-7" d="M83.29,45.55a19.29,19.29,0,0,0-38.59,0A45.51,45.51,0,0,1,83.29,45.55Z"/><path class="cls-8" d="M84.14,104c.58-2.51,1-5.08,1.36-7.68-4.07-5-12.17-7.22-21.52-7.22s-17.58,2.23-21.62,7.35a69.67,69.67,0,0,0,1.42,7.6,6.29,6.29,0,0,0,5.55,4.32,116.47,116.47,0,0,0,29.25,0C81.37,108,83.61,106.28,84.14,104Z"/><path class="cls-9" d="M64,89.11c-.6,0-1.18,0-1.77.05v8.44a1.84,1.84,0,0,0,3.6,0V89.16C65.19,89.14,64.59,89.11,64,89.11Z"/><path class="cls-6" d="M77.65,103.82a119,119,0,0,1-27.3,0,2.11,2.11,0,0,0-2.55,1.79V108a7.82,7.82,0,0,0,1.52.36,116.47,116.47,0,0,0,29.25,0A7.79,7.79,0,0,0,80.2,108v-2.38A2.11,2.11,0,0,0,77.65,103.82Z"/><path class="cls-6" d="M81.3,75a74.67,74.67,0,0,0-34.62,0c-.23.06-.45.13-.67.21v1.4c0,1.75,1.84,3.09,4,2.93a188.55,188.55,0,0,1,28.06,0c2.12.16,4-1.18,4-2.93v-1.4C81.77,75.17,81.54,75.09,81.3,75Z"/></svg>