<?xml version="1.0" ?><svg data-name="Layer 1" id="Layer_1" viewBox="0 0 128 128" xmlns="http://www.w3.org/2000/svg"><defs><style>.cls-1{fill:#f8dc25;}.cls-2{fill:#f2bc0f;}.cls-2,.cls-5{opacity:0.7;}.cls-3,.cls-4{fill:none;stroke-linecap:round;stroke-width:4px;}.cls-3{stroke:#393c54;stroke-miterlimit:10;}.cls-4{stroke:#f2bc0f;stroke-linejoin:round;opacity:0.5;}.cls-5{fill:#f85565;}</style></defs><title/><circle class="cls-1" cx="64" cy="64" r="58"/><path class="cls-2" d="M53,107A71.65,71.65,0,0,1,16.25,96.91,58,58,0,0,0,121.56,57,72,72,0,0,1,53,107Z"/><path class="cls-3" d="M24.94,69.47a9.94,9.94,0,1,1,19.88,0"/><path class="cls-3" d="M83.18,69.47a9.94,9.94,0,1,1,19.88,0"/><line class="cls-4" x1="83" x2="99" y1="44" y2="48"/><line class="cls-4" x1="29" x2="45" y1="48" y2="44"/><ellipse class="cls-5" cx="28.63" cy="82.03" rx="12" ry="6.73"/><ellipse class="cls-5" cx="99.67" cy="82.03" rx="12" ry="6.73"/><path class="cls-3" d="M83,91.22a38,38,0,0,1-38,0"/><path class="cls-3" d="M82.5,89a9.79,9.79,0,0,0,5,5"/><path class="cls-3" d="M45.5,89a9.79,9.79,0,0,1-5,5"/></svg>