<?xml version="1.0" ?><svg data-name="Layer 1" id="Layer_1" viewBox="0 0 128 128" xmlns="http://www.w3.org/2000/svg"><defs><style>.cls-1{fill:#f8dc25;}.cls-2{fill:#f2bc0f;opacity:0.7;}.cls-3,.cls-6,.cls-9{fill:none;stroke:#f2bc0f;stroke-linecap:round;stroke-width:4px;}.cls-3,.cls-9{stroke-linejoin:round;}.cls-3{opacity:0.4;}.cls-4{fill:#fff;}.cls-5{fill:#515570;}.cls-6{stroke-miterlimit:10;}.cls-7{fill:#393c54;}.cls-8{fill:#f85565;}</style></defs><title/><circle class="cls-1" cx="64" cy="64" r="58"/><path class="cls-2" d="M53,107A71.65,71.65,0,0,1,16.25,96.91,58,58,0,0,0,121.56,57,72,72,0,0,1,53,107Z"/><path class="cls-3" d="M50.68,62.29A15.6,15.6,0,0,1,26.87,79"/><path class="cls-3" d="M77.35,62.17A15.6,15.6,0,0,0,101.13,79"/><path class="cls-4" d="M52,63a13,13,0,0,1-26,0"/><path class="cls-5" d="M43,63a7,7,0,0,1-14,0"/><path class="cls-4" d="M102,63a13,13,0,0,1-26,0"/><path class="cls-5" d="M93,63a7,7,0,0,1-14,0"/><line class="cls-6" x1="24" x2="54" y1="62" y2="62"/><line class="cls-6" x1="74" x2="104" y1="62" y2="62"/><path class="cls-7" d="M48.89,108A1.9,1.9,0,0,1,47,105.84a17.12,17.12,0,0,1,34,0A1.9,1.9,0,0,1,79.11,108Z"/><path class="cls-8" d="M75.5,108a12.13,12.13,0,0,0-23,0Z"/><line class="cls-9" x1="58" x2="70" y1="114" y2="114"/></svg>