<?xml version="1.0" ?><svg data-name="Layer 1" id="Layer_1" viewBox="0 0 128 128" xmlns="http://www.w3.org/2000/svg"><defs><style>.cls-1{fill:#f8dc25;}.cls-2{fill:#f2bc0f;opacity:0.7;}.cls-3{fill:#fff;}.cls-4{fill:#515570;}.cls-5,.cls-6,.cls-7{fill:none;stroke-linecap:round;stroke-miterlimit:10;}.cls-5,.cls-7{stroke:#393c54;}.cls-5{stroke-width:6px;}.cls-6{stroke:#f2bc0f;}.cls-6,.cls-7{stroke-width:4px;}</style></defs><title/><circle class="cls-1" cx="64" cy="64" r="58"/><path class="cls-2" d="M53,107A71.65,71.65,0,0,1,16.25,96.91,58,58,0,0,0,121.56,57,72,72,0,0,1,53,107Z"/><circle class="cls-3" cx="94.6" cy="30.6" r="13" transform="translate(57.28 122.76) rotate(-85.88)"/><circle class="cls-4" cx="99.59" cy="30.96" r="7" transform="translate(61.55 128.07) rotate(-85.88)"/><path class="cls-1" d="M81.63,29.67a13,13,0,1,1,25.93,1.87"/><path class="cls-2" d="M81.63,29.67a13,13,0,1,1,25.93,1.87"/><circle class="cls-3" cx="49.72" cy="27.37" r="13" transform="translate(18.84 74.99) rotate(-85.88)"/><circle class="cls-4" cx="54.7" cy="27.73" r="7" transform="translate(23.11 80.3) rotate(-85.88)"/><path class="cls-1" d="M36.75,26.44a13,13,0,0,1,25.93,1.87"/><path class="cls-2" d="M36.75,26.44a13,13,0,0,1,25.93,1.87"/><path class="cls-5" d="M46.28,60.67s32.88-18.78,55.63,6.94"/><line class="cls-5" x1="41.82" x2="46.8" y1="57.74" y2="64.44"/><path class="cls-6" d="M68.16,63.43c6.67-2.32,15.89.06,18.22,2.6"/><polyline class="cls-7" points="46.7 6.6 64.93 17.94 70.21 14.31"/><line class="cls-7" x1="82.24" x2="99.35" y1="21.19" y2="13.4"/></svg>