<?xml version="1.0" ?><svg data-name="Layer 1" id="Layer_1" viewBox="0 0 128 128" xmlns="http://www.w3.org/2000/svg"><defs><style>.cls-1{fill:#f8dc25;}.cls-2{fill:#f2bc0f;opacity:0.7;}.cls-3{fill:#fff;}.cls-11,.cls-4,.cls-5,.cls-7,.cls-8{fill:none;stroke-linecap:round;stroke-linejoin:round;}.cls-4{stroke:#f2bc0f;}.cls-11,.cls-4,.cls-8{stroke-width:4px;}.cls-10,.cls-4{opacity:0.4;}.cls-11,.cls-5{stroke:#00adfe;}.cls-5{stroke-width:6px;}.cls-6{fill:#393c54;}.cls-7{stroke:#fff;stroke-width:2px;}.cls-8{stroke:#393c54;}.cls-9{fill:#00adfe;}.cls-10{fill:#356cb6;}.cls-12{fill:#515570;opacity:0.2;}</style></defs><title/><circle class="cls-1" cx="64" cy="64" r="58"/><path class="cls-2" d="M53,107A71.65,71.65,0,0,1,16.25,96.91,58,58,0,0,0,121.56,57,72,72,0,0,1,53,107Z"/><circle class="cls-3" cx="37" cy="45" r="19"/><path class="cls-4" d="M60.25,45a23.21,23.21,0,0,1-1.37,7.87"/><path class="cls-4" d="M52.78,27.93A23.27,23.27,0,0,1,59,37.42"/><path class="cls-4" d="M55.11,59.59A23.21,23.21,0,0,1,37,68.25"/><path class="cls-5" d="M42.52,63.19A19,19,0,0,1,37,64c-4.87,0-13.64-2-17-5"/><circle class="cls-6" cx="34.5" cy="44.5" r="7.5"/><path class="cls-7" d="M31.52,40.39a5,5,0,0,1,.48-.32"/><path class="cls-7" d="M29.8,46.26a5.25,5.25,0,0,1-.2-2.79"/><circle class="cls-3" cx="91" cy="45" r="19"/><path class="cls-4" d="M101.11,66.22A23.52,23.52,0,0,1,69.74,55"/><path class="cls-4" d="M67.5,45a23.44,23.44,0,0,1,1.62-8.6"/><circle class="cls-6" cx="88.5" cy="44.5" r="7.5"/><path class="cls-8" d="M15.5,29.08l22.27-2.32A25.61,25.61,0,0,0,55,17.42h0"/><path class="cls-8" d="M112.47,30.64l-22-4.1A25.61,25.61,0,0,1,74,15.86h0"/><path class="cls-7" d="M85.52,40.39a5,5,0,0,1,.48-.32"/><path class="cls-7" d="M83.8,46.26a5.25,5.25,0,0,1-.2-2.79"/><path class="cls-9" d="M21,102.92a58.35,58.35,0,0,0,6,5.74V62l-6-3Z"/><path class="cls-10" d="M27,108.66v-6.51q-3.07-1.19-6-2.66v3.43A58.35,58.35,0,0,0,27,108.66Z"/><path class="cls-9" d="M39,116.35a57.65,57.65,0,0,0,6,2.45V62H39Z"/><path class="cls-10" d="M45,106.55q-3-.34-6-.92v10.72a57.65,57.65,0,0,0,6,2.45Z"/><line class="cls-11" x1="33" x2="33" y1="71.75" y2="63.13"/><path class="cls-5" d="M83.48,63.19A19,19,0,0,0,89,64c4.87,0,13-1,18-9"/><path class="cls-9" d="M97,111.69a58.29,58.29,0,0,0,8-6.66V59l-8,3Z"/><path class="cls-10" d="M97,92v19.72a58.29,58.29,0,0,0,8-6.66V84.77A72.4,72.4,0,0,1,97,92Z"/><path class="cls-9" d="M81,119.46a57.55,57.55,0,0,0,6-2.21V62H81Z"/><path class="cls-10" d="M87,98.47c-1.95,1-3.95,2-6,2.88v18.12a57.55,57.55,0,0,0,6-2.21Z"/><line class="cls-11" x1="37" x2="37" y1="67.75" y2="63.13"/><line class="cls-11" x1="29" x2="29" y1="67.75" y2="63.13"/><circle class="cls-9" cx="82" cy="61" r="4.5"/><circle class="cls-9" cx="96.25" cy="65.75" r="3.75" transform="translate(-5.8 9.42) rotate(-5.44)"/><path class="cls-4" d="M52.5,77.25s2.25-4,9.25-4S74,79.5,74,79.5"/><circle class="cls-9" cx="100.5" cy="60.5" r="4.5"/><path class="cls-6" d="M77,67s-5.82,6-13,6-13-6-13-6a25.55,25.55,0,0,1,13-4A25.55,25.55,0,0,1,77,67Z"/><path class="cls-3" d="M71,64.18a22.56,22.56,0,0,0-7-1.28,22.56,22.56,0,0,0-7,1.28h0A2.82,2.82,0,0,0,59.82,67h8.36A2.82,2.82,0,0,0,71,64.18Z"/><path class="cls-12" d="M57,64.18a2.79,2.79,0,0,0,.67,1.8,20.94,20.94,0,0,1,12.67,0,2.79,2.79,0,0,0,.67-1.8,22.56,22.56,0,0,0-7-1.28A22.56,22.56,0,0,0,57,64.18Z"/></svg>