<?xml version="1.0" ?><svg data-name="Layer 1" id="Layer_1" viewBox="0 0 128 128" xmlns="http://www.w3.org/2000/svg"><defs><style>.cls-1{fill:#00adfe;}.cls-2{fill:#356cb6;}.cls-2,.cls-5{opacity:0.4;}.cls-3{fill:#393c54;}.cls-4,.cls-5{fill:none;stroke-linecap:round;stroke-width:4px;}.cls-4{stroke:#393c54;stroke-miterlimit:10;}.cls-5{stroke:#356cb6;stroke-linejoin:round;}.cls-6{fill:#f85565;}</style></defs><title/><circle class="cls-1" cx="64" cy="64" r="58"/><path class="cls-2" d="M53,107A71.65,71.65,0,0,1,16.25,96.91,58,58,0,0,0,121.56,57,72,72,0,0,1,53,107Z"/><path class="cls-3" d="M48.89,103A1.9,1.9,0,0,1,47,100.84a17.12,17.12,0,0,1,34,0A1.9,1.9,0,0,1,79.11,103Z"/><line class="cls-4" x1="29.65" x2="40.02" y1="78.19" y2="67.81"/><line class="cls-4" x1="29.65" x2="40.02" y1="67.81" y2="78.19"/><line class="cls-4" x1="87.98" x2="98.35" y1="78.19" y2="67.81"/><line class="cls-4" x1="87.98" x2="98.35" y1="67.81" y2="78.19"/><line class="cls-5" x1="24" x2="49" y1="58" y2="58"/><line class="cls-5" x1="79" x2="104" y1="58" y2="58"/><path class="cls-6" d="M64,122h0a12,12,0,0,1-12-12v-6.87a2.75,2.75,0,0,1,2.15-2.67,43.76,43.76,0,0,1,19.71,0A2.75,2.75,0,0,1,76,103.13V110A12,12,0,0,1,64,122Z"/></svg>