<?xml version="1.0" ?><svg data-name="Layer 1" id="Layer_1" viewBox="0 0 128 128" xmlns="http://www.w3.org/2000/svg"><defs><style>.cls-1,.cls-4{fill:#f85565;}.cls-2,.cls-3{fill:#393c54;}.cls-2,.cls-4{opacity:0.2;}.cls-5{fill:#fff;}.cls-6,.cls-7{fill:#515570;}.cls-6{opacity:0.1;}.cls-8{fill:none;stroke:#393c54;stroke-linecap:round;stroke-miterlimit:10;stroke-width:4px;}</style></defs><title/><circle class="cls-1" cx="64" cy="64" r="58"/><path class="cls-2" d="M53,107A71.65,71.65,0,0,1,16.25,96.91,58,58,0,0,0,121.56,57,72,72,0,0,1,53,107Z"/><path class="cls-1" d="M96.93,22.57c3-1.44,12.44-6.45,17.85-14.56a1,1,0,0,1,1.86.28c3.81,13.75-3.37,25.42-5.22,28.12a1,1,0,0,1-1.13.38c-2.17-.72-8.85-3.62-13.81-12.85A1,1,0,0,1,96.93,22.57Z"/><path class="cls-1" d="M31.81,22.57C28.82,21.13,19.37,16.12,14,8a1,1,0,0,0-1.86.28C8.29,22,15.47,33.71,17.32,36.41a1,1,0,0,0,1.13.38c2.17-.72,8.85-3.62,13.81-12.85A1,1,0,0,0,31.81,22.57Z"/><path class="cls-2" d="M101.09,30.47a22.85,22.85,0,0,0,9.2,6.32,1,1,0,0,0,1.13-.38c1.62-2.36,7.33-11.6,6.17-23.09-.83,4.91-2.71,10.39-6.84,14.18C107.7,30.3,103.78,30.65,101.09,30.47Z"/><path class="cls-2" d="M31.81,22.57c-.6-.29-1.48-.73-2.52-1.31A11,11,0,0,1,22,28a12.25,12.25,0,0,1-9.06-.42,38,38,0,0,0,4.38,8.83,1,1,0,0,0,1.13.38c2.17-.72,8.85-3.62,13.81-12.85A1,1,0,0,0,31.81,22.57Z"/><rect class="cls-3" height="29" rx="6" ry="6" width="44" x="42" y="81"/><path class="cls-4" d="M52,109v-5.12A12.21,12.21,0,0,1,62.93,91.59,12,12,0,0,1,76,103.52V109Z"/><path class="cls-5" d="M80,81H77.72l-.12.12L77.47,81H68.65l-.12.12L68.41,81H59.59l-.12.12L59.35,81H50.53l-.12.12L50.28,81H48a6,6,0,0,0-5.85,4.68l2.44,2.44a1.81,1.81,0,0,0,2.56,0l3.25-3.25,3.25,3.25a1.81,1.81,0,0,0,2.56,0l3.25-3.25,3.25,3.25a1.81,1.81,0,0,0,2.56,0l3.25-3.25,3.25,3.25a1.81,1.81,0,0,0,2.56,0l3.25-3.25,3.25,3.25a1.81,1.81,0,0,0,2.56,0l2.44-2.44A6,6,0,0,0,80,81Z"/><path class="cls-5" d="M85.85,105.32l-2.44-2.44a1.81,1.81,0,0,0-2.56,0l-3.25,3.25-3.25-3.25a1.81,1.81,0,0,0-2.56,0l-3.25,3.25-3.25-3.25a1.81,1.81,0,0,0-2.56,0l-3.25,3.25-3.25-3.25a1.81,1.81,0,0,0-2.56,0l-3.25,3.25-3.25-3.25a1.81,1.81,0,0,0-2.56,0l-2.44,2.44A6,6,0,0,0,48,110h2.28l.12-.12.12.12h8.82l.12-.12.12.12h8.82l.12-.12.12.12h8.82l.12-.12.12.12H80A6,6,0,0,0,85.85,105.32Z"/><path class="cls-6" d="M48,84H80a6,6,0,0,1,4.94,2.6l.91-.91A6,6,0,0,0,80,81H77.72l-.12.12L77.47,81H68.65l-.12.12L68.41,81H59.59l-.12.12L59.35,81H50.53l-.12.12L50.28,81H48a6,6,0,0,0-5.85,4.68l.91.91A6,6,0,0,1,48,84Z"/><path class="cls-5" d="M103.11,54.75A13,13,0,1,1,79,64.41"/><path class="cls-7" d="M97.54,57a7,7,0,0,1-13,5.2"/><line class="cls-8" x1="78.04" x2="104.96" y1="64.78" y2="54.01"/><path class="cls-5" d="M24.89,54.75A13,13,0,0,0,49,64.41"/><path class="cls-7" d="M30.46,57a7,7,0,0,0,13,5.2"/><line class="cls-8" x1="49.96" x2="23.04" y1="64.78" y2="54.01"/></svg>