<?xml version="1.0" ?><svg data-name="Layer 1" id="Layer_1" viewBox="0 0 128 128" xmlns="http://www.w3.org/2000/svg"><defs><style>.cls-1{fill:#f8dc25;}.cls-2{fill:#f2bc0f;opacity:0.7;}.cls-3{fill:#393c54;}.cls-4{fill:#fff;}.cls-5{fill:#f85565;}.cls-6,.cls-8{fill:none;stroke:#f2bc0f;stroke-linecap:round;stroke-linejoin:round;stroke-width:4px;}.cls-6{opacity:0.4;}.cls-7{fill:#515570;}.cls-8{opacity:0.5;}</style></defs><title/><circle class="cls-1" cx="64" cy="64" r="58"/><path class="cls-2" d="M53,107A71.65,71.65,0,0,1,16.25,96.91,58,58,0,0,0,121.56,57,72,72,0,0,1,53,107Z"/><path class="cls-3" d="M80.29,107H55.9a11,11,0,1,1-.19-22H80a11.19,11.19,0,0,1,11,8.33A11,11,0,0,1,80.29,107Z"/><path class="cls-4" d="M81,85c-.3,0-.6-.14-.9-.14H55.71a11.05,11.05,0,0,0-1.71.25V86a6,6,0,0,0,6,6H75a6,6,0,0,0,6-6Z"/><path class="cls-5" d="M62.28,107h18.5a10.5,10.5,0,0,0,10.5-10.5,10.39,10.39,0,0,0-.15-1.5H80.28A19.5,19.5,0,0,0,62.28,107Z"/><path class="cls-6" d="M49.68,61.29A15.6,15.6,0,0,1,25.87,78"/><path class="cls-6" d="M78.35,61.17A15.6,15.6,0,0,0,102.13,78"/><circle class="cls-4" cx="39" cy="63" r="13"/><circle class="cls-7" cx="39" cy="63" r="7"/><circle class="cls-4" cx="89" cy="63" r="13"/><circle class="cls-7" cx="89" cy="63" r="7"/><path class="cls-8" d="M38,36.25A24.35,24.35,0,0,0,23,47"/><path class="cls-8" d="M90,42c5-1,12,2,15,6"/><path class="cls-1" d="M101.64,60a13,13,0,0,0-25.28,0Z"/><path class="cls-1" d="M76.36,66a13,13,0,0,0,25.28,0Z"/><path class="cls-2" d="M101.64,60a13,13,0,0,0-25.28,0Z"/><path class="cls-2" d="M76.36,66a13,13,0,0,0,25.28,0Z"/></svg>