<?xml version="1.0" ?><svg data-name="Layer 1" id="Layer_1" viewBox="0 0 128 128" xmlns="http://www.w3.org/2000/svg"><defs><style>.cls-1{fill:#f8dc25;}.cls-2{fill:#f2bc0f;opacity:0.7;}.cls-3{fill:#393c54;}.cls-4{fill:#f85565;}.cls-5{fill:#ff8475;}.cls-10,.cls-6{fill:#fff;}.cls-7{fill:none;stroke:#f2bc0f;stroke-linecap:round;stroke-linejoin:round;stroke-width:4px;opacity:0.4;}.cls-8{opacity:0.3;}.cls-9{fill:#515570;}.cls-10{opacity:0.2;}</style></defs><title/><path class="cls-1" d="M122.68,71a9.08,9.08,0,0,0-1-1,58.65,58.65,0,0,0,.31-6,58,58,0,1,0-58,58H76a49.77,49.77,0,0,0,48.93-43.71A9.29,9.29,0,0,0,122.68,71Z"/><path class="cls-2" d="M121.69,70a57.37,57.37,0,0,0-.12-13h0A72,72,0,0,1,53,107,71.65,71.65,0,0,1,16.25,96.91c.4.59.81,1.17,1.24,1.74l.05.07A57.91,57.91,0,0,0,64,122H76a49.77,49.77,0,0,0,48.93-43.71A9.29,9.29,0,0,0,122.68,71,9.08,9.08,0,0,0,121.69,70Z"/><path class="cls-3" d="M115.85,72a5,5,0,0,1,5.07,5.7,45.41,45.41,0,0,1-90.26-.09,5,5,0,0,1,5-5.61Z"/><path class="cls-4" d="M89.71,107.45l0-.18a10.11,10.11,0,0,0-6.69-11.83,38.86,38.86,0,0,0-11.81-1.62,38.68,38.68,0,0,0-11.89,1.65,10.1,10.1,0,0,0-6.62,12l0,.07a5.76,5.76,0,0,0,5.08,4,106.64,106.64,0,0,0,26.78,0A5.73,5.73,0,0,0,89.71,107.45Z"/><path class="cls-5" d="M30.66,77.61c.14,1.15.33,2.27.55,3.39H92a9,9,0,0,0,9-9H35.64A5,5,0,0,0,30.66,77.61Z"/><path class="cls-5" d="M53.35,112a45,45,0,0,0,39.45,2.65,1.38,1.38,0,0,0-.53-2.65Z"/><path class="cls-6" d="M88,104H51a2,2,0,0,0-2,2v3.15A45.29,45.29,0,0,0,57.25,114H90a2,2,0,0,0,2-2v-4A4,4,0,0,0,88,104Z"/><path class="cls-7" d="M77.64,47.43a10.5,10.5,0,0,0,16,11.24"/><path class="cls-7" d="M50.34,47.35a10.5,10.5,0,0,1-16,11.32"/><path class="cls-6" d="M91,76H32a2,2,0,0,0-1.36.54,5,5,0,0,0,0,1.07A46.17,46.17,0,0,0,32.47,86H89a4,4,0,0,0,4-4V78A2,2,0,0,0,91,76Z"/><g class="cls-8"><path class="cls-9" d="M35.66,77.61a5,5,0,0,1,5-5.61h-5a5,5,0,0,0-5,5.61A45.66,45.66,0,0,0,75.79,118c.84,0,1.67,0,2.5-.08A45.7,45.7,0,0,1,35.66,77.61Z"/><path class="cls-9" d="M47.62,72h0Z"/></g><path class="cls-10" d="M68.35,93.9A8.63,8.63,0,0,1,73,100.33,2,2,0,0,0,75,102l.33,0A2,2,0,0,0,77,99.67a12.63,12.63,0,0,0-2.49-5.76q-1.59-.1-3.24-.1C70.26,93.81,69.29,93.84,68.35,93.9Z"/><circle class="cls-6" cx="43" cy="49" r="7"/><circle class="cls-9" cx="43" cy="49" r="3.77"/><circle class="cls-6" cx="85" cy="49" r="7"/><circle class="cls-9" cx="85" cy="49" r="3.77"/><path class="cls-7" d="M26,77s-2-9,8-9c21,0,25-10,25-10"/><path class="cls-7" d="M71,58s3,10,24,10h21.67"/><path class="cls-7" d="M66,61s0,5,2,7"/><path class="cls-7" d="M42.95,29a12.2,12.2,0,0,1,8.63,3.57l.09.09A12.13,12.13,0,0,0,57.87,36,36.72,36.72,0,0,0,72,35.95a12.29,12.29,0,0,0,6.38-3.37h0A12.2,12.2,0,0,1,87.05,29"/><path class="cls-7" d="M57.67,26.33a16,16,0,0,0,16,.33"/></svg>