<?xml version="1.0" ?><svg data-name="Layer 1" id="Layer_1" viewBox="0 0 128 128" xmlns="http://www.w3.org/2000/svg"><defs><style>.cls-1{fill:#f8dc25;}.cls-2{fill:#f2bc0f;opacity:0.7;}.cls-3{fill:none;stroke:#f2bc0f;stroke-linecap:round;stroke-linejoin:round;stroke-width:4px;opacity:0.5;}.cls-4{fill:#fff;}.cls-5{fill:#f85565;}.cls-6{fill:#00adfe;opacity:0.6;}.cls-7{fill:#393c54;}</style></defs><title/><circle class="cls-1" cx="64" cy="64" r="58"/><path class="cls-2" d="M53,107A71.65,71.65,0,0,1,16.25,96.91,58,58,0,0,0,121.56,57,72,72,0,0,1,53,107Z"/><path class="cls-3" d="M37.53,47.4A15.6,15.6,0,1,1,28.87,76"/><path class="cls-3" d="M90.47,47.4A15.6,15.6,0,1,0,99.13,76"/><circle class="cls-4" cx="39" cy="59" r="13"/><circle class="cls-4" cx="89" cy="59" r="13"/><path class="cls-5" d="M6.31,58H121.69A57.67,57.67,0,0,0,111,30H17A57.67,57.67,0,0,0,6.31,58Z"/><path class="cls-6" d="M121,34.28a10.72,10.72,0,0,1-21.43,0c0-5.92,4.8-18.28,10.72-18.28S121,28.36,121,34.28Z"/><ellipse class="cls-7" cx="74.84" cy="99.14" rx="9.16" ry="11.16"/><path class="cls-3" d="M60.48,98.14A17.28,17.28,0,0,1,63.71,88"/></svg>