<?xml version="1.0" ?><svg data-name="Layer 1" id="Layer_1" viewBox="0 0 128 128" xmlns="http://www.w3.org/2000/svg"><defs><style>.cls-1{fill:#a7aece;}.cls-2{fill:#6b718e;}.cls-2,.cls-7{opacity:0.3;}.cls-3,.cls-5{fill:#393c54;}.cls-4{fill:#4bc190;}.cls-5{opacity:0.2;}.cls-6,.cls-7{fill:none;stroke:#393c54;stroke-linecap:round;stroke-miterlimit:10;stroke-width:4px;}</style></defs><title/><circle class="cls-1" cx="64" cy="64" r="58"/><path class="cls-2" d="M53,107A71.65,71.65,0,0,1,16.25,96.91,58,58,0,0,0,121.56,57,72,72,0,0,1,53,107Z"/><path class="cls-3" d="M43.56,102A2.56,2.56,0,0,1,41,99.12a23.13,23.13,0,0,1,46,0A2.56,2.56,0,0,1,84.44,102Z"/><path class="cls-4" d="M48,104.1a2.1,2.1,0,0,1-2-2.29c0-4.81,8.74-6,18-6s18,1.24,18,6a2.1,2.1,0,0,1-2,2.29Z"/><path class="cls-4" d="M58,96v17a6,6,0,0,1,12,0V96Z"/><path class="cls-4" d="M70,102H82a0,0,0,0,1,0,0v10a6,6,0,0,1-6,6h0a6,6,0,0,1-6-6V102A0,0,0,0,1,70,102Z"/><path class="cls-4" d="M46,102H58a0,0,0,0,1,0,0v16a6,6,0,0,1-6,6h0a6,6,0,0,1-6-6V102A0,0,0,0,1,46,102Z"/><circle class="cls-5" cx="56" cy="102" r="4"/><circle class="cls-5" cx="74" cy="104" r="5"/><circle class="cls-5" cx="52" cy="117" r="3"/><path class="cls-6" d="M99.83,65.56a11.12,11.12,0,0,1-19.79,0"/><path class="cls-6" d="M48,65.56a11.12,11.12,0,0,1-19.79,0"/><line class="cls-7" x1="83" x2="101" y1="52" y2="48"/><line class="cls-7" x1="27" x2="45" y1="48" y2="52"/></svg>