<?xml version="1.0" ?><svg data-name="Layer 1" id="Layer_1" viewBox="0 0 128 128" xmlns="http://www.w3.org/2000/svg" xmlns:xlink="http://www.w3.org/1999/xlink"><defs><style>.cls-1,.cls-5{opacity:0.2;}.cls-2{fill:#515570;}.cls-3{fill:url(#linear-gradient);}.cls-4{fill:#f8dc25;}.cls-5,.cls-7{fill:#393c54;}.cls-6{fill:#f2f6f9;}.cls-7{opacity:0.1;}.cls-8{fill:#f85565;}.cls-9{fill:#f2bc0f;}</style><linearGradient gradientUnits="userSpaceOnUse" id="linear-gradient" x1="63.56" x2="63.56" y1="125.47" y2="2.91"><stop offset="0" stop-color="#393c54"/><stop offset="1" stop-color="#393c54"/></linearGradient></defs><title/><g class="cls-1"><circle class="cls-2" cx="109.07" cy="65.2" r="3.47" transform="translate(-6.12 11.56) rotate(-5.9)"/><circle class="cls-2" cx="41.51" cy="86.13" r="3.47" transform="translate(-8.63 4.72) rotate(-5.9)"/><circle class="cls-2" cx="110.5" cy="79" r="3.47" transform="translate(-7.54 11.78) rotate(-5.9)"/><circle class="cls-2" cx="29.14" cy="101.35" r="3.47" transform="translate(-10.26 3.53) rotate(-5.9)"/><circle class="cls-2" cx="44.94" cy="101.93" r="3.47" transform="translate(-10.24 5.16) rotate(-5.9)"/><circle class="cls-2" cx="56.73" cy="98.5" r="3.47" transform="translate(-9.82 6.35) rotate(-5.9)"/><circle class="cls-2" cx="70.53" cy="97.08" r="3.47" transform="translate(-9.6 7.76) rotate(-5.9)"/><circle class="cls-2" cx="86.33" cy="96.65" r="3.47" transform="translate(-25.16 162.7) rotate(-78.87)"/><circle class="cls-2" cx="98.13" cy="97.22" r="3.47" transform="translate(-9.47 10.6) rotate(-5.9)"/><circle class="cls-2" cx="44.36" cy="113.73" r="3.47" transform="translate(-11.45 5.16) rotate(-5.9)"/><circle class="cls-2" cx="55.16" cy="112.3" r="3.47" transform="translate(-11.25 6.26) rotate(-5.9)"/><circle class="cls-2" cx="71.96" cy="110.87" r="3.47" transform="translate(-11.02 7.98) rotate(-5.9)"/><circle class="cls-2" cx="88.76" cy="109.45" r="3.47" transform="translate(-10.78 9.7) rotate(-5.9)"/><circle class="cls-2" cx="99.55" cy="111.02" r="3.47" transform="translate(-10.88 10.82) rotate(-5.9)"/><circle class="cls-2" cx="20.1" cy="81.37" r="3.47" transform="translate(-8.26 2.5) rotate(-5.9)"/><circle class="cls-2" cx="102.89" cy="72.81" r="3.47" transform="translate(-6.94 10.96) rotate(-5.9)"/><circle class="cls-2" cx="35.32" cy="93.74" r="3.47" transform="translate(-9.45 4.13) rotate(-5.9)"/><circle class="cls-2" cx="62.92" cy="90.89" r="3.47" transform="translate(-9.01 6.95) rotate(-5.9)"/><circle class="cls-2" cx="76.72" cy="89.46" r="3.47" transform="translate(-8.79 8.36) rotate(-5.9)"/><circle class="cls-2" cx="92.52" cy="82.04" r="3.47" transform="translate(-7.94 9.94) rotate(-5.9)"/><circle class="cls-2" cx="102.31" cy="87.61" r="3.47" transform="translate(-8.46 10.98) rotate(-5.9)"/><circle class="cls-2" cx="64.35" cy="104.69" r="3.47" transform="translate(-10.42 7.17) rotate(-5.9)"/><circle class="cls-2" cx="78.14" cy="103.26" r="3.47" transform="translate(-10.2 8.58) rotate(-5.9)"/><circle class="cls-2" cx="63.77" cy="121.49" r="3.47" transform="translate(-12.15 7.2) rotate(-5.9)"/><circle class="cls-2" cx="79.57" cy="117.06" r="3.47" transform="translate(-11.61 8.8) rotate(-5.9)"/></g><path class="cls-3" d="M75.84,5.91a19,19,0,0,1,18.06,13.3,27.94,27.94,0,0,1,2.4,55v.06L90,75.35A25.71,25.71,0,0,1,77.22,90.68l2.59,11a.53.53,0,0,1-.45.65l-5.78.74a.53.53,0,0,0-.43.73l3.29,8.2a.53.53,0,0,1-.43.73l-5.51.7a.53.53,0,0,0-.42.74l3.56,8.33-9-8a.53.53,0,0,1,0-.83l3.62-2.78a.53.53,0,0,0,.06-.8l-6.69-6.8a.53.53,0,0,1,.16-.86l5.06-2.32A.53.53,0,0,0,67,99.3l-5.27-6.07a25.71,25.71,0,0,1-16.64-9.87L41.25,84v0a27.93,27.93,0,0,1-18.08-51.9A18.93,18.93,0,0,1,49.64,11.76,12,12,0,0,1,66.12,8.58a19,19,0,0,1,9.72-2.68m0-3A22.12,22.12,0,0,0,72,3.25a21.83,21.83,0,0,0-5.8,1.9,15,15,0,0,0-17.46,3,21.67,21.67,0,0,0-6.85-1.1A22,22,0,0,0,20,30.56,30.93,30.93,0,0,0,41.27,87a2.88,2.88,0,0,0,.51,0l2.11-.38A29,29,0,0,0,60.17,96l2.41,2.78-2.07.95a3.53,3.53,0,0,0-1,5.69l4.74,4.81-1.41,1.08a3.53,3.53,0,0,0-.18,5.46l9,7.95a3,3,0,0,0,4.74-3.43L74.11,116l2.28-.29a3.53,3.53,0,0,0,2.83-4.82l-2.1-5.24,2.62-.33a3.53,3.53,0,0,0,3-4.32l-2.07-8.79A28.88,28.88,0,0,0,92.27,78l4.56-.81a3,3,0,0,0,.74-.23,30.94,30.94,0,0,0-1.45-60.41A21.81,21.81,0,0,0,75.84,2.91Z"/><path class="cls-4" d="M70.5,113.4l5.51-.7a.53.53,0,0,0,.43-.73l-3.29-8.2a.53.53,0,0,1,.43-.73l5.78-.74a.53.53,0,0,0,.45-.65l-2.9-12.3a.53.53,0,0,0-.59-.41l-15.5,2a.53.53,0,0,0-.34.88L67,99.3a.53.53,0,0,1-.18.84l-5.06,2.32a.53.53,0,0,0-.16.86l6.69,6.8a.53.53,0,0,1-.06.8l-3.62,2.78a.53.53,0,0,0,0,.83l9,8-3.56-8.33A.53.53,0,0,1,70.5,113.4Z"/><path class="cls-5" d="M76.91,89.35a.53.53,0,0,0-.59-.41l-15.5,2a.53.53,0,0,0-.34.88l3.09,3.56c.64,0,1.27.08,1.91.08a27.61,27.61,0,0,0,12.18-2.84Z"/><path class="cls-6" d="M93.89,19.21A18.93,18.93,0,0,0,66.12,8.58a12,12,0,0,0-16.48,3.18A18.94,18.94,0,0,0,23.16,32.11,27.93,27.93,0,0,0,41.24,84v0l3.85-.69a25.6,25.6,0,0,0,44.91-8l6.29-1.12v-.06a27.94,27.94,0,0,0-2.4-55Z"/><path class="cls-7" d="M115.52,35.13A28.67,28.67,0,0,1,89.37,47.47,28.82,28.82,0,0,1,42.29,67.22,28.75,28.75,0,0,1,11,66.91,28,28,0,0,0,41.24,84v0l3.82-.68a25.64,25.64,0,0,0,45-8l6.27-1.12v-.06a27.91,27.91,0,0,0,19.23-39Z"/><path class="cls-8" d="M47.66,49l.26,2.36a2,2,0,0,1-1.05,2l-6.36,3.37L42,60.35l9.26-5,1,7.63L36.68,70.25a2,2,0,0,1-2.66-1L23.56,46.56a2,2,0,0,1,1-2.65l15.56-7.28a2,2,0,0,1,2.82,1.5l.52,3.37a2,2,0,0,1-1.05,2.08l-6,3.14L38,50.83l6.77-3.37A2,2,0,0,1,47.66,49Z"/><path class="cls-8" d="M63.4,61.37a23.91,23.91,0,0,1-3.29,0c.12,2.14.25,4,.44,6.1a1.8,1.8,0,0,1-1.4,1.92c-1.61.35-3.44.75-5.07,1.09a1.79,1.79,0,0,1-2.15-1.59c-.7-7.44-2.08-17.79-3.07-24.92a1.79,1.79,0,0,1,1.29-2l5.43-1.54A1.8,1.8,0,0,1,57.87,42h0a11.16,11.16,0,0,1,4.73-2c6.55-.68,10.31,3.15,11,9.42C74.25,56.2,69.47,60.74,63.4,61.37ZM60.29,46a13.06,13.06,0,0,0-1.5.27l.94,10.29C63,56.24,64.45,54,64.1,50.75,63.78,47.61,62.51,45.78,60.29,46Z"/><path class="cls-8" d="M80.45,58.69l-5.26.56A2,2,0,0,1,73,57.36c-.25-5-.71-12.71-1-16.61a2,2,0,0,1,1.71-2.13c1.75-.25,4-.58,5.74-.87a2,2,0,0,1,2.32,1.92c.15,5.49.3,11.33.51,17A2,2,0,0,1,80.45,58.69Z"/><path class="cls-5" d="M80.45,58.69l-5.26.56A2,2,0,0,1,73,57.36c-.25-5-.71-12.71-1-16.61a2,2,0,0,1,1.71-2.13c1.75-.25,4-.58,5.74-.87a2,2,0,0,1,2.32,1.92c.15,5.49.3,11.33.51,17A2,2,0,0,1,80.45,58.69Z"/><path class="cls-8" d="M101,43.22a2,2,0,0,1-2.38,1.92c-.29-.06-.6-.11-.93-.15-3.08-.41-5.23.59-5.74,4.43s1.54,5.36,4,5.68a10.71,10.71,0,0,0,1.09.09,2,2,0,0,1,1.87,2.46l-.3,1.25a2,2,0,0,1-1.85,1.53,22.11,22.11,0,0,1-3.72-.13c-7.67-1-12.19-5.49-11.29-12.17,1-7.12,8.06-10,14.11-9.19a32.71,32.71,0,0,1,3.71.75,2,2,0,0,1,1.49,2Z"/><path class="cls-9" d="M75.73,33.86,71.15,37a.62.62,0,0,1-1-.54l.26-5.56L66,27.56a.62.62,0,0,1,.21-1.08L71.6,25l1.84-5.26a.62.62,0,0,1,1.1-.13l3.06,4.66,5.57.12a.62.62,0,0,1,.47,1l-3.48,4.34,1.6,5.33a.62.62,0,0,1-.81.75Z"/></svg>