<?xml version="1.0" ?><svg data-name="Layer 1" id="Layer_1" viewBox="0 0 128 128" xmlns="http://www.w3.org/2000/svg"><defs><style>.cls-1{fill:#f85565;}.cls-2,.cls-5{fill:#393c54;}.cls-2,.cls-3,.cls-4{opacity:0.2;}.cls-3,.cls-6{fill:#fff;}</style></defs><title/><path class="cls-1" d="M112.88,21.91h0a34.56,34.56,0,0,0-48.49-.37L64,21.16a34.56,34.56,0,0,0-48.88,0h0a34.56,34.56,0,0,0,0,48.88l42.49,42.49,2.8,2.8a5.62,5.62,0,0,0,7.94,0l44.53-44.53A34.56,34.56,0,0,0,112.88,21.91Z"/><path class="cls-2" d="M112.88,21.91h0a34.86,34.86,0,0,0-3-2.68,34.56,34.56,0,0,1-2.68,45.86L62.65,109.62a5.62,5.62,0,0,1-7.94,0l-2.8-2.8,5.7,5.7,2.8,2.8a5.62,5.62,0,0,0,7.94,0l44.53-44.53A34.56,34.56,0,0,0,112.88,21.91Z"/><path class="cls-3" d="M15.75,53.38A30.18,30.18,0,0,1,56.06,26.25a1.75,1.75,0,0,0,1.71-3A28.82,28.82,0,0,0,12.36,55.84a1.75,1.75,0,0,0,3.37-.74Q15.72,54.25,15.75,53.38Z"/><g class="cls-4"><path class="cls-5" d="M59.45,88.53C55.52,82.88,48.58,72.36,46.87,68c.45-1.26,4.54-3.28,5.5-3.48A154.43,154.43,0,0,0,63.08,83a45.8,45.8,0,0,1,6.31-7.77c.53-.48,5.8.3,4.64,1.46a99.23,99.23,0,0,0-8.32,9.89,16.94,16.94,0,0,0,1.16,1.36c.56.66-3.05,2.65-4.62,3.3l-.18.28c-.86,1.16-4.72.43-4.21-.38Z"/><path class="cls-5" d="M61.51,60.93a2.69,2.69,0,0,1,1.77-.38,4.43,4.43,0,0,1,1.13-1.82c4.48-4.48,7.83-2.52,10.54.4,2.82,3.19,7.69,11.29,2.25,16.73-4.45,4.45-9.84,2.33-12.71-.8C61.16,71.31,59.31,64.15,61.51,60.93Zm12.6,12.65c2.17-2.17-3-9.6-4.24-11.1-.67-.78-2.06-2.65-3-1.72-1.37,1.37,1.37,6.84,2.41,8.47.05.11-.64.48-.88.46a9.89,9.89,0,0,0,1.26,1.8C71.3,73.5,73.12,74.58,74.11,73.58Z"/><path class="cls-5" d="M83.67,56.52C80.88,52.39,76.11,43,77.39,41.67c.32-.32,3.08-2.28,4.24-1.13s1,3.19,1.63,4.75c1.45,3.91,4.64,11.34,8.66,16.33a3.56,3.56,0,0,1-1,1.72C88.71,65.59,86.35,66,84.79,65a41.47,41.47,0,0,1-8.45-6.78C74.58,56.5,70.53,52,70.53,52a1.21,1.21,0,0,1,.24-1.74c.62-.62,4.4-2.79,5.17-1.9a48.62,48.62,0,0,0,4.26,5.44,27.19,27.19,0,0,0,3.27,2.95Z"/><path class="cls-5" d="M86.31,35.49c1.55-1.55,5.58-3.27,8.53-.32,3.43,3.43,4,8.18,2.31,9.92a3.75,3.75,0,0,1-3.57,1A12.5,12.5,0,0,0,96.22,50c1.31,1.31,2.47,1.29,3.46.29,2.52-2.52,1.18-6.92-.08-8.71a1.88,1.88,0,0,1,.51-.94c1.23-1.23,2.73-1.77,3.83-.67,2.17,2.17,3.54,7.61-1,12.2-3.14,3.14-8.36,4.56-11.72,1.21C86.31,48.47,82.26,39.54,86.31,35.49Zm7,8.5c.89-.89-.88-4-2.68-5.9-1-1-1.23-1-1.37-.83s-.13.29.05.8a30.36,30.36,0,0,0,2.84,6S92.82,44.48,93.3,44Z"/></g><path class="cls-6" d="M57.45,86.53C53.52,80.88,46.58,70.36,44.87,66c.45-1.26,4.54-3.28,5.5-3.48A154.43,154.43,0,0,0,61.08,81a45.8,45.8,0,0,1,6.31-7.77c.53-.48,5.8.3,4.64,1.46a99.23,99.23,0,0,0-8.32,9.89,16.94,16.94,0,0,0,1.16,1.36c.56.66-3.05,2.65-4.62,3.3l-.18.28c-.86,1.16-4.72.43-4.21-.38Z"/><path class="cls-6" d="M59.51,58.93a2.69,2.69,0,0,1,1.77-.38,4.43,4.43,0,0,1,1.13-1.82c4.48-4.48,7.83-2.52,10.54.4,2.82,3.19,7.69,11.29,2.25,16.73-4.45,4.45-9.84,2.33-12.71-.8C59.16,69.31,57.31,62.15,59.51,58.93Zm12.6,12.65c2.17-2.17-3-9.6-4.24-11.1-.67-.78-2.06-2.65-3-1.72-1.37,1.37,1.37,6.84,2.41,8.47.05.11-.64.48-.88.46a9.89,9.89,0,0,0,1.26,1.8C69.3,71.5,71.12,72.58,72.11,71.58Z"/><path class="cls-6" d="M81.67,54.52C78.88,50.39,74.11,41,75.39,39.67c.32-.32,3.08-2.28,4.24-1.13s1,3.19,1.63,4.75c1.45,3.91,4.64,11.34,8.66,16.33a3.56,3.56,0,0,1-1,1.72C86.71,63.59,84.35,64,82.79,63a41.47,41.47,0,0,1-8.45-6.78C72.58,54.5,68.53,50,68.53,50a1.21,1.21,0,0,1,.24-1.74c.62-.62,4.4-2.79,5.17-1.9a48.62,48.62,0,0,0,4.26,5.44,27.19,27.19,0,0,0,3.27,2.95Z"/><path class="cls-6" d="M84.31,33.49c1.55-1.55,5.58-3.27,8.53-.32,3.43,3.43,4,8.18,2.31,9.92a3.75,3.75,0,0,1-3.57,1A12.5,12.5,0,0,0,94.22,48c1.31,1.31,2.47,1.29,3.46.29,2.52-2.52,1.18-6.92-.08-8.71a1.88,1.88,0,0,1,.51-.94c1.23-1.23,2.73-1.77,3.83-.67,2.17,2.17,3.54,7.61-1,12.2-3.14,3.14-8.36,4.56-11.72,1.21C84.31,46.47,80.26,37.54,84.31,33.49Zm7,8.5c.89-.89-.88-4-2.68-5.9-1-1-1.23-1-1.37-.83s-.13.29.05.8a30.36,30.36,0,0,0,2.84,6S90.82,42.48,91.3,42Z"/></svg>