<?xml version="1.0" ?><svg data-name="Layer 1" id="Layer_1" viewBox="0 0 128 128" xmlns="http://www.w3.org/2000/svg" xmlns:xlink="http://www.w3.org/1999/xlink"><defs><style>.cls-1,.cls-5{fill:none;}.cls-2{fill:#00adfe;}.cls-3{fill:#f85565;}.cls-4{fill:#f8dc25;}.cls-5{stroke:#393c54;stroke-linecap:round;stroke-linejoin:round;stroke-width:2px;}.cls-6{opacity:0.2;}.cls-7{clip-path:url(#clip-path);}</style><clipPath id="clip-path"><path class="cls-1" d="M60,25.06H76v67H60Z"/></clipPath></defs><title/><path class="cls-2" d="M72,36.36,82.32,24.94,124,38.68,111,50.06V92.93l-10.17,10.13H85v-53H72Z"/><path class="cls-3" d="M83,25.06h41v14H111v54H95v-54H83Z"/><polygon class="cls-4" points="85 50.06 95 39.06 83 38.75 71.5 50 85 50.06"/><polygon class="cls-4" points="100.83 103.06 111 93.06 95 93.06 85 103.06 100.83 103.06"/><path class="cls-5" d="M110,93.06H95v-54H83v-13"/><line class="cls-5" x1="86.05" x2="95.32" y1="101.92" y2="92.64"/><line class="cls-5" x1="72.49" x2="82.76" y1="49.41" y2="38.99"/><path class="cls-2" d="M50,35.71,60.27,25.43,75.75,91.56,66,103.06H50Z"/><path class="cls-3" d="M60,25.06H76v67H60Z"/><g class="cls-6"><g class="cls-7"><circle class="cls-4" cx="51.25" cy="23.06" r="2.25"/><circle class="cls-4" cx="60.25" cy="23.06" r="2.25"/><circle class="cls-4" cx="69.25" cy="23.06" r="2.25"/><circle class="cls-4" cx="78.25" cy="23.06" r="2.25"/><circle class="cls-4" cx="87.25" cy="23.06" r="2.25"/><circle class="cls-4" cx="55.75" cy="27.56" r="2.25"/><circle class="cls-4" cx="64.75" cy="27.56" r="2.25"/><circle class="cls-4" cx="73.75" cy="27.56" r="2.25"/><circle class="cls-4" cx="82.75" cy="27.56" r="2.25"/><circle class="cls-4" cx="51.25" cy="32.06" r="2.25"/><circle class="cls-4" cx="60.25" cy="32.06" r="2.25"/><circle class="cls-4" cx="69.25" cy="32.06" r="2.25"/><circle class="cls-4" cx="78.25" cy="32.06" r="2.25"/><circle class="cls-4" cx="87.25" cy="32.06" r="2.25"/><circle class="cls-4" cx="55.75" cy="36.56" r="2.25"/><circle class="cls-4" cx="64.75" cy="36.56" r="2.25"/><circle class="cls-4" cx="73.75" cy="36.56" r="2.25"/><circle class="cls-4" cx="82.75" cy="36.56" r="2.25"/><circle class="cls-4" cx="51.25" cy="41.06" r="2.25"/><circle class="cls-4" cx="60.25" cy="41.06" r="2.25"/><circle class="cls-4" cx="69.25" cy="41.06" r="2.25"/><circle class="cls-4" cx="78.25" cy="41.06" r="2.25"/><circle class="cls-4" cx="87.25" cy="41.06" r="2.25"/><circle class="cls-4" cx="55.75" cy="45.56" r="2.25"/><circle class="cls-4" cx="64.75" cy="45.56" r="2.25"/><circle class="cls-4" cx="73.75" cy="45.56" r="2.25"/><circle class="cls-4" cx="82.75" cy="45.56" r="2.25"/><circle class="cls-4" cx="51.25" cy="50.06" r="2.25"/><circle class="cls-4" cx="60.25" cy="50.06" r="2.25"/><circle class="cls-4" cx="69.25" cy="50.06" r="2.25"/><circle class="cls-4" cx="78.25" cy="50.06" r="2.25"/><circle class="cls-4" cx="87.25" cy="50.06" r="2.25"/><circle class="cls-4" cx="55.75" cy="54.56" r="2.25"/><circle class="cls-4" cx="64.75" cy="54.56" r="2.25"/><circle class="cls-4" cx="73.75" cy="54.56" r="2.25"/><circle class="cls-4" cx="82.75" cy="54.56" r="2.25"/><circle class="cls-4" cx="51.25" cy="59.06" r="2.25"/><circle class="cls-4" cx="60.25" cy="59.06" r="2.25"/><circle class="cls-4" cx="69.25" cy="59.06" r="2.25"/><circle class="cls-4" cx="78.25" cy="59.06" r="2.25"/><circle class="cls-4" cx="87.25" cy="59.06" r="2.25"/><circle class="cls-4" cx="55.75" cy="63.56" r="2.25"/><circle class="cls-4" cx="64.75" cy="63.56" r="2.25"/><circle class="cls-4" cx="73.75" cy="63.56" r="2.25"/><circle class="cls-4" cx="82.75" cy="63.56" r="2.25"/><circle class="cls-4" cx="51.25" cy="68.06" r="2.25"/><circle class="cls-4" cx="60.25" cy="68.06" r="2.25"/><circle class="cls-4" cx="69.25" cy="68.06" r="2.25"/><circle class="cls-4" cx="78.25" cy="68.06" r="2.25"/><circle class="cls-4" cx="87.25" cy="68.06" r="2.25"/><circle class="cls-4" cx="55.75" cy="72.56" r="2.25"/><circle class="cls-4" cx="64.75" cy="72.56" r="2.25"/><circle class="cls-4" cx="73.75" cy="72.56" r="2.25"/><circle class="cls-4" cx="82.75" cy="72.56" r="2.25"/><circle class="cls-4" cx="51.25" cy="77.06" r="2.25"/><circle class="cls-4" cx="60.25" cy="77.06" r="2.25"/><circle class="cls-4" cx="69.25" cy="77.06" r="2.25"/><circle class="cls-4" cx="78.25" cy="77.06" r="2.25"/><circle class="cls-4" cx="87.25" cy="77.06" r="2.25"/><circle class="cls-4" cx="55.75" cy="81.56" r="2.25"/><circle class="cls-4" cx="64.75" cy="81.56" r="2.25"/><circle class="cls-4" cx="73.75" cy="81.56" r="2.25"/><circle class="cls-4" cx="82.75" cy="81.56" r="2.25"/><circle class="cls-4" cx="51.25" cy="86.06" r="2.25"/><circle class="cls-4" cx="60.25" cy="86.06" r="2.25"/><circle class="cls-4" cx="69.25" cy="86.06" r="2.25"/><circle class="cls-4" cx="78.25" cy="86.06" r="2.25"/><circle class="cls-4" cx="87.25" cy="86.06" r="2.25"/><circle class="cls-4" cx="55.75" cy="90.56" r="2.25"/><circle class="cls-4" cx="64.75" cy="90.56" r="2.25"/><circle class="cls-4" cx="73.75" cy="90.56" r="2.25"/><circle class="cls-4" cx="82.75" cy="90.56" r="2.25"/></g></g><polygon class="cls-4" points="65.98 103.06 76 92.06 60 92.06 50 103.06 65.98 103.06"/><path class="cls-5" d="M75,92.06H60v-66"/><line class="cls-5" x1="51.66" x2="59.93" y1="101.92" y2="92.64"/><path class="cls-2" d="M5,35.71,15,25.18l6,63,30.77,3.71L41.53,103.06H5Z"/><polygon class="cls-4" points="41.53 103.06 52 92.06 15 92.06 5 103.06 41.53 103.06"/><path class="cls-3" d="M15,25.06H31v53H52v14H15Z"/><path class="cls-5" d="M51,92.06H15v-66"/><line class="cls-5" x1="6.14" x2="15.42" y1="101.92" y2="92.64"/><polygon class="cls-4" points="124 39.06 111 50.06 111 39.06 124 39.06"/></svg>