<?xml version="1.0" ?><svg data-name="Layer 1" id="Layer_1" viewBox="0 0 128 128" xmlns="http://www.w3.org/2000/svg"><defs><style>.cls-1{fill:#f85565;}.cls-2{fill:#4bc190;}.cls-3{fill:#515570;}.cls-4{fill:#00adfe;}.cls-5{fill:#f8dc25;}.cls-6{fill:#393c54;}.cls-7{fill:#f2bc0f;}.cls-8{fill:#d8d8dd;}</style></defs><title/><path class="cls-1" d="M38.84,36.14l-3.35-.07-.63,4.56,2.63,0a2,2,0,0,1,2,2.28L39,46.55a2,2,0,0,1-2,1.72H33.72l-.44,3.21a2,2,0,0,1-2,1.73L26,53.15a2,2,0,0,1-1.95-2.32l.42-2.55H21.69l-.38,2a2,2,0,0,1-2,1.64L15,51.85A2,2,0,0,1,13,49.54l.2-1.27-1.7,0a2,2,0,0,1-2-2.34l.62-3.61a2,2,0,0,1,2-1.66h2.42l1-5.08-1.91,0a2,2,0,0,1-1.94-2.36l.63-3.4a2,2,0,0,1,2-1.64l2.51.07.4-2.59A2,2,0,0,1,19.35,24l4.06.26a2,2,0,0,1,1.84,2.33l-.31,1.8h3l.95-5.2a2,2,0,0,1,2-1.64l4.43.15A2,2,0,0,1,37.23,24l-.66,4.64,2.81,0a2,2,0,0,1,2,2.27l-.48,3.52A2,2,0,0,1,38.84,36.14Zm-15.1-.36-.86,4.91,2.91-.06.86-4.79Z"/><path class="cls-2" d="M88.78,18.51,86.4,56.46a2,2,0,0,1-1.91,1.87l-9.11.4a2,2,0,0,1-2.09-2l.1-20-5.87,17.8h-5L58,38.63l-.05,16.55a2,2,0,0,1-1.94,2l-9.15.28a2,2,0,0,1-2.06-2L45.3,20a2,2,0,0,1,1.92-2l11.23-.44a2,2,0,0,1,2,1.41l5.37,17.41,7.26-18.74a2,2,0,0,1,1.86-1.28H86.78A2,2,0,0,1,88.78,18.51Z"/><polyline class="cls-3" points="22.17 95.67 33 107 52.67 107 44.04 62.14 35.67 77 24 62 23.43 78.09"/><path class="cls-4" d="M115.87,16.84a2,2,0,0,1,2,2.13q-.1,1.6-.18,3.18-.14,2.62-.37,5.3l-12.09.63-.29,3.59h6.35a2,2,0,0,1,2,2.14l-.35,4.9A2,2,0,0,1,111,40.57l-6.75.23L104,45h10a2,2,0,0,1,2,2.11q-.12,2.07-.24,4.12t-.24,4.34a2,2,0,0,1-1.95,1.9l-20.63.48a2,2,0,0,1-2-2l.82-37.08a2,2,0,0,1,2-2Z"/><path class="cls-5" d="M44,62.14,42.35,94,30,95.17,23.43,78.09l-1,17.41H11.81l.85-33.36,11.76-.56,8.14,16.94.38-16Z"/><polygon class="cls-3" points="74.47 63.22 65.83 107 89 107 99.12 96.11 107.67 83.33 106.37 62.18 101 76.33 95.33 75 91.64 62.18 83.67 82.33 74.47 63.22"/><path class="cls-6" d="M45.33,82.83,51.17,107H69.83L75,81.67S70.67,91,60.5,89.33,45.33,82.83,45.33,82.83Z"/><circle class="cls-3" cx="60.25" cy="80.75" r="8.75"/><path class="cls-5" d="M118,63.22l-5.51,32.61-13.36.28L96.25,79.22,93.38,94.89,80,95.36,74.46,63.22l11.67-1,2.35,19.53,3.15-19.53h9.18l3.67,19.76,1.88-19.76Z"/><path class="cls-7" d="M60,64A15.51,15.51,0,1,0,75,79.5,15.26,15.26,0,0,0,60,64Zm0,21a5.52,5.52,0,1,1,5-5.5A5.27,5.27,0,0,1,60,85Z"/><polygon class="cls-6" points="11.67 95.5 27 107 36 107 22.17 95.67 11.67 95.5"/><polygon class="cls-6" points="30.02 95.17 38 107 47.83 107 42.35 94.04 30.02 95.17"/><polygon class="cls-6" points="80.02 95.36 74.33 107 83.67 107 93.38 94.89 80.02 95.36"/><polygon class="cls-6" points="99.12 96.11 89 107 96.33 107 112.49 95.83 99.12 96.11"/><rect class="cls-8" height="6" rx="3" ry="3" width="76" x="24" y="107"/></svg>