<?xml version="1.0" ?><svg data-name="Layer 1" id="Layer_1" viewBox="0 0 128 128" xmlns="http://www.w3.org/2000/svg"><defs><style>.cls-1,.cls-6{fill:#393c54;}.cls-2{fill:#f85565;}.cls-3{opacity:0.2;}.cls-4{fill:#f2bc0f;}.cls-5{fill:#f8dc25;}.cls-6{opacity:0.1;}</style></defs><title/><path class="cls-1" d="M19,26H52V37H41V78H29V37H19Z"/><path class="cls-1" d="M58,36H70V78H58Z"/><path class="cls-1" d="M77,26H95.22q7.1,0,11,3.81t3.9,10.81a22,22,0,0,1-1.29,7.31,12.83,12.83,0,0,1-5.42,6.37A18.59,18.59,0,0,1,93,57H89V78H77ZM89,36V47h2.64a6.83,6.83,0,0,0,4.67-1.53,5.4,5.4,0,0,0,1.74-4.29,5.18,5.18,0,0,0-1.34-3.9,5.58,5.58,0,0,0-4-1.29Z"/><path class="cls-2" d="M12.72,84.19a10.61,10.61,0,0,1,2.26-1,8.28,8.28,0,0,1,2.71-.4,3,3,0,0,1,1.75.51,2.18,2.18,0,0,1,.62,1.89q0,1.33-.13,3.56t-.2,4.89q-.1,2.66-.21,5.44t-.16,5.12q.73-1.08,1.63-2.7.81-1.39,1.92-3.44t2.51-4.91q1.65-3.4,2.76-5.53a30.46,30.46,0,0,1,1.92-3.28,5.61,5.61,0,0,1,1.49-1.57,2.49,2.49,0,0,1,1.38-.4,2.36,2.36,0,0,1,1.78.71,6.71,6.71,0,0,1,1.11,2.65q.78,3.23,1.46,5.75T38.58,96q.58,2,1.13,3.51t1.15,2.81q.57-1,1.39-2.39,1.31-2.24,3.6-6.33,1.72-3.09,3-5.21T51,85a9,9,0,0,1,1.57-1.76,2,2,0,0,1,1.15-.52,3.94,3.94,0,0,1,1.4.39,9.54,9.54,0,0,1,1.66.94,6.51,6.51,0,0,1,1.38,1.29,2.74,2.74,0,0,1,.63,1.5,52.16,52.16,0,0,0,1.07,7.66,20.91,20.91,0,0,0,2.32,6.12A12,12,0,0,0,66,104.78a11.19,11.19,0,0,0,5.87,1.59,12.85,12.85,0,0,0,5.19-.89A19.66,19.66,0,0,0,81.56,103a28.82,28.82,0,0,0,3.88-3.51q1.81-2,3.42-3.95a11,11,0,0,1,2,1,1.62,1.62,0,0,1,.87,1.43A1.94,1.94,0,0,1,91.36,99,15.43,15.43,0,0,1,90,100.54q-2,2-4.33,4a32.6,32.6,0,0,1-5.1,3.56,29.69,29.69,0,0,1-6,2.56,21.53,21.53,0,0,1-6.87.89,14.44,14.44,0,0,1-6-1.32,11.9,11.9,0,0,1-4.38-3.67,21.64,21.64,0,0,1-3.06-6.18,51.86,51.86,0,0,1-2-8.93,5.87,5.87,0,0,0-.89,1.19c-.33.54-.76,1.3-1.31,2.28s-1.19,2.23-1.93,3.75-1.66,3.37-2.76,5.53a12.86,12.86,0,0,1-3.36,4.69,6.08,6.08,0,0,1-3.91,1.24q-1.33,0-2.33-2.56a75.15,75.15,0,0,1-2.29-7.26Q32.32,96,31.74,94t-.89-2q-.63,0-2.32,3.62T23.14,106.6a22.24,22.24,0,0,1-1.31,2.32,6,6,0,0,1-1.13,1.3,2.51,2.51,0,0,1-1.23.56,9.43,9.43,0,0,1-1.61.08,4,4,0,0,1-3-1.36q-1.19-1.32-1.08-5.39.09-3.91-.06-7.32t-.36-6q-.21-2.63-.44-4.36A19.19,19.19,0,0,1,12.72,84.19Z"/><path class="cls-2" d="M113.88,103.63a5.42,5.42,0,0,1,1.77,1.06,1.93,1.93,0,0,1,.67,1.5,2.37,2.37,0,0,1-.46,1.28,6.51,6.51,0,0,1-2,1.56,25.8,25.8,0,0,1-7.11,2.69,29.63,29.63,0,0,1-6.75.66q-7.36-.18-11-3.55T85.63,99.5A18,18,0,0,1,87,93.07a17.15,17.15,0,0,1,3.42-5.36,15.7,15.7,0,0,1,5.1-3.6,14.66,14.66,0,0,1,6.37-1.22,13.3,13.3,0,0,1,4.17.69,8.55,8.55,0,0,1,2.9,1.68,6.89,6.89,0,0,1,1.71,2.31,6,6,0,0,1,.52,2.6q-.09,3.91-4.73,6.31t-13.76,4.05a9.24,9.24,0,0,0,3,5.4,10,10,0,0,0,6.6,2.2,17,17,0,0,0,6-1A15.52,15.52,0,0,0,113.88,103.63Zm-21.61-6.4q6.44-.94,9.06-2.36T104,91.17a3.92,3.92,0,0,0-4.12-4.33,5.35,5.35,0,0,0-2.76.72,7.51,7.51,0,0,0-2.36,2.1,11.94,11.94,0,0,0-1.69,3.29A15.72,15.72,0,0,0,92.26,97.23Z"/><rect class="cls-2" height="5" rx="2.5" ry="2.5" width="110" x="9" y="78"/><g class="cls-3"><rect class="cls-1" height="5" rx="2.5" ry="2.5" width="110" x="9" y="78"/></g><path class="cls-4" d="M66,16H63v.52a9,9,0,0,0,0,17V34h3a9,9,0,0,0,0-18Z"/><circle class="cls-5" cx="63" cy="25" r="9"/><circle class="cls-4" cx="63" cy="25" r="6"/><polygon class="cls-6" points="67.24 25 64 29.24 60.76 25 64 20.76 67.24 25"/><polygon class="cls-5" points="66.24 25 63 29.24 59.76 25 63 20.76 66.24 25"/></svg>