<?xml version="1.0" ?><svg data-name="Layer 1" id="Layer_1" viewBox="0 0 128 128" xmlns="http://www.w3.org/2000/svg" xmlns:xlink="http://www.w3.org/1999/xlink"><defs><style>.cls-1,.cls-10{fill:none;}.cls-2,.cls-5{fill:#393c54;}.cls-2{opacity:0.1;}.cls-3{fill:#fff;}.cls-4{fill:#00adfe;}.cls-6{clip-path:url(#clip-path);}.cls-7{opacity:0.2;}.cls-8{fill:#515570;}.cls-9{fill:#f8dc25;}.cls-10{stroke:#393c54;stroke-linecap:round;stroke-linejoin:round;stroke-width:2.08px;}</style><clipPath id="clip-path"><path class="cls-1" d="M32.17,30.2l-16-4.86a1.9,1.9,0,0,0-2.35,2.45l4.81,13.78A1.9,1.9,0,0,1,17.49,44L4.71,48.28a1.9,1.9,0,0,0-.88,3L14.15,64.16a1.9,1.9,0,0,1,0,2.35L5,78.3a1.9,1.9,0,0,0,1.75,3l12.47-1.62a1.9,1.9,0,0,1,2.12,2.17l-2.92,19.28a1.9,1.9,0,0,0,2.89,1.89l14.27-9a1.9,1.9,0,0,1,2.75.82l4.78,10.56a1.9,1.9,0,0,0,3.14.49L56.68,94.48A1.9,1.9,0,0,1,58.85,94L84.2,105a1.9,1.9,0,0,0,2.62-2.12l-1.55-7.72A1.9,1.9,0,0,1,87.8,93l14.07,5.25a1.9,1.9,0,0,0,2.46-2.42l-2.11-5.92a1.9,1.9,0,0,1,1.84-2.54l14.64.4A1.9,1.9,0,0,0,120.44,85l-6.36-12.44a1.9,1.9,0,0,1,.15-2l6.92-9.7a1.9,1.9,0,0,0-.63-2.77l-6.2-3.4a1.9,1.9,0,0,1-.85-2.36l5.29-13.4a1.9,1.9,0,0,0-2-2.58L104.5,38a1.9,1.9,0,0,1-2.15-2.06l1.1-12A1.9,1.9,0,0,0,100.89,22l-17.8,6.78a1.9,1.9,0,0,1-2.58-1.66l-.48-8a1.9,1.9,0,0,0-2.95-1.47L59.57,29.14a1.9,1.9,0,0,1-2.11,0L40.57,17.79a1.9,1.9,0,0,0-2.88,1L34.54,28.94A1.9,1.9,0,0,1,32.17,30.2Z"/></clipPath></defs><title/><path class="cls-2" d="M48.83,112.58a4.73,4.73,0,0,1-4.31-2.77l-4.1-9.07-12.71,8a4.72,4.72,0,0,1-7.18-4.7l2.61-17.18L12.51,88.25a4.89,4.89,0,0,1-.62,0,4.72,4.72,0,0,1-3.72-7.61L16.45,70,7,58.23a4.72,4.72,0,0,1,2.18-7.42L20.51,47,16.22,34.76a4.71,4.71,0,0,1,5.83-6.07l14.36,4.37,2.73-8.76a4.72,4.72,0,0,1,7.14-2.52L62,32.31,78.25,21.57a4.72,4.72,0,0,1,7.31,3.66l.37,6.28,15.79-6a4.72,4.72,0,0,1,6.38,4.84l-.94,10.27,10.45-1.4a4.72,4.72,0,0,1,5,6.41l-4.75,12,5.15,2.83a4.72,4.72,0,0,1,1.57,6.88l-6.29,8.82,5.83,11.41a4.72,4.72,0,0,1-4.2,6.87l-12.68-.34,1.51,4.24a4.72,4.72,0,0,1-6.1,6L90.93,100,92,105.53a4.72,4.72,0,0,1-6.5,5.26L61.82,100.54,52.32,111A4.72,4.72,0,0,1,48.83,112.58Z"/><path class="cls-3" d="M44.89,109.58a4.91,4.91,0,0,1-4.47-2.88l-4.26-9.42L23,105.61a4.9,4.9,0,0,1-7.46-4.88L18.2,82.89l-11,1.43a5.07,5.07,0,0,1-.65,0,4.9,4.9,0,0,1-3.86-7.9l8.59-11.1L1.49,53.14a4.9,4.9,0,0,1,2.27-7.71L15.48,41.5,11,28.77a4.9,4.9,0,0,1,6.06-6.3L32,27l2.83-9.1a4.9,4.9,0,0,1,7.41-2.61L58.53,26.23,75.44,15.07A4.9,4.9,0,0,1,83,18.87l.39,6.53,16.4-6.25a4.9,4.9,0,0,1,6.63,5l-1,10.66,10.85-1.46A4.9,4.9,0,0,1,121.54,40l-4.93,12.5L122,55.48a4.9,4.9,0,0,1,1.63,7.14l-6.53,9.16,6.06,11.84a4.9,4.9,0,0,1-4.36,7.13l-13.17-.36,1.57,4.41a4.9,4.9,0,0,1-6.33,6.24L88.6,96.48l1.16,5.78A4.9,4.9,0,0,1,83,107.73L58.38,97.08,48.51,108A4.91,4.91,0,0,1,44.89,109.58Z"/><path class="cls-4" d="M32.17,30.2l-16-4.86a1.9,1.9,0,0,0-2.35,2.45l4.81,13.78A1.9,1.9,0,0,1,17.49,44L4.71,48.28a1.9,1.9,0,0,0-.88,3L14.15,64.16a1.9,1.9,0,0,1,0,2.35L5,78.3a1.9,1.9,0,0,0,1.75,3l12.47-1.62a1.9,1.9,0,0,1,2.12,2.17l-2.92,19.28a1.9,1.9,0,0,0,2.89,1.89l14.27-9a1.9,1.9,0,0,1,2.75.82l4.78,10.56a1.9,1.9,0,0,0,3.14.49L56.68,94.48A1.9,1.9,0,0,1,58.85,94L84.2,105a1.9,1.9,0,0,0,2.62-2.12l-1.55-7.72A1.9,1.9,0,0,1,87.8,93l14.07,5.25a1.9,1.9,0,0,0,2.46-2.42l-2.11-5.92a1.9,1.9,0,0,1,1.84-2.54l14.64.4A1.9,1.9,0,0,0,120.44,85l-6.36-12.44a1.9,1.9,0,0,1,.15-2l6.92-9.7a1.9,1.9,0,0,0-.63-2.77l-6.2-3.4a1.9,1.9,0,0,1-.85-2.36l5.29-13.4a1.9,1.9,0,0,0-2-2.58L104.5,38a1.9,1.9,0,0,1-2.15-2.06l1.1-12A1.9,1.9,0,0,0,100.89,22l-17.8,6.78a1.9,1.9,0,0,1-2.58-1.66l-.48-8a1.9,1.9,0,0,0-2.95-1.47L59.57,29.14a1.9,1.9,0,0,1-2.11,0L40.57,17.79a1.9,1.9,0,0,0-2.88,1L34.54,28.94A1.9,1.9,0,0,1,32.17,30.2Z"/><path class="cls-5" d="M110.93,39.52l-6.52,15-.74-9L95,42.18,90.15,53.37,89,40,78,40.54,78,53S73.53,39.9,57.45,41.22,38.9,57.59,38.9,57.59L37.21,45.25l-8.66,5.43,1.91,15L24,57.12l-6.79,3.59L19.44,71l-6.69-7.54-8.1,4L24,93.88l8.32-1.36-2.58-15,7.5,9.16,6.2-2.53L43,78.83s5.52,9.66,18.83,7.55S80.56,72,80.56,72L82,81.35l8.43,0,4.7-12.53,1.33,12,10.1-.16,13.93-35.54ZM59.79,73.74c-3.88.32-7.38-3.62-7.81-8.8s2.38-9.64,6.26-10,7.38,3.62,7.81,8.8S63.68,73.42,59.79,73.74Z"/><g class="cls-6"><g class="cls-7"><circle class="cls-8" cx="4.41" cy="7.26" r="3.47" transform="translate(-0.72 0.49) rotate(-5.9)"/><circle class="cls-8" cx="18.2" cy="5.83" r="3.47" transform="translate(-0.5 1.9) rotate(-5.9)"/><circle class="cls-8" cx="32" cy="4.41" r="3.47" transform="translate(-0.28 3.31) rotate(-5.9)"/><circle class="cls-8" cx="45.8" cy="2.98" r="3.47" transform="translate(-0.06 4.72) rotate(-5.9)"/><circle class="cls-8" cx="59.6" cy="1.55" r="3.47" transform="translate(0.16 6.13) rotate(-5.9)"/><circle class="cls-8" cx="73.4" cy="0.13" r="3.47" transform="translate(0.38 7.55) rotate(-5.9)"/><circle class="cls-8" cx="87.19" cy="-1.3" r="3.47" transform="translate(0.6 8.96) rotate(-5.9)"/><circle class="cls-8" cx="100.99" cy="-2.72" r="3.47" transform="translate(0.81 10.37) rotate(-5.9)"/><circle class="cls-8" cx="5.83" cy="21.06" r="3.47" transform="translate(-2.13 0.71) rotate(-5.9)"/><circle class="cls-8" cx="19.63" cy="19.63" r="3.47" transform="translate(-1.91 2.12) rotate(-5.9)"/><circle class="cls-8" cx="33.43" cy="18.2" r="3.47" transform="translate(-1.69 3.53) rotate(-5.9)"/><circle class="cls-8" cx="47.23" cy="16.78" r="3.47" transform="translate(-1.47 4.94) rotate(-5.9)"/><circle class="cls-8" cx="61.02" cy="15.35" r="3.47" transform="translate(-1.25 6.35) rotate(-5.9)"/><circle class="cls-8" cx="74.82" cy="13.93" r="3.47" transform="translate(-1.04 7.76) rotate(-5.9)"/><circle class="cls-8" cx="88.62" cy="12.5" r="3.47" transform="translate(-0.82 9.18) rotate(-5.9)"/><circle class="cls-8" cx="102.42" cy="11.08" r="3.47" transform="translate(-0.6 10.59) rotate(-5.9)"/><circle class="cls-8" cx="7.26" cy="34.85" r="3.47" transform="translate(-3.54 0.93) rotate(-5.9)"/><circle class="cls-8" cx="21.06" cy="33.43" r="3.47" transform="translate(-3.32 2.34) rotate(-5.9)"/><circle class="cls-8" cx="34.85" cy="32" r="3.47" transform="translate(-3.1 3.75) rotate(-5.9)"/><circle class="cls-8" cx="48.65" cy="30.58" r="3.47" transform="translate(-2.89 5.16) rotate(-5.9)"/><circle class="cls-8" cx="62.45" cy="29.15" r="3.47" transform="translate(-2.67 6.57) rotate(-5.9)"/><circle class="cls-8" cx="76.25" cy="27.72" r="3.47" transform="translate(-2.45 7.98) rotate(-5.9)"/><circle class="cls-8" cx="90.05" cy="26.3" r="3.47" transform="translate(-2.23 9.4) rotate(-5.9)"/><circle class="cls-8" cx="103.84" cy="24.87" r="3.47" transform="translate(-2.01 10.81) rotate(-5.9)"/><circle class="cls-8" cx="8.68" cy="48.65" r="3.47" transform="translate(-4.96 1.15) rotate(-5.9)"/><circle class="cls-8" cx="22.48" cy="47.23" r="3.47" transform="translate(-4.74 2.56) rotate(-5.9)"/><circle class="cls-8" cx="36.28" cy="45.8" r="3.47" transform="translate(-4.52 3.97) rotate(-5.9)"/><circle class="cls-8" cx="50.08" cy="44.37" r="3.47" transform="translate(-4.3 5.38) rotate(-5.9)"/><circle class="cls-8" cx="63.88" cy="42.95" r="3.47" transform="translate(-4.08 6.79) rotate(-5.9)"/><circle class="cls-8" cx="77.67" cy="41.52" r="3.47" transform="translate(-3.86 8.2) rotate(-5.9)"/><circle class="cls-8" cx="91.47" cy="40.1" r="3.47" transform="translate(-3.64 9.61) rotate(-5.9)"/><circle class="cls-8" cx="105.27" cy="38.67" r="3.47" transform="translate(-3.42 11.03) rotate(-5.9)"/><circle class="cls-8" cx="10.11" cy="62.45" r="3.47" transform="translate(-6.37 1.37) rotate(-5.9)"/><circle class="cls-8" cx="23.91" cy="61.02" r="3.47" transform="translate(-6.15 2.78) rotate(-5.9)"/><circle class="cls-8" cx="37.71" cy="59.6" r="3.47" transform="translate(-5.93 4.19) rotate(-5.9)"/><circle class="cls-8" cx="51.5" cy="58.17" r="3.47" transform="translate(-5.71 5.6) rotate(-5.9)"/><circle class="cls-8" cx="65.3" cy="56.75" r="3.47" transform="translate(-5.49 7.01) rotate(-5.9)"/><circle class="cls-8" cx="79.1" cy="55.32" r="3.47" transform="translate(-5.27 8.42) rotate(-5.9)"/><circle class="cls-8" cx="92.9" cy="53.89" r="3.47" transform="translate(-5.05 9.83) rotate(-5.9)"/><circle class="cls-8" cx="106.7" cy="52.47" r="3.47" transform="translate(-4.83 11.25) rotate(-5.9)"/><circle class="cls-8" cx="11.54" cy="76.25" r="3.47" transform="translate(-7.78 1.59) rotate(-5.9)"/><circle class="cls-8" cx="25.33" cy="74.82" r="3.47" transform="translate(-7.56 3) rotate(-5.9)"/><circle class="cls-8" cx="39.13" cy="73.4" r="3.47" transform="translate(-7.34 4.41) rotate(-5.9)"/><circle class="cls-8" cx="52.93" cy="71.97" r="3.47" transform="translate(-7.12 5.82) rotate(-5.9)"/><circle class="cls-8" cx="66.73" cy="70.54" r="3.47" transform="translate(-6.9 7.23) rotate(-5.9)"/><circle class="cls-8" cx="80.53" cy="69.12" r="3.47" transform="translate(-6.68 8.64) rotate(-5.9)"/><circle class="cls-8" cx="94.32" cy="67.69" r="3.47" transform="translate(-6.46 10.05) rotate(-5.9)"/><circle class="cls-8" cx="108.12" cy="66.27" r="3.47" transform="translate(-6.24 11.47) rotate(-5.9)"/><circle class="cls-8" cx="12.96" cy="90.05" r="3.47" transform="translate(-9.19 1.81) rotate(-5.9)"/><circle class="cls-8" cx="26.76" cy="88.62" r="3.47" transform="translate(-8.97 3.22) rotate(-5.9)"/><circle class="cls-8" cx="40.56" cy="87.19" r="3.47" transform="translate(-8.75 4.63) rotate(-5.9)"/><circle class="cls-8" cx="54.36" cy="85.77" r="3.47" transform="translate(-8.53 6.04) rotate(-5.9)"/><circle class="cls-8" cx="68.15" cy="84.34" r="3.47" transform="translate(-8.31 7.45) rotate(-5.9)"/><circle class="cls-8" cx="81.95" cy="82.92" r="3.47" transform="translate(-8.09 8.86) rotate(-5.9)"/><circle class="cls-8" cx="95.75" cy="81.49" r="3.47" transform="translate(-7.87 10.27) rotate(-5.9)"/><circle class="cls-8" cx="109.55" cy="80.07" r="3.47" transform="translate(-7.65 11.68) rotate(-5.9)"/><circle class="cls-8" cx="14.39" cy="103.84" r="3.47" transform="translate(-10.6 2.03) rotate(-5.9)"/><circle class="cls-8" cx="28.19" cy="102.42" r="3.47" transform="translate(-10.38 3.44) rotate(-5.9)"/><circle class="cls-8" cx="41.98" cy="100.99" r="3.47" transform="translate(-10.16 4.85) rotate(-5.9)"/><circle class="cls-8" cx="55.78" cy="99.57" r="3.47" transform="translate(-9.94 6.26) rotate(-5.9)"/><circle class="cls-8" cx="69.58" cy="98.14" r="3.47" transform="translate(-9.72 7.67) rotate(-5.9)"/><circle class="cls-8" cx="83.38" cy="96.71" r="3.47" transform="translate(-9.5 9.08) rotate(-5.9)"/><circle class="cls-8" cx="97.18" cy="95.29" r="3.47" transform="translate(-9.28 10.49) rotate(-5.9)"/><circle class="cls-8" cx="110.97" cy="93.86" r="3.47" transform="translate(-9.06 11.9) rotate(-5.9)"/><circle class="cls-8" cx="12.02" cy="13.44" r="3.47" transform="translate(-1.32 1.31) rotate(-5.9)"/><circle class="cls-8" cx="25.82" cy="12.02" r="3.47" transform="translate(-1.1 2.72) rotate(-5.9)"/><circle class="cls-8" cx="39.61" cy="10.59" r="3.47" transform="translate(-0.88 4.13) rotate(-5.9)"/><circle class="cls-8" cx="53.41" cy="9.17" r="3.47" transform="translate(-0.66 5.54) rotate(-5.9)"/><circle class="cls-8" cx="67.21" cy="7.74" r="3.47" transform="translate(-0.44 6.95) rotate(-5.9)"/><circle class="cls-8" cx="81.01" cy="6.31" r="3.47" transform="translate(-0.22 8.36) rotate(-5.9)"/><circle class="cls-8" cx="94.81" cy="4.89" r="3.47" transform="translate(0 9.77) rotate(-5.9)"/><circle class="cls-8" cx="108.6" cy="3.46" r="3.47" transform="translate(0.22 11.18) rotate(-5.9)"/><circle class="cls-8" cx="13.44" cy="27.24" r="3.47" transform="translate(-2.73 1.53) rotate(-5.9)"/><circle class="cls-8" cx="27.24" cy="25.82" r="3.47" transform="translate(-2.51 2.94) rotate(-5.9)"/><circle class="cls-8" cx="41.04" cy="24.39" r="3.47" transform="translate(-2.29 4.35) rotate(-5.9)"/><circle class="cls-8" cx="54.84" cy="22.96" r="3.47" transform="translate(-2.07 5.76) rotate(-5.9)"/><circle class="cls-8" cx="68.64" cy="21.54" r="3.47" transform="translate(-1.85 7.17) rotate(-5.9)"/><circle class="cls-8" cx="82.43" cy="20.11" r="3.47" transform="translate(-1.63 8.58) rotate(-5.9)"/><circle class="cls-8" cx="96.23" cy="18.69" r="3.47" transform="translate(-1.41 9.99) rotate(-5.9)"/><circle class="cls-8" cx="110.03" cy="17.26" r="3.47" transform="translate(-1.19 11.4) rotate(-5.9)"/><circle class="cls-8" cx="14.87" cy="41.04" r="3.47" transform="translate(-4.14 1.75) rotate(-5.9)"/><circle class="cls-8" cx="28.67" cy="39.61" r="3.47" transform="translate(-3.92 3.16) rotate(-5.9)"/><circle class="cls-8" cx="42.47" cy="38.19" r="3.47" transform="translate(-3.7 4.57) rotate(-5.9)"/><circle class="cls-8" cx="56.26" cy="36.76" r="3.47" transform="translate(-3.48 5.98) rotate(-5.9)"/><circle class="cls-8" cx="70.06" cy="35.34" r="3.47" transform="translate(-3.26 7.39) rotate(-5.9)"/><circle class="cls-8" cx="83.86" cy="33.91" r="3.47" transform="translate(-3.04 8.8) rotate(-5.9)"/><circle class="cls-8" cx="97.66" cy="32.49" r="3.47" transform="translate(-2.82 10.21) rotate(-5.9)"/><circle class="cls-8" cx="111.46" cy="31.06" r="3.47" transform="translate(-2.6 11.62) rotate(-5.9)"/><circle class="cls-8" cx="16.3" cy="54.84" r="3.47" transform="translate(-5.55 1.97) rotate(-5.9)"/><circle class="cls-8" cx="30.09" cy="53.41" r="3.47" transform="translate(-5.33 3.38) rotate(-5.9)"/><circle class="cls-8" cx="43.89" cy="51.99" r="3.47" transform="translate(-5.11 4.79) rotate(-5.9)"/><circle class="cls-8" cx="57.69" cy="50.56" r="3.47" transform="translate(-4.89 6.2) rotate(-5.9)"/><circle class="cls-8" cx="71.49" cy="49.13" r="3.47" transform="translate(-4.67 7.61) rotate(-5.9)"/><circle class="cls-8" cx="85.29" cy="47.71" r="3.47" transform="translate(-4.45 9.02) rotate(-5.9)"/><circle class="cls-8" cx="99.08" cy="46.28" r="3.47" transform="translate(-4.23 10.43) rotate(-5.9)"/><circle class="cls-8" cx="112.88" cy="44.86" r="3.47" transform="translate(-4.01 11.84) rotate(-5.9)"/><circle class="cls-8" cx="17.72" cy="68.64" r="3.47" transform="translate(-6.96 2.19) rotate(-5.9)"/><circle class="cls-8" cx="31.52" cy="67.21" r="3.47" transform="translate(-6.74 3.6) rotate(-5.9)"/><circle class="cls-8" cx="45.32" cy="65.78" r="3.47" transform="translate(-6.52 5.01) rotate(-5.9)"/><circle class="cls-8" cx="59.12" cy="64.36" r="3.47" transform="translate(-6.3 6.42) rotate(-5.9)"/><circle class="cls-8" cx="72.91" cy="62.93" r="3.47" transform="translate(-6.08 7.83) rotate(-5.9)"/><circle class="cls-8" cx="86.71" cy="61.51" r="3.47" transform="translate(-5.86 9.24) rotate(-5.9)"/><circle class="cls-8" cx="100.51" cy="60.08" r="3.47" transform="translate(-5.64 10.65) rotate(-5.9)"/><circle class="cls-8" cx="114.31" cy="58.66" r="3.47" transform="translate(-5.42 12.06) rotate(-5.9)"/><circle class="cls-8" cx="19.15" cy="82.43" r="3.47" transform="translate(-8.37 2.4) rotate(-5.9)"/><circle class="cls-8" cx="32.95" cy="81.01" r="3.47" transform="translate(-8.15 3.82) rotate(-5.9)"/><circle class="cls-8" cx="46.74" cy="79.58" r="3.47" transform="translate(-7.93 5.23) rotate(-5.9)"/><circle class="cls-8" cx="60.54" cy="78.16" r="3.47" transform="translate(-7.71 6.64) rotate(-5.9)"/><circle class="cls-8" cx="74.34" cy="76.73" r="3.47" transform="translate(-7.49 8.05) rotate(-5.9)"/><circle class="cls-8" cx="88.14" cy="75.3" r="3.47" transform="translate(-7.27 9.46) rotate(-5.9)"/><circle class="cls-8" cx="101.94" cy="73.88" r="3.47" transform="translate(-7.05 10.87) rotate(-5.9)"/><circle class="cls-8" cx="115.73" cy="72.45" r="3.47" transform="translate(-6.83 12.28) rotate(-5.9)"/><circle class="cls-8" cx="20.57" cy="96.23" r="3.47" transform="translate(-9.78 2.62) rotate(-5.9)"/><circle class="cls-8" cx="34.37" cy="94.81" r="3.47" transform="translate(-9.56 4.04) rotate(-5.9)"/><circle class="cls-8" cx="48.17" cy="93.38" r="3.47" transform="translate(-9.34 5.45) rotate(-5.9)"/><circle class="cls-8" cx="61.97" cy="91.95" r="3.47" transform="translate(-9.12 6.86) rotate(-5.9)"/><circle class="cls-8" cx="75.77" cy="90.53" r="3.47" transform="translate(-8.9 8.27) rotate(-5.9)"/><circle class="cls-8" cx="89.56" cy="89.1" r="3.47" transform="translate(-8.68 9.68) rotate(-5.9)"/><circle class="cls-8" cx="103.36" cy="87.68" r="3.47" transform="translate(-8.46 11.09) rotate(-5.9)"/><circle class="cls-8" cx="117.16" cy="86.25" r="3.47" transform="translate(-8.25 12.5) rotate(-5.9)"/><circle class="cls-8" cx="22" cy="110.03" r="3.47" transform="translate(-11.19 2.84) rotate(-5.9)"/><circle class="cls-8" cx="35.8" cy="108.6" r="3.47" transform="translate(-10.97 4.25) rotate(-5.9)"/><circle class="cls-8" cx="49.6" cy="107.18" r="3.47" transform="translate(-10.75 5.67) rotate(-5.9)"/><circle class="cls-8" cx="63.39" cy="105.75" r="3.47" transform="translate(-10.53 7.08) rotate(-5.9)"/><circle class="cls-8" cx="77.19" cy="104.33" r="3.47" transform="translate(-10.31 8.49) rotate(-5.9)"/><circle class="cls-8" cx="90.99" cy="102.9" r="3.47" transform="translate(-10.1 9.9) rotate(-5.9)"/><circle class="cls-8" cx="104.79" cy="101.47" r="3.47" transform="translate(-9.88 11.31) rotate(-5.9)"/><circle class="cls-8" cx="118.59" cy="100.05" r="3.47" transform="translate(-9.66 12.72) rotate(-5.9)"/></g></g><path class="cls-9" d="M107.8,35.35l-6.52,15-.74-9L91.84,38,87,49.2l-1.1-13.4-11.08.58,0,12.48s-4.45-13.12-20.53-11.8S35.78,53.42,35.78,53.42L34.09,41.09l-8.66,5.43,1.91,15L20.91,53l-6.79,3.59,2.19,10.27L9.63,59.29l-8.1,4L20.9,89.72l8.32-1.36-2.58-15,7.5,9.16L40.33,80l-.44-5.36s5.52,9.66,18.83,7.55S77.44,67.87,77.44,67.87l1.44,9.32,8.43,0L92,64.64l1.33,12,10.1-.16L117.37,41ZM56.67,69.58c-3.88.32-7.38-3.62-7.81-8.8s2.38-9.64,6.26-10,7.38,3.62,7.81,8.8S60.55,69.26,56.67,69.58Z"/><path class="cls-10" d="M107.8,35.35l-6.52,15-.74-9L91.84,38,87,49.2l-1.1-13.4-11.08.58,0,12.48s-4.45-13.12-20.53-11.8S35.78,53.42,35.78,53.42L34.09,41.09l-8.66,5.43,1.91,15L20.91,53l-6.79,3.59,2.19,10.27L9.63,59.29l-8.1,4L20.9,89.72l8.32-1.36-2.58-15,7.5,9.16L40.33,80l-.44-5.36s5.52,9.66,18.83,7.55S77.44,67.87,77.44,67.87l1.44,9.32,8.43,0L92,64.64l1.33,12,10.1-.16L117.37,41ZM56.67,69.58c-3.88.32-7.38-3.62-7.81-8.8s2.38-9.64,6.26-10,7.38,3.62,7.81,8.8S60.55,69.26,56.67,69.58Z"/><path class="cls-3" d="M52.16,34.06l1.55-3.44a.67.67,0,0,1,1.23,0l1.55,3.44,3.44,1.55a.67.67,0,0,1,0,1.23l-3.44,1.55-1.55,3.44a.67.67,0,0,1-1.23,0l-1.55-3.44-3.44-1.55a.67.67,0,0,1,0-1.23Z"/><path class="cls-3" d="M101.16,74.06l1.55-3.44a.67.67,0,0,1,1.23,0l1.55,3.44,3.44,1.55a.67.67,0,0,1,0,1.23l-3.44,1.55-1.55,3.44a.67.67,0,0,1-1.23,0l-1.55-3.44-3.44-1.55a.67.67,0,0,1,0-1.23Z"/></svg>