<?xml version="1.0" ?><svg data-name="Layer 1" id="Layer_1" viewBox="0 0 128 128" xmlns="http://www.w3.org/2000/svg"><defs><style>.cls-1{fill:#d8d8dd;}.cls-2{fill:#515570;}.cls-3,.cls-5{fill:#393c54;}.cls-4{fill:#00adfe;}.cls-5{opacity:0.2;}</style></defs><title/><circle class="cls-1" cx="64.61" cy="64" r="57"/><circle class="cls-2" cx="64.61" cy="64" r="52.5"/><path class="cls-3" d="M93.44,37.83c-.06.92,3.51,47,5,66.29A52.38,52.38,0,0,0,117.11,64q0-1.33-.07-2.63l-.51-1.29S93.52,36.66,93.44,37.83Z"/><path class="cls-3" d="M74.69,115.52a52.21,52.21,0,0,0,20.52-8.88l-4.07-51.7L56.07,63.21Z"/><path class="cls-3" d="M64.61,116.5c1.28,0,2.55-.06,3.8-.15L46.61,42.5,35,43l8.65,28-15,2-8,19.56q1.45,2.23,3.11,4.3l.06.07q.79,1,1.63,1.93l.11.13q.88,1,1.81,1.93A52.33,52.33,0,0,0,64.61,116.5Z"/><path class="cls-4" d="M6.65,68.6,19.74,91.73a2,2,0,0,0,1.6,1l10.19.69V77.18L41.8,91.72l10.15-2.17a2,2,0,0,0,1.56-2.24L47.2,43.95a2,2,0,0,0-2.12-1.71l-7.92.57a2,2,0,0,0-1.83,2.33l3.9,22.63-10.47-7a2,2,0,0,0-3,1.18L23,72.9,17.74,58.74a2,2,0,0,0-3.35-.66L6.92,66.26A2,2,0,0,0,6.65,68.6Z"/><path class="cls-4" d="M54.42,40.81l30.39-7.6a2,2,0,0,1,2.45,1.56L90.77,53a2,2,0,0,1-1.54,2.33L79.17,57.51l4.7,22.7a2,2,0,0,1-1.69,2.39l-8.74,1.17a2,2,0,0,1-2.24-1.7L68,60.07l-9.83,2.58A2,2,0,0,1,55.73,61l-2.8-18A2,2,0,0,1,54.42,40.81Z"/><path class="cls-4" d="M93.76,39.36,101.56,76A2,2,0,0,0,104,77.53L110.2,76a2,2,0,0,0,1.42-2.54L108,61.78l8.58-2.32A2,2,0,0,0,118,57.24l-.74-5a2,2,0,0,0-2.5-1.64l-6.5,1.75-2-9.37,8.28-3.28a2,2,0,0,0,1.17-2.46l-2.09-6.67a2,2,0,0,0-2.78-1.2l-16,7.79A2,2,0,0,0,93.76,39.36Z"/><path class="cls-5" d="M106.27,43l-3.47,1.52a1,1,0,0,0,.16,1.89l4.28,1.06Z"/><path class="cls-5" d="M108,61.78l-2.18.61a1,1,0,0,0-.27,1.8l4.83,3.11Z"/><path class="cls-5" d="M79.17,57.51l-6.54,1.6a1,1,0,0,0-.34,1.79l10.32,7.23Z"/><path class="cls-5" d="M31.54,93.43,27.28,81.86A2,2,0,0,1,28,79.5l3.49-2.32L35,91Z"/></svg>