<?xml version="1.0" ?><svg data-name="Layer 1" id="Layer_1" viewBox="0 0 128 128" xmlns="http://www.w3.org/2000/svg" xmlns:xlink="http://www.w3.org/1999/xlink"><defs><style>.cls-1{fill:none;}.cls-2{fill:#f85565;}.cls-3{fill:#515570;}.cls-4{opacity:0.7;}.cls-5{clip-path:url(#clip-path);}.cls-6,.cls-9{opacity:0.2;}.cls-11,.cls-7,.cls-9{fill:#393c54;}.cls-8{fill:#fff;}.cls-10{fill:#00adfe;}.cls-11{opacity:0.3;}.cls-12{fill:#f8dc25;}.cls-13,.cls-17{fill:#f2bc0f;}.cls-14,.cls-17{opacity:0.4;}.cls-15{fill:#d8d8dd;}.cls-16{fill:#9fa0ac;opacity:0.5;}.cls-18{opacity:0.6;}.cls-19{clip-path:url(#clip-path-2);}</style><clipPath id="clip-path"><path class="cls-1" d="M62.94,85A33.55,33.55,0,0,0,3.33,55.65a23.92,23.92,0,0,1,7.59-1.24c13.23,0,22,10.73,22,24L31.37,87Z"/></clipPath><clipPath id="clip-path-2"><path class="cls-1" d="M218.67,363.65c-19.06-13.76-38-27.32-52.64-30.76-6.29-1.64-10.54-1.12-13.2,3.51h0c-1,1.71-2.24,5.1-2.24,10.64a155.42,155.42,0,0,0,4.91,39.25c2.25,8,8,12.45,15.86,9.77C188.69,389.63,204.21,376.89,218.67,363.65Z"/></clipPath></defs><title/><path class="cls-2" d="M65.65,85a33.55,33.55,0,0,1,59.61-29.31,23.92,23.92,0,0,0-7.59-1.24c-13.23,0-22,10.73-22,24L97.22,87Z"/><path class="cls-3" d="M62.94,85A33.55,33.55,0,0,0,3.33,55.65a23.92,23.92,0,0,1,7.59-1.24c13.23,0,22,10.73,22,24L31.37,87Z"/><g class="cls-4"><g class="cls-5"><g class="cls-6"><path class="cls-7" d="M43.53,80.68c-3.26-18.08-17.94-30.56-36-27.3"/><path class="cls-8" d="M10.66,85.26a18.89,18.89,0,0,1,2.53-.61q1.25-.2,2.59-.27c-.73.41-1.54.83-2.34,1.2s-1.6.69-2.38,1q-1.34,0-2.61.21a16.76,16.76,0,0,0-2.51.49,24.32,24.32,0,0,0,2.42-.89C9.17,86,9.89,85.68,10.66,85.26Z"/><path class="cls-8" d="M20.82,81a22,22,0,0,1,2.75,0q1.35.08,2.77.29c-.67.6-1.44,1.21-2.2,1.76s-1.51,1.06-2.27,1.52q-1.39-.24-2.72-.35a18.32,18.32,0,0,0-2.66-.07q1.12-.66,2.24-1.46C19.48,82.16,20.13,81.65,20.82,81Z"/><path class="cls-8" d="M31,76.84a27.43,27.43,0,0,1,3,.54q1.45.36,3,.86a28.52,28.52,0,0,1-2,2.32q-1.07,1.11-2.15,2.08-1.44-.52-2.84-.91a21.81,21.81,0,0,0-2.81-.63q1-.94,2.05-2A29.07,29.07,0,0,0,31,76.84Z"/><path class="cls-8" d="M41.14,72.62c1,.33,2.17.68,3.19,1.11s2.08.9,3.14,1.42A30.9,30.9,0,0,1,45.56,78q-1,1.38-2,2.64-1.49-.8-3-1.47a27.17,27.17,0,0,0-3-1.19q1-1.23,1.87-2.59A32.52,32.52,0,0,0,41.14,72.62Z"/><path class="cls-8" d="M51.3,68.41c1.12.51,2.32,1.06,3.41,1.68s2.21,1.28,3.32,2a34.76,34.76,0,0,1-1.76,3.44q-.94,1.66-1.92,3.2-1.54-1.08-3.07-2a34.14,34.14,0,0,0-3.1-1.75q.87-1.51,1.69-3.16C50.43,70.69,50.85,69.58,51.3,68.41Z"/><path class="cls-8" d="M61.47,64.2c1.2.7,2.48,1.45,3.63,2.26s2.33,1.66,3.5,2.56A39.7,39.7,0,0,1,67,73q-.87,1.94-1.8,3.76Q63.59,75.41,62,74.19c-1.06-.82-2.11-1.59-3.25-2.31q.79-1.8,1.51-3.72C60.75,66.87,61.09,65.56,61.47,64.2Z"/><path class="cls-8" d="M71.63,60c1.28.89,2.63,1.84,3.85,2.83s2.46,2,3.68,3.12a45.46,45.46,0,0,1-1.46,4.56q-.81,2.22-1.69,4.32-1.64-1.64-3.3-3.14c-1.1-1-2.2-2-3.39-2.87q.7-2.08,1.33-4.29C71.06,63,71.33,61.53,71.63,60Z"/><path class="cls-8" d="M10.41,84.75a15.81,15.81,0,0,1,2.18-1.32,16.47,16.47,0,0,1,2.39-1,27.2,27.2,0,0,1-4.32,2.86A18.42,18.42,0,0,0,6,87.39c.8-.42,1.51-.74,2.25-1.2S9.76,85.22,10.41,84.75Z"/><path class="cls-8" d="M19.3,78.26a17.89,17.89,0,0,1,2.57-.76A19.25,19.25,0,0,1,24.59,77a28,28,0,0,1-3.77,4,20.76,20.76,0,0,0-5.19,1c.7-.6,1.29-1.13,1.91-1.77A26,26,0,0,0,19.3,78.26Z"/><path class="cls-8" d="M28.18,71.77a22.48,22.48,0,0,1,2.95-.2,24.44,24.44,0,0,1,3.07.11A31.29,31.29,0,0,1,31,76.84a25.75,25.75,0,0,0-5.74-.15,25.24,25.24,0,0,0,1.57-2.34A26,26,0,0,0,28.18,71.77Z"/><path class="cls-8" d="M37.06,65.29a29.34,29.34,0,0,1,3.33.36,31.75,31.75,0,0,1,3.41.68,36.57,36.57,0,0,1-2.66,6.29,33.23,33.23,0,0,0-6.29-1.3,27.07,27.07,0,0,0,1.23-2.91A28.82,28.82,0,0,0,37.06,65.29Z"/><path class="cls-8" d="M45.95,58.8a38,38,0,0,1,3.72.92c1.23.37,2.56.76,3.75,1.25a43.29,43.29,0,0,1-2.11,7.43A42.73,42.73,0,0,0,44.46,66a31,31,0,0,0,.89-3.48A33.52,33.52,0,0,0,45.95,58.8Z"/><path class="cls-8" d="M54.83,52.31c1.42.42,2.71.94,4.1,1.49s2.8,1.15,4.09,1.82a51.06,51.06,0,0,1-1.56,8.58,53.66,53.66,0,0,0-7.4-3.58,36.32,36.32,0,0,0,.55-4.06A39.54,39.54,0,0,0,54.83,52.31Z"/><path class="cls-8" d="M63.71,45.82c1.56.61,3,1.31,4.48,2s3,1.54,4.43,2.4a59.58,59.58,0,0,1-1,9.72,65.45,65.45,0,0,0-8-4.73,42.7,42.7,0,0,0,.2-4.63A46.53,46.53,0,0,0,63.71,45.82Z"/><path class="cls-8" d="M10.68,85a16.37,16.37,0,0,1,3.49-3.71,25.25,25.25,0,0,1-1.78,1.83,20.38,20.38,0,0,1-2,1.64,19.84,19.84,0,0,0-2,1.64,15.59,15.59,0,0,0-1.71,2A23.16,23.16,0,0,0,10.68,85Z"/><path class="cls-8" d="M17.54,76.39a18.88,18.88,0,0,1,4.59-2.69,24.27,24.27,0,0,1-2.84,4.57,23.5,23.5,0,0,0-2.4,1.09,16.12,16.12,0,0,0-2.19,1.41A22.08,22.08,0,0,0,17.54,76.39Z"/><path class="cls-8" d="M24.41,67.8a24.52,24.52,0,0,1,5.69-1.68,27.58,27.58,0,0,1-1.92,5.66,22.42,22.42,0,0,0-5.51,1.41A24.32,24.32,0,0,0,24.41,67.8Z"/><path class="cls-8" d="M31.28,59.2a32.9,32.9,0,0,1,6.8-.67,33.12,33.12,0,0,1-1,6.75,29.55,29.55,0,0,0-6.42.32A29.23,29.23,0,0,0,31.28,59.2Z"/><path class="cls-8" d="M38.15,50.61A43.22,43.22,0,0,1,46,51a40.23,40.23,0,0,1-.1,7.85A38.9,38.9,0,0,0,38.61,58,36.1,36.1,0,0,0,38.15,50.61Z"/><path class="cls-8" d="M45,42a54.67,54.67,0,0,1,9,1.35,48.45,48.45,0,0,1,.82,8.94,49.76,49.76,0,0,0-8.25-1.87A44.3,44.3,0,0,0,45,42Z"/><path class="cls-8" d="M51.88,33.43A66.66,66.66,0,0,1,62,35.79a57.41,57.41,0,0,1,1.73,10,61.44,61.44,0,0,0-9.16-3A53.39,53.39,0,0,0,51.88,33.43Z"/><path class="cls-8" d="M11.66,85.57a17,17,0,0,1,.84-2.47,17.22,17.22,0,0,1,1.18-2.24c-.21.37-.41.71-.64,1.08s-.48.74-.73,1.09a20.36,20.36,0,0,1-1.63,2A16.37,16.37,0,0,0,9.4,87.25q-.27.58-.49,1.17c-.15.4-.3.85-.42,1.28a17.26,17.26,0,0,0,1.75-2A16.48,16.48,0,0,0,11.66,85.57Z"/><path class="cls-8" d="M15.79,75.37a20.18,20.18,0,0,1,1.58-2.13,21.26,21.26,0,0,1,1.89-1.86c-.09.44-.18.85-.3,1.29s-.26.88-.41,1.31a20.78,20.78,0,0,1-1,2.42,17.59,17.59,0,0,0-1.91,1.81q-.43.47-.82,1c-.26.33-.52.71-.76,1.07a18.6,18.6,0,0,0,1-2.39A18.58,18.58,0,0,0,15.79,75.37Z"/><path class="cls-8" d="M19.91,65.17a27.79,27.79,0,0,1,2.32-1.8,29.55,29.55,0,0,1,2.59-1.47c0,.51,0,1,0,1.5s0,1-.08,1.52a24.47,24.47,0,0,1-.38,2.88,22.15,22.15,0,0,0-2.53,1.34q-.59.36-1.15.74c-.37.26-.75.57-1.1.86A24,24,0,0,0,20,68,25,25,0,0,0,19.91,65.17Z"/><path class="cls-8" d="M24,55q1.45-.77,3.07-1.47t3.3-1.09c.14.58.28,1.13.38,1.7s.18,1.17.25,1.74a30.71,30.71,0,0,1,.25,3.35,29.82,29.82,0,0,0-3.16.88q-.76.25-1.47.52c-.48.19-1,.43-1.44.65-.07-1-.19-2.07-.37-3.15S24.36,56,24,55Z"/><path class="cls-8" d="M28.16,44.78Q30,44.16,32,43.64t4-.71c.25.64.51,1.26.72,1.91s.4,1.31.57,2a38.74,38.74,0,0,1,.87,3.81c-1.27.06-2.57.23-3.78.41q-.92.14-1.8.31c-.59.12-1.2.29-1.78.44-.3-1.15-.66-2.33-1.08-3.53S28.74,46,28.16,44.78Z"/><path class="cls-8" d="M32.29,34.58q2.2-.47,4.55-.8t4.71-.33c.37.71.74,1.4,1.06,2.12s.61,1.45.9,2.17c.56,1.45,1.1,2.84,1.5,4.28-1.47-.1-3-.08-4.41-.05q-1.08,0-2.13.09c-.7,0-1.43.15-2.12.23-.53-1.29-1.13-2.6-1.78-3.91S33.11,35.85,32.29,34.58Z"/><path class="cls-8" d="M36.41,24.38q2.58-.31,5.3-.47t5.42.05c.48.78,1,1.54,1.4,2.33s.83,1.59,1.22,2.39c.77,1.59,1.52,3.15,2.13,4.74-1.67-.26-3.39-.4-5-.52q-1.24-.08-2.45-.12c-.81,0-1.65,0-2.46,0-.76-1.42-1.59-2.86-2.49-4.29S37.49,25.76,36.41,24.38Z"/><path class="cls-8" d="M12.9,85.89a19.87,19.87,0,0,1,.62-5.11,16.83,16.83,0,0,1-.75,2.48q-.23.59-.5,1.15c-.18.38-.39.79-.6,1.17s-.19.8-.27,1.24-.15.88-.19,1.32a18.88,18.88,0,0,0-.08,2.61A16.18,16.18,0,0,0,12.9,85.89Z"/><path class="cls-8" d="M13.9,74.93a20.35,20.35,0,0,1,2.2-4.85,19,19,0,0,1,0,2.7q0,.66-.11,1.28c-.05.42-.14.89-.22,1.31s-.44.7-.65,1.1-.4.79-.58,1.19A17.86,17.86,0,0,0,13.69,80,16.46,16.46,0,0,0,13.9,74.93Z"/><path class="cls-8" d="M14.89,64a24.07,24.07,0,0,1,3.78-4.59,24.49,24.49,0,0,1,.82,2.92q.16.72.27,1.41c.08.47.12,1,.16,1.46-.36.32-.69.6-1,1s-.66.7-1,1.06a20.38,20.38,0,0,0-1.65,2.17A20.08,20.08,0,0,0,14.89,64Z"/><path class="cls-8" d="M15.89,53a30.31,30.31,0,0,1,5.35-4.33,32.74,32.74,0,0,1,1.6,3.14q.35.78.66,1.55c.2.51.37,1.08.54,1.61-.49.26-.94.51-1.41.81s-.92.61-1.35.93a26,26,0,0,0-2.43,2A26.82,26.82,0,0,0,15.89,53Z"/><path class="cls-8" d="M16.88,42.07A38.31,38.31,0,0,1,23.81,38c.87,1.07,1.65,2.25,2.39,3.36q.55.84,1,1.68c.33.56.63,1.17.92,1.75-.61.21-1.2.41-1.79.66s-1.17.52-1.74.79A33.94,33.94,0,0,0,21.41,48,35.93,35.93,0,0,0,16.88,42.07Z"/><path class="cls-8" d="M17.88,31.11a47.43,47.43,0,0,1,8.51-3.81c1.13,1.14,2.18,2.38,3.17,3.58q.74.9,1.43,1.81c.46.61.88,1.27,1.3,1.9-.74.16-1.45.31-2.17.51s-1.43.43-2.12.66c-1.39.47-2.72.93-4,1.51A46.54,46.54,0,0,0,17.88,31.11Z"/><path class="cls-8" d="M18.88,20.16A57.25,57.25,0,0,1,29,16.6c1.39,1.2,2.71,2.52,4,3.8q.94,1,1.82,1.94c.59.65,1.13,1.36,1.68,2-.86.11-1.7.21-2.55.37s-1.69.34-2.51.53c-1.65.39-3.24.77-4.79,1.29A57.92,57.92,0,0,0,18.88,20.16Z"/><path class="cls-8" d="M13.36,85.85a19.89,19.89,0,0,1-.3-2.51c0-.87,0-1.77,0-2.58a19,19,0,0,1,.15,2.54,15.46,15.46,0,0,1-.29,2.58,23.11,23.11,0,0,0,.19,2.55A18.2,18.2,0,0,0,13.53,91a12.51,12.51,0,0,0,.11-2.57A20,20,0,0,0,13.36,85.85Z"/><path class="cls-8" d="M11.41,75a24.31,24.31,0,0,1,.4-2.61,25.05,25.05,0,0,1,.7-2.64,23.85,23.85,0,0,1,.9,2.53,17.32,17.32,0,0,1,.49,2.62,21.23,21.23,0,0,0-.59,2.51A20.34,20.34,0,0,0,13,80a12.94,12.94,0,0,0-.61-2.51A23.65,23.65,0,0,0,11.41,75Z"/><path class="cls-8" d="M9.46,64.2q.47-1.33,1.1-2.71A23,23,0,0,1,12,58.79q.91,1.27,1.65,2.52A22.41,22.41,0,0,1,14.89,64a23,23,0,0,0-1.37,2.47A26.47,26.47,0,0,0,12.47,69a15.8,15.8,0,0,0-1.33-2.45Q10.38,65.4,9.46,64.2Z"/><path class="cls-8" d="M7.5,53.38q.82-1.4,1.8-2.82a24.74,24.74,0,0,1,2.14-2.76q1.29,1.25,2.4,2.51a30.46,30.46,0,0,1,2,2.71,27.64,27.64,0,0,0-2.15,2.42q-1,1.31-1.8,2.61a21.09,21.09,0,0,0-2.05-2.39Q8.78,54.51,7.5,53.38Z"/><path class="cls-8" d="M5.55,42.55Q6.71,41.09,8,39.63a28.44,28.44,0,0,1,2.86-2.81q1.66,1.23,3.15,2.5c1,.85,1.95,1.83,2.83,2.75A34.23,34.23,0,0,0,14,44.45q-1.37,1.3-2.56,2.62a28.6,28.6,0,0,0-2.77-2.33Q7.17,43.62,5.55,42.55Z"/><path class="cls-8" d="M3.6,31.73q1.51-1.52,3.19-3a33.41,33.41,0,0,1,3.58-2.87q2,1.21,3.91,2.49c1.24.86,2.47,1.85,3.6,2.79a42.15,42.15,0,0,0-3.71,2.34q-1.74,1.29-3.31,2.63A37.89,37.89,0,0,0,7.37,33.8Q5.56,32.73,3.6,31.73Z"/><path class="cls-8" d="M1.64,20.9q1.86-1.58,3.89-3.12a39.3,39.3,0,0,1,4.3-2.93q2.41,1.19,4.66,2.48c1.5.86,3,1.87,4.38,2.83-1.55.74-3.07,1.44-4.48,2.29s-2.76,1.74-4.06,2.64c-1.39-.83-2.78-1.54-4.21-2.22S3.19,21.53,1.64,20.9Z"/></g></g></g><path class="cls-9" d="M78.78,85.76l0-6.79c3.26-18.08,17.94-30.56,36-27.3a33.21,33.21,0,0,1,10.07,3.56c-.1-.22-.21-.43-.31-.65.25.34.51.68.75,1a23.92,23.92,0,0,0-7.59-1.24c-13.23,0-22,10.73-22,24L97.24,87Z"/><path class="cls-10" d="M90.61,83.29A33.55,33.55,0,0,0,31,54a23.92,23.92,0,0,1,7.59-1.24c13.23,0,22.91,11.75,19.16,24.75L59,85.33Z"/><path class="cls-9" d="M77.5,84.14l0-6.79C74.27,59.27,59.58,46.78,41.5,50A33.21,33.21,0,0,0,31.44,53.6c.1-.22.21-.43.31-.65-.25.34-.51.68-.75,1a15.5,15.5,0,0,1,7.59-.24C51.5,56,57.25,67.25,54,79l5,6.33Z"/><path class="cls-11" d="M50,85.64l0-6.79c-3.26-18.08-17.94-30.56-36-27.3A33.21,33.21,0,0,0,3.94,55.1c.1-.22.21-.43.31-.65-.25.34-.51.68-.75,1a23.92,23.92,0,0,1,7.59-1.24c13.23,0,22,10.73,22,24l-1.6,8.63Z"/><path class="cls-12" d="M29.07,89.89,25.77,76.71a1.59,1.59,0,0,1,2-1.91l13.21,4L44.36,70a1.59,1.59,0,0,1,2.12-.89l16.75,7.28,13.31-9.11a1.59,1.59,0,0,1,2.42.84l2.54,8.26,18.21-3.5a1.59,1.59,0,0,1,1.84,1.95L98.18,88.3H61.64Z"/><path class="cls-12" d="M29.07,89.89,25.77,76.71a1.59,1.59,0,0,1,2-1.91l13.21,4L44.36,70a1.59,1.59,0,0,1,2.12-.89l16.75,7.28,13.31-9.11a1.59,1.59,0,0,1,2.42.84l2.54,8.26,18.21-3.5a1.59,1.59,0,0,1,1.84,1.95L98.18,88.3H61.64Z"/><circle class="cls-13" cx="96.13" cy="78.13" r="2"/><g class="cls-14"><path class="cls-13" d="M96.8,78.44A7.49,7.49,0,0,1,92.17,80c-23.22-.35-45.06.66-64.59,4l1.49,6L61.64,88.3H98.18l3.36-13.45Z"/></g><path class="cls-15" d="M101.17,84.82a339,339,0,0,0-74.1,0,2.53,2.53,0,0,0-2.45,2.29V91.7c0,1.39,1.5,2.46,3.19,2.28a339,339,0,0,1,72.59,0c1.7.18,3.2-.88,3.2-2.28V87.12A2.52,2.52,0,0,0,101.17,84.82Z"/><path class="cls-16" d="M101.17,84.82l-.31,0v4.4c0,1.4-1.51,2.46-3.2,2.28a339,339,0,0,0-72.59,0,3.45,3.45,0,0,1-.44,0v.21c0,1.39,1.5,2.46,3.19,2.28a339,339,0,0,1,72.59,0c1.7.18,3.2-.88,3.2-2.28V87.12A2.52,2.52,0,0,0,101.17,84.82Z"/><circle class="cls-12" cx="4.33" cy="55" r="3.67"/><path class="cls-17" d="M6.21,51.87a3.71,3.71,0,0,1,.41,1.67,3.75,3.75,0,0,1-3.75,3.75,3.71,3.71,0,0,1-1.67-.41,3.66,3.66,0,1,0,5-5Z"/><circle class="cls-12" cx="31.67" cy="53.67" r="3.67"/><path class="cls-17" d="M33.55,50.53A3.71,3.71,0,0,1,34,52.21,3.75,3.75,0,0,1,30.21,56a3.71,3.71,0,0,1-1.67-.41,3.66,3.66,0,1,0,5-5Z"/><circle class="cls-12" cx="123.67" cy="55" r="3.67"/><path class="cls-17" d="M125.55,51.87a3.71,3.71,0,0,1,.41,1.67,3.75,3.75,0,0,1-3.75,3.75,3.71,3.71,0,0,1-1.67-.41,3.66,3.66,0,1,0,5-5Z"/><circle class="cls-13" cx="48.13" cy="76.13" r="2"/><circle class="cls-13" cx="75.13" cy="75.13" r="2"/><circle class="cls-13" cx="31.13" cy="80.13" r="2"/><g class="cls-18"><g class="cls-19"><g class="cls-18"><path class="cls-10" d="M56.32,396.63q-2.49-3.35-5.06-6.6c62.25-62.53,102.9-168,80.3-288.9q5.45,2.49,10.86,5.13C162.66,228.36,120.07,334.18,56.32,396.63Z"/><path class="cls-10" d="M66,410.47q-2.32-3.57-4.74-7C126.5,341.1,171,235,153.2,111.69q5.37,2.79,10.7,5.73C179.32,241.88,132.79,348.27,66,410.47Z"/><path class="cls-10" d="M74.9,425.15q-2.14-3.77-4.38-7.45c68.41-62,117-168.65,104-294.25q5.28,3.09,10.5,6.34C195.5,256.5,144.91,363.32,74.9,425.15Z"/></g></g></g></svg>