<?xml version="1.0" ?><svg data-name="Layer 1" id="Layer_1" viewBox="0 0 128 128" xmlns="http://www.w3.org/2000/svg" xmlns:xlink="http://www.w3.org/1999/xlink"><defs><style>.cls-1,.cls-7{fill:none;}.cls-2{fill:#f8dc25;}.cls-10,.cls-3,.cls-5{fill:#f2bc0f;}.cls-3{opacity:0.5;}.cls-4{fill:#515570;}.cls-5{opacity:0.4;}.cls-6{fill:#f85565;}.cls-7{stroke:#515570;stroke-linecap:round;stroke-linejoin:round;stroke-width:2px;}.cls-8{fill:#393c54;opacity:0.2;}.cls-9{fill:#fff;}.cls-11{opacity:0.6;}.cls-12{clip-path:url(#clip-path);}.cls-13{fill:#00adfe;}.cls-14{clip-path:url(#clip-path-2);}</style><clipPath id="clip-path"><path class="cls-1" d="M70.67,363.65c-19.06-13.76-38-27.32-52.64-30.76-6.29-1.64-10.54-1.12-13.2,3.51h0c-1,1.71-2.24,5.1-2.24,10.64A155.42,155.42,0,0,0,7.5,386.3c2.25,8,8,12.45,15.86,9.77C40.69,389.63,56.21,376.89,70.67,363.65Z"/></clipPath><clipPath id="clip-path-2"><path class="cls-1" d="M57.36,363.63c18.48-15.4,36.72-30,54-37.07,7.84-2.31,12.84,2.94,13.8,9,.47,17.22-.21,32.92-3.12,45.67-2.59,7.52-7.84,11.77-15.3,10.52C90.15,387.93,73.7,376.4,57.36,363.63Z"/></clipPath></defs><title/><path class="cls-2" d="M115,50.24c-10.77,18-28.08,27.49-28.08,27.49S87,58,97.81,40c8.35-14,20.63-22.8,25.73-26.07a1.37,1.37,0,0,1,2.21,1.32C125.28,21.27,123.32,36.27,115,50.24Z"/><path class="cls-3" d="M111.37,55.65C102.64,61,92,63,89.13,61.83q-.2.86-.38,1.69h0A81.27,81.27,0,0,0,86.92,77v0c0,.13,0,.24,0,.33v0c0,.08,0,.14,0,.18v.1A84.43,84.43,0,0,0,111.37,55.65Z"/><path class="cls-4" d="M125.74,15.23a1.37,1.37,0,0,0-2.21-1.32A87.62,87.62,0,0,0,107,27.82c2.5.84,5.53,2.24,7.09,4.42,2.07,2.88,3.51,8.29,2.67,14.81A84.87,84.87,0,0,0,125.74,15.23Z"/><path class="cls-2" d="M26,58.16c16.47,13,36,15.7,36,15.7s-7.16-18.39-23.63-31.4C25.6,32.37,11,28.49,5.05,27.25a1.37,1.37,0,0,0-1.59,2C6,34.75,13.21,48.07,26,58.16Z"/><path class="cls-3" d="M55.87,62.25a82.55,82.55,0,0,1-16.51,4.24A83.58,83.58,0,0,0,62,73.86a75.53,75.53,0,0,0-6.13-11.61Z"/><path class="cls-4" d="M3.46,29.27a1.37,1.37,0,0,1,1.59-2,87.62,87.62,0,0,1,20.41,7.11c-2,1.67-4.37,4.06-5.06,6.65-.91,3.43-.33,9,2.77,14.79A84.87,84.87,0,0,1,3.46,29.27Z"/><path class="cls-2" d="M109.74,93.09c1,12.72-4.3,14.86-24.59,16.27s-47.86,1.55-48.89-11.17c-1.53-18.73,13.69-35,34-36.46S108.21,74.36,109.74,93.09Z"/><path class="cls-5" d="M109.74,93.09a31.83,31.83,0,0,0-.55-3.81c-.17,8.83-7,11.31-25.3,14.26-14.14,2.28-31.64,4.27-42.9,1.66,8.92,5.57,28.65,5.24,44.15,4.17C105.43,108,110.77,105.81,109.74,93.09Z"/><path class="cls-6" d="M43.88,87.58a12.19,12.19,0,0,0-7.2,2.32,31.47,31.47,0,0,0-.42,8.29c.42,5.2,5.29,8.25,12.28,9.94a10.74,10.74,0,0,0,7-9.83C55.5,92.38,50.3,87.58,43.88,87.58Z"/><path class="cls-7" d="M82.59,92.88s-.94,2.62-4.76,2.62S73,92.88,73,92.88s-1,2.62-4.83,2.62-4.76-2.62-4.76-2.62"/><path class="cls-8" d="M48.54,108.13a11.81,11.81,0,0,0,3-1.74A54.34,54.34,0,0,1,41,105.2,25.93,25.93,0,0,0,48.54,108.13Z"/><path class="cls-4" d="M72.55,90.28l-2.64-2.71a1,1,0,0,1,.72-1.7H76a1,1,0,0,1,.7,1.72L74,90.3A1,1,0,0,1,72.55,90.28Z"/><path class="cls-6" d="M90.5,98.31a10.72,10.72,0,0,0,6.83,9.77c10.3-1.77,13.19-5.34,12.4-15a31.86,31.86,0,0,0-.43-3.21,12.19,12.19,0,0,0-7.18-2.3C95.7,87.58,90.5,92.38,90.5,98.31Z"/><path class="cls-8" d="M109.74,93.09a31.86,31.86,0,0,0-.43-3.21l-.14-.1c-.36,7.13-5.39,10-17.86,12.44a11.2,11.2,0,0,0,6,5.85C107.63,106.3,110.52,102.74,109.74,93.09Z"/><circle class="cls-4" cx="86.5" cy="82.5" r="5"/><circle class="cls-9" cx="85" cy="81" r="1.5"/><circle class="cls-4" cx="59.5" cy="82.5" r="5"/><circle class="cls-9" cx="58" cy="81" r="1.5"/><path class="cls-4" d="M77.83,95.5C74,95.5,73,92.88,73,92.88s-1,2.62-4.83,2.62A7.26,7.26,0,0,1,67,95.41c0,.19,0,.39,0,.59,0,3.31,2.69,5,6,5s6-1.69,6-5c0-.2,0-.4,0-.59A7.26,7.26,0,0,1,77.83,95.5Z"/><path class="cls-6" d="M69,99.91A7.12,7.12,0,0,0,73,101c2.7,0,5-1.12,5.74-3.34a6.84,6.84,0,0,0-4.24-1.33C71.51,96.33,69.08,97.93,69,99.91Z"/><path class="cls-10" d="M70.06,31,65.62,44.08a1.41,1.41,0,0,0,1.62,1.83l3.12-.64.38,6.35a.7.7,0,0,0,1.37.18L76.44,39a1.41,1.41,0,0,0-1.62-1.83l-3.12.64s-.12-3.77-.27-6.67A.7.7,0,0,0,70.06,31Z"/><g class="cls-11"><g class="cls-12"><g class="cls-11"><path class="cls-13" d="M-82,410.47q-2.32-3.57-4.74-7C-21.5,341.1,23,235,5.2,111.69q5.37,2.79,10.7,5.73C31.32,241.88-15.21,348.27-82,410.47Z"/><path class="cls-13" d="M-73.1,425.15q-2.14-3.77-4.38-7.45c68.41-62,117-168.65,104-294.25q5.28,3.09,10.5,6.34C47.5,256.5-3.09,363.32-73.1,425.15Z"/></g></g></g><g class="cls-11"><g class="cls-14"><g class="cls-11"><path class="cls-13" d="M16,386.35q-2.21-3-4.49-5.85C66.81,325,102.9,231.34,82.83,124q4.84,2.21,9.64,4.55C110.44,237,72.63,330.91,16,386.35Z"/></g></g></g></svg>