<?xml version="1.0" ?><svg data-name="Layer 1" id="Layer_1" viewBox="0 0 128 128" xmlns="http://www.w3.org/2000/svg"><defs><style>.cls-1{fill:#4bc190;}.cls-2,.cls-3{fill:#393c54;}.cls-2{opacity:0.2;}.cls-3{opacity:0.4;}.cls-4{fill:#fff;}.cls-5{fill:#7cdbcd;}</style></defs><title/><path class="cls-1" d="M76.12,97.56a62.72,62.72,0,0,1,2.62-22A55.65,55.65,0,0,1,109,40.4l3.82,8.07C82.25,63,84.88,95.33,85,96.7Z"/><path class="cls-2" d="M112.84,48.47,109,40.4c-1.25.59-2.46,1.24-3.65,1.9l2.83,5.25C79.37,63.07,82.43,93.67,82.85,96.91L85,96.7C84.88,95.33,82.25,63,112.84,48.47Z"/><path class="cls-3" d="M109,40.4A58.89,58.89,0,0,0,96,48.8a17.9,17.9,0,0,0,5.1,7.36,50,50,0,0,1,11.77-7.69Z"/><circle class="cls-1" cx="112.71" cy="42.65" r="14.29"/><path class="cls-2" d="M124.7,34.9A14.27,14.27,0,0,1,98.94,46.38,14.28,14.28,0,1,0,124.7,34.9Z"/><circle class="cls-4" cx="118.96" cy="35.51" r="1.79"/><path class="cls-5" d="M101.1,42.65A9.27,9.27,0,0,1,101.5,38,10.65,10.65,0,0,1,104,34a10.5,10.5,0,0,1,4-2.53,9.09,9.09,0,0,1,4.65-.38,1.82,1.82,0,0,1,.15,3.53l-.15,0a14.1,14.1,0,0,0-2.86,1.12,10.33,10.33,0,0,0-2.33,1.72,9.93,9.93,0,0,0-1.74,2.32,13.16,13.16,0,0,0-1.1,2.87l0,.14a1.81,1.81,0,0,1-3.53-.14Z"/><path class="cls-1" d="M63.73,96.89A62.72,62.72,0,0,0,56,76.09,55.65,55.65,0,0,0,18.36,49l-1.82,8.74c33.13,6.91,38.16,39,38.36,40.36Z"/><path class="cls-2" d="M16.53,57.79,18.36,49c1.36.28,2.69.62,4,1L20.84,55.8c31.65,8.32,35.85,38.8,36.21,42l-2.16.31C54.69,96.78,49.66,64.7,16.53,57.79Z"/><path class="cls-3" d="M18.36,49A58.89,58.89,0,0,1,33,54.15a17.9,17.9,0,0,1-3.23,8.35,50,50,0,0,0-13.25-4.71Z"/><circle class="cls-1" cx="15.29" cy="52.1" r="14.29" transform="translate(-37.14 37.97) rotate(-58.56)"/><path class="cls-2" d="M1.82,47.38A14.27,14.27,0,0,0,29.56,52.5,14.28,14.28,0,1,1,1.82,47.38Z"/><circle class="cls-4" cx="23.94" cy="48.71" r="1.79" transform="translate(-30.11 43.72) rotate(-58.56)"/><path class="cls-5" d="M19.48,45.24a13.16,13.16,0,0,0-3-.56,9.93,9.93,0,0,0-2.89.27A10.33,10.33,0,0,0,10.88,46a14.1,14.1,0,0,0-2.45,1.86L8.32,48a1.82,1.82,0,0,1-2.93-2,9.09,9.09,0,0,1,2.75-3.77,10.5,10.5,0,0,1,4.27-2.13,10.65,10.65,0,0,1,4.77,0,9.27,9.27,0,0,1,4.17,2.09,1.81,1.81,0,0,1-1.72,3.09Z"/></svg>