<?xml version="1.0" ?><svg data-name="Layer 1" id="Layer_1" viewBox="0 0 128 128" xmlns="http://www.w3.org/2000/svg"><defs><style>.cls-1{fill:#f2bc0f;}.cls-2{fill:#f8dc25;}.cls-3{opacity:0.5;}.cls-4,.cls-5,.cls-7,.cls-9{fill:#fff;}.cls-4{opacity:0.4;}.cls-6{fill:#f85565;}.cls-7{opacity:0.15;}.cls-8{fill:#393c54;opacity:0.2;}.cls-9{opacity:0.3;}</style></defs><title/><path class="cls-1" d="M73.87,65.49l22-24.85a2.22,2.22,0,0,1,3.47,0l17.54,24.85"/><path class="cls-1" d="M11.14,65.49,28.68,40.63a2.22,2.22,0,0,1,3.47,0l22,24.85"/><path class="cls-2" d="M118.71,42.91,96.14,60.78,65.71,24a2.22,2.22,0,0,0-3.41,0L31.86,60.78,9.29,42.91A2.22,2.22,0,0,0,5.7,44.84L10.63,102a2.22,2.22,0,0,0,2.21,2H115.16a2.22,2.22,0,0,0,2.21-2l4.93-57.14A2.22,2.22,0,0,0,118.71,42.91Z"/><g class="cls-3"><path class="cls-1" d="M115.9,69.46C104.73,90.7,88.33,96.8,70.71,99.74L31.86,104h83.3a2.22,2.22,0,0,0,2.21-2L121.16,58Z"/></g><path class="cls-4" d="M9.29,42.91A2.22,2.22,0,0,0,5.7,44.84L10.63,102a300.29,300.29,0,0,1,1.19-57.06Z"/><path class="cls-5" d="M94.16,58.06l1.55-3.44a.67.67,0,0,1,1.23,0l1.55,3.44,3.44,1.55a.67.67,0,0,1,0,1.23l-3.44,1.55-1.55,3.44a.67.67,0,0,1-1.23,0l-1.55-3.44-3.44-1.55a.67.67,0,0,1,0-1.23Z"/><polygon class="cls-6" points="51.81 62.75 51.81 81.6 64 88.56 76.12 81.61 76.19 62.75 64 55.71 51.81 62.75"/><polygon class="cls-7" points="56.24 66.17 56.24 78.17 64 82.8 71.76 78.34 71.76 66.17 64 61.7 56.24 66.17"/><polygon class="cls-8" points="76.12 81.61 71.76 78.34 64 82.8 64 88.56 76.12 81.61"/><polygon class="cls-9" points="64 55.71 64 61.7 56.24 66.17 51.81 62.75 64 55.71"/></svg>