<?xml version="1.0" ?><svg data-name="Layer 1" id="Layer_1" viewBox="0 0 128 128" xmlns="http://www.w3.org/2000/svg" xmlns:xlink="http://www.w3.org/1999/xlink"><defs><style>.cls-1,.cls-5{fill:none;}.cls-2{fill:#f85565;}.cls-3{opacity:0.2;}.cls-4{fill:#393c54;}.cls-5{stroke:#393c54;stroke-linecap:round;stroke-miterlimit:10;stroke-width:3px;}.cls-6{fill:#fff;}.cls-7{fill:#356cb6;}.cls-8{opacity:0.6;}.cls-9{clip-path:url(#clip-path);}</style><clipPath id="clip-path"><path class="cls-1" d="M-238.64,215.63c18.48-15.4,36.72-30,54-37.07,7.84-2.31,12.84,2.94,13.8,9,.47,17.22-.21,32.92-3.12,45.67-2.59,7.52-7.84,11.77-15.3,10.52C-205.85,239.93-222.3,228.4-238.64,215.63Z"/></clipPath></defs><title/><path class="cls-2" d="M111.88,37.41c-32.79-6.66-64.79-6.83-96-.18A17.61,17.61,0,0,0,2,54.48V65.67H2c0,.17,0,.33,0,.5A29.5,29.5,0,0,0,58.35,78.38,6.23,6.23,0,0,1,64,74.67h0a6.23,6.23,0,0,1,5.65,3.72A29.5,29.5,0,0,0,126,66.17c0-.17,0-.33,0-.5h0v-11A17.64,17.64,0,0,0,111.88,37.41Z"/><g class="cls-3"><path class="cls-4" d="M65.65,74.38a6.15,6.15,0,0,0-11.29,0A29.5,29.5,0,0,1,8.74,84.93a29.5,29.5,0,0,0,49.62-6.55A6.23,6.23,0,0,1,64,74.67,6,6,0,0,1,66,75C65.86,74.8,65.74,74.59,65.65,74.38Z"/><path class="cls-4" d="M126,54.7a17.64,17.64,0,0,0-7.35-14.33A17.6,17.6,0,0,1,122,50.7v11h0c0,.17,0,.33,0,.5A29.48,29.48,0,0,1,73.74,84.91,29.48,29.48,0,0,0,126,66.17c0-.17,0-.33,0-.5h0Z"/></g><circle class="cls-4" cx="30" cy="64.67" r="14"/><path class="cls-5" d="M14.5,54.17s5,0,7,2"/><circle class="cls-6" cx="30" cy="64.67" r="11"/><path class="cls-7" d="M30,58.67h0a.52.52,0,0,0-.46.75s0,0,0,0a3.92,3.92,0,0,1-4.75,4.77h0a.52.52,0,0,0-.75.46,6,6,0,1,0,6-6Z"/><path class="cls-5" d="M82,65.67s21,8,29-5"/><path class="cls-5" d="M97.5,75.17a18.71,18.71,0,0,1-7-7.33"/><path class="cls-5" d="M106.5,72.17s-2.33-.33-5.67-4.17"/><path class="cls-5" d="M113.5,65.17a10.05,10.05,0,0,1-5.83-.67"/><path class="cls-5" d="M20.5,47.17a16.94,16.94,0,0,1,11,5"/></svg>