<?xml version="1.0" ?><svg data-name="Layer 1" id="Layer_1" viewBox="0 0 128 128" xmlns="http://www.w3.org/2000/svg" xmlns:xlink="http://www.w3.org/1999/xlink"><defs><style>.cls-1{fill:none;}.cls-2,.cls-6,.cls-7{opacity:0.6;}.cls-3{clip-path:url(#clip-path);}.cls-4,.cls-6{fill:#00adfe;}.cls-5{clip-path:url(#clip-path-2);}.cls-7{fill:#f85565;}.cls-8{fill:#fff;opacity:0.2;}.cls-9{fill:#515570;}.cls-10{fill:#393c54;}</style><clipPath id="clip-path"><path class="cls-1" d="M-77.33,67.65c-19.06-13.76-38-27.32-52.64-30.76-6.29-1.64-10.54-1.12-13.2,3.51h0c-1,1.71-2.24,5.1-2.24,10.64A155.42,155.42,0,0,0-140.5,90.3c2.25,8,8,12.45,15.86,9.77C-107.31,93.63-91.79,80.89-77.33,67.65Z"/></clipPath><clipPath id="clip-path-2"><path class="cls-1" d="M-90.64,67.63c18.48-15.4,36.72-30,54-37.07,7.84-2.31,12.84,2.94,13.8,9,.47,17.22-.21,32.92-3.12,45.67C-28.5,92.75-33.75,97-41.2,95.75-57.85,91.93-74.3,80.4-90.64,67.63Z"/></clipPath></defs><title/><g class="cls-2"><g class="cls-3"><g class="cls-2"><path class="cls-4" d="M-185.57,233.17q-.73-4.84-1.59-9.6C-97.68,166.31-22.84,59.61-4.32-76.88Q.07-72,4.37-67C-16.95,70.11-94.15,176.57-185.57,233.17Z"/><path class="cls-4" d="M-183.24,252.8q-.44-5-1-9.88C-90.88,187-11.28,80.86,12.87-56.89q4.2,5.14,8.29,10.41C-5.85,91.83-87.87,197.64-183.24,252.8Z"/><path class="cls-4" d="M-182.09,273q-.13-5.1-.42-10.15C-85.13,208.45-.66,103,29.22-35.8q4,5.41,7.85,11C4.27,114.44-82.67,219.44-182.09,273Z"/><path class="cls-4" d="M-182.2,293.62q.19-5.22.21-10.38C-80.49,230.59,9,126.08,44.69-13.63Q48.44-8,52.06-2.16C13.37,137.92-78.61,241.91-182.2,293.62Z"/><path class="cls-4" d="M-183.61,314.69q.52-5.32.87-10.59C-77,253.38,17.51,150,59.2,9.58q3.5,5.93,6.88,12C21.37,162.23-75.75,265-183.61,314.69Z"/><path class="cls-4" d="M-186.39,336.14q.87-5.4,1.57-10.77c110-48.6,209.77-150.69,257.52-291.57Q75.93,40,79,46.28C28.22,187.33-74.15,288.69-186.39,336.14Z"/></g></g></g><g class="cls-2"><g class="cls-5"><g class="cls-2"><path class="cls-4" d="M-108.2,129.43q-1.73-3.53-3.54-7C-48.14,67.78-1.4-27.2-8.5-140.62q4.59,3,9.12,6.16C5.48-20.12-43.12,75-108.2,129.43Z"/><path class="cls-4" d="M-101.67,143.88q-1.54-3.7-3.17-7.31C-38.27,82.39,12.22-12.8,9.64-128q4.48,3.28,8.9,6.69C18.83-5.25-33.57,90-101.67,143.88Z"/><path class="cls-4" d="M-95.93,159q-1.33-3.86-2.77-7.64C-29,97.81,25.28,2.53,27.31-114.39q4.35,3.54,8.64,7.22C31.58,10.54-24.71,105.82-95.93,159Z"/><path class="cls-4" d="M-91,174.75q-1.12-4-2.35-8C-20.55,114,37.72,18.78,44.46-99.7q4.22,3.8,8.36,7.74C43.69,27.24-16.58,122.4-91,174.75Z"/><path class="cls-4" d="M-87,191.1q-.89-4.16-1.89-8.25C-12.81,131,49.49,35.92,61-84q4.07,4.06,8.05,8.25C55.1,44.82-9.25,139.73-87,191.1Z"/><path class="cls-4" d="M-83.93,208q-.65-4.29-1.41-8.52C-5.9,148.66,60.53,53.94,77-67.22q3.9,4.31,7.72,8.75C65.76,63.26-2.77,157.76-83.93,208Z"/><path class="cls-4" d="M-81.85,225.44q-.39-4.42-.91-8.77C.13,167,70.79,72.8,92.23-49.48q3.72,4.56,7.36,9.24C75.61,82.54,2.81,176.47-81.85,225.44Z"/><path class="cls-4" d="M-80.84,243.34q-.12-4.53-.37-9C5.24,186.07,80.22,92.48,106.75-30.76q3.53,4.8,7,9.72C84.6,102.61,7.42,195.82-80.84,243.34Z"/><path class="cls-4" d="M-80.93,261.67q.17-4.63.19-9.22C9.36,205.72,88.76,112.94,120.48-11.08Q123.8-6,127-.89C92.68,123.46,11,215.77-80.93,261.67Z"/><path class="cls-4" d="M-82.18,280.38q.46-4.72.78-9.4C12.44,226,96.35,134.16,133.36,9.52q3.11,5.26,6.11,10.64C99.78,145,13.57,236.27-82.18,280.38Z"/><path class="cls-4" d="M-84.65,299.42q.77-4.8,1.39-9.56C14.42,246.72,102.95,156.09,145.34,31q2.88,5.49,5.64,11.08C105.86,167.32,15,257.29-84.65,299.42Z"/></g></g></g><path class="cls-6" d="M14.74,52H44.26A5.74,5.74,0,0,1,50,57.74V75a7,7,0,0,1-7,7H16a7,7,0,0,1-7-7V57.74A5.74,5.74,0,0,1,14.74,52Z"/><path class="cls-7" d="M79.74,52h29.53A5.74,5.74,0,0,1,115,57.74V75a7,7,0,0,1-7,7H81a7,7,0,0,1-7-7V57.74A5.74,5.74,0,0,1,79.74,52Z"/><path class="cls-6" d="M11,78V65.38A10.37,10.37,0,0,1,21.38,55H46.26a5.71,5.71,0,0,1,3.53,1.22A5.73,5.73,0,0,0,44.26,52H14.74A5.74,5.74,0,0,0,9,57.74V75a6.93,6.93,0,0,0,2.37,5.22A6.93,6.93,0,0,1,11,78Z"/><path class="cls-7" d="M76,78V65.38A10.37,10.37,0,0,1,86.38,55h24.89a5.71,5.71,0,0,1,3.53,1.22A5.73,5.73,0,0,0,109.26,52H79.74A5.74,5.74,0,0,0,74,57.74V75a6.93,6.93,0,0,0,2.37,5.22A6.93,6.93,0,0,1,76,78Z"/><rect class="cls-8" height="39.72" transform="translate(81.12 -52.69) rotate(45)" width="6.23" x="101.04" y="51.72"/><rect class="cls-8" height="23.69" transform="translate(86.93 -55.19) rotate(45)" width="3.63" x="108.27" y="65.5"/><polyline class="cls-8" points="48.74 50.57 11.49 87.82 7.08 83.42 40.81 49.69"/><rect class="cls-8" height="45.14" transform="translate(60.12 -5.62) rotate(45)" width="3.63" x="35.02" y="47.19"/><path class="cls-9" d="M122,47H5a4,4,0,0,0-4,4V77.11l3.44,5.55.29.57C6.51,86.77,11.14,89,15.1,89H45.35a10.49,10.49,0,0,0,8.76-4.72l5.57-8.46a4,4,0,0,1,6.49-.17l6.69,9.08A10.49,10.49,0,0,0,81.3,89h29.57c4.13,0,9.88-2.43,11.57-6.2h0L126,77.11V51A4,4,0,0,0,122,47ZM50,75a7,7,0,0,1-7,7H16a7,7,0,0,1-7-7V57.74A5.74,5.74,0,0,1,14.74,52H44.26A5.74,5.74,0,0,1,50,57.74Zm65,0a7,7,0,0,1-7,7H81a7,7,0,0,1-7-7V57.74A5.74,5.74,0,0,1,79.74,52h29.53A5.74,5.74,0,0,1,115,57.74Z"/><path class="cls-10" d="M124,47.53a3.94,3.94,0,0,1,0,.47V74.11l-3.56,5.69h0C118.75,83.57,113,86,108.87,86H79.3a10.49,10.49,0,0,1-8.45-4.27l-6.69-9.08a4,4,0,0,0-6.49.17l-5.57,8.46A10.49,10.49,0,0,1,43.35,86H13.1c-2.94,0-6.69-1.23-8.64-3.31l.27.54C6.51,86.77,11.14,89,15.1,89H45.35a10.49,10.49,0,0,0,8.76-4.72l5.57-8.46a4,4,0,0,1,6.49-.17l6.69,9.08A10.49,10.49,0,0,0,81.3,89h29.57c4.13,0,9.88-2.43,11.57-6.2h0L126,77.11V51A4,4,0,0,0,124,47.53Z"/></svg>