<?xml version="1.0" ?><svg data-name="Layer 1" id="Layer_1" viewBox="0 0 128 128" xmlns="http://www.w3.org/2000/svg" xmlns:xlink="http://www.w3.org/1999/xlink"><defs><style>.cls-1{fill:none;}.cls-2{fill:#515570;}.cls-3,.cls-4{fill:#393c54;}.cls-4{opacity:0.7;}.cls-5{fill:#f2bc0f;}.cls-6{fill:#f8dc25;}.cls-7{opacity:0.2;}.cls-8{fill:#fff;}.cls-9{opacity:0.6;}.cls-10{clip-path:url(#clip-path);}.cls-11{fill:#00adfe;}</style><clipPath id="clip-path"><path class="cls-1" d="M218.67,67.65c-19.06-13.76-38-27.32-52.64-30.76-6.29-1.64-10.54-1.12-13.2,3.51h0c-1,1.71-2.24,5.1-2.24,10.64A155.42,155.42,0,0,0,155.5,90.3c2.25,8,8,12.45,15.86,9.77C188.69,93.63,204.21,80.89,218.67,67.65Z"/></clipPath></defs><title/><path class="cls-2" d="M66.76,57.71c25.31,4,46,16.21,55.49,30.84.65,1,2.9.82,2.65-.21-4.42-18.08-27-36.22-56.49-40.94S11.8,52.92,2,68.72c-.56.9,1.52,1.77,2.45,1C18,58.8,41.45,53.67,66.76,57.71Z"/><path class="cls-3" d="M66.76,57.71C91,61.58,111,72.91,121,86.71,113.21,72.63,101.2,59.42,67.35,54c-32.19-5.14-49,3.38-60.94,14.25C20.23,58.36,42.63,53.86,66.76,57.71Z"/><path class="cls-4" d="M68.41,47.41c-3-.48-5.93-.79-8.84-1a6.9,6.9,0,0,0,1.27,2.28l5.67,6.54-3.46,1.94c1.23.15,2.47.32,3.71.52,18.19,2.9,34,10,45,19.2l.44-1.24L119.77,77C110.64,63.21,91.7,51.13,68.41,47.41Z"/><path class="cls-5" d="M109.52,71.15l13.29,2.33c2.36-.1,2.91-6.13.81-7.2l-12.46-8-.84-10.13a2.29,2.29,0,0,0-2.87-1.92L87.59,49,65.23,40c-2.2-.68-2.87,4.4-1.36,6.14l8.89,10.25-7.53,4.22c-1.44,1.32-1,6.73.89,7l21,2.67,15,12.5a2.29,2.29,0,0,0,3.62-1Z"/><path class="cls-6" d="M109.52,67.72l13.29,2.33a2.29,2.29,0,0,0,.94-4.33l-12.6-10.84-.84-10.13a2.29,2.29,0,0,0-2.87-1.92L87.59,45.56,66.27,39a2.29,2.29,0,0,0-2.41,3.69l8.89,10.25-7.9,7.23a2.29,2.29,0,0,0,1.26,4l21,2.67,15,12.5a2.29,2.29,0,0,0,3.62-1Z"/><g class="cls-7"><path class="cls-8" d="M68.56,44.69l21.32,6.59,19.85-2.73a2.27,2.27,0,0,1,.89-.05l-.31-3.75a2.29,2.29,0,0,0-2.87-1.92L87.59,45.56,66.27,39a2.29,2.29,0,0,0-2.41,3.69l2.33,2.68A2.23,2.23,0,0,1,68.56,44.69Z"/><path class="cls-8" d="M113.44,60.61,124,69.68a2.3,2.3,0,0,0-.24-4L113.1,56.56Z"/><path class="cls-8" d="M75,58.63l-3.78-4.36-6.41,5.87a2.29,2.29,0,0,0,1.26,4l2.6.33Z"/></g><path class="cls-8" d="M112.19,66.7l1.26-2a.42.42,0,0,1,.75.11l.64,2.25,2,1.26a.42.42,0,0,1-.11.75l-2.25.64-1.26,2a.42.42,0,0,1-.75-.11l-.64-2.25-2-1.26a.42.42,0,0,1,.11-.75Z"/><path class="cls-8" d="M70.44,48.33l2.24-.7a.42.42,0,0,1,.51.57l-1,2.14.7,2.24a.42.42,0,0,1-.57.51l-2.14-1-2.24.7a.42.42,0,0,1-.51-.57l1-2.14-.7-2.24a.42.42,0,0,1,.57-.51Z"/><g class="cls-9"><g class="cls-10"><g class="cls-9"><path class="cls-11" d="M56.32,100.63q-2.49-3.35-5.06-6.6c62.25-62.53,102.9-168,80.3-288.9q5.45,2.49,10.86,5.13C162.66-67.64,120.07,38.18,56.32,100.63Z"/><path class="cls-11" d="M66,114.47q-2.32-3.57-4.74-7C126.5,45.1,171-61,153.2-184.31q5.37,2.79,10.7,5.73C179.32-54.12,132.79,52.27,66,114.47Z"/><path class="cls-11" d="M74.9,129.15q-2.14-3.77-4.38-7.45c68.41-62,117-168.65,104-294.25q5.28,3.09,10.5,6.34C195.5-39.5,144.91,67.32,74.9,129.15Z"/><path class="cls-11" d="M83.08,144.65q-1.94-4-4-7.85C150.74,75.2,203.4-31.79,195.4-159.56q5.17,3.39,10.28,6.94C211.14-23.81,156.39,83.32,83.08,144.65Z"/><path class="cls-11" d="M90.43,160.93q-1.73-4.17-3.57-8.24c75-61,131.88-168.27,129-298.08q5,3.69,10,7.54C226.18-7.07,167.15,100.24,90.43,160.93Z"/><path class="cls-11" d="M96.91,178q-1.5-4.35-3.12-8.61C172.25,109,233.45,1.7,235.73-130q4.91,4,9.74,8.13C240.55,10.73,177.14,118.05,96.91,178Z"/><path class="cls-11" d="M102.44,195.71q-1.26-4.52-2.64-9c82-59.46,147.67-166.75,155.26-300.21q4.75,4.28,9.42,8.71C254.19,29.54,186.29,136.74,102.44,195.71Z"/><path class="cls-11" d="M107,214.13q-1-4.68-2.13-9.29c85.7-58.44,155.89-165.52,168.89-300.58q4.58,4.57,9.07,9.29C267,49.34,194.55,156.25,107,214.13Z"/><path class="cls-11" d="M110.43,233.17q-.73-4.84-1.59-9.6c89.49-57.26,164.33-164,182.85-300.45q4.4,4.86,8.69,9.86C279.05,70.11,201.85,176.57,110.43,233.17Z"/><path class="cls-11" d="M112.76,252.8q-.44-5-1-9.88C205.12,187,284.72,80.86,308.87-56.89q4.2,5.14,8.29,10.41C290.15,91.83,208.13,197.64,112.76,252.8Z"/><path class="cls-11" d="M113.91,273q-.13-5.1-.42-10.15C210.87,208.45,295.34,103,325.22-35.8q4,5.41,7.85,11C300.27,114.44,213.33,219.44,113.91,273Z"/><path class="cls-11" d="M113.8,293.62q.19-5.22.21-10.38C215.51,230.59,305,126.08,340.69-13.63Q344.44-8,348.06-2.16C309.37,137.92,217.39,241.91,113.8,293.62Z"/><path class="cls-11" d="M112.39,314.69q.52-5.32.87-10.59C219,253.38,313.51,150,355.2,9.58q3.5,5.93,6.88,12C317.37,162.23,220.25,265,112.39,314.69Z"/><path class="cls-11" d="M109.61,336.14q.87-5.4,1.57-10.77c110-48.6,209.77-150.69,257.52-291.57Q371.93,40,375,46.28C324.22,187.33,221.85,288.69,109.61,336.14Z"/></g></g></g></svg>