<?xml version="1.0" ?><svg data-name="Layer 1" id="Layer_1" viewBox="0 0 128 128" xmlns="http://www.w3.org/2000/svg" xmlns:xlink="http://www.w3.org/1999/xlink"><defs><style>.cls-1{fill:none;}.cls-2{fill:#f85565;}.cls-3{opacity:0.6;}.cls-4{clip-path:url(#clip-path);}.cls-5{fill:#00adfe;}.cls-10,.cls-6{fill:#393c54;}.cls-6{opacity:0.4;}.cls-7{clip-path:url(#clip-path-2);}.cls-8{fill:#fff;}.cls-10,.cls-8{opacity:0.3;}.cls-9{clip-path:url(#clip-path-3);}</style><clipPath id="clip-path"><path class="cls-1" d="M70.67,67.65C51.62,53.89,32.64,40.32,18,36.89,11.75,35.25,7.5,35.77,4.84,40.4h0c-1,1.71-2.24,5.1-2.24,10.64A155.42,155.42,0,0,0,7.5,90.3c2.25,8,8,12.45,15.86,9.77C40.69,93.63,56.21,80.89,70.67,67.65Z"/></clipPath><clipPath id="clip-path-2"><path class="cls-1" d="M57.36,67.63c18.48-15.4,36.72-30,54-37.07,7.84-2.31,12.84,2.94,13.8,9,.47,17.22-.21,32.92-3.12,45.67-2.59,7.52-7.84,11.77-15.3,10.52C90.15,91.93,73.7,80.4,57.36,67.63Z"/></clipPath><clipPath id="clip-path-3"><path class="cls-1" d="M76.24,84.3,52,84.55A4.19,4.19,0,0,1,48,81a65.73,65.73,0,0,1-.17-27.35,4.19,4.19,0,0,1,3.73-3.53l24-1c2.61-.11,4.58,2.7,4.06,5.72a63.17,63.17,0,0,0,.38,23.62C80.67,81.39,78.83,84.27,76.24,84.3Z"/></clipPath></defs><title/><path class="cls-2" d="M70.67,67.65C51.62,53.89,32.64,40.32,18,36.89,11.75,35.25,7.5,35.77,4.84,40.4h0c-1,1.71-2.24,5.1-2.24,10.64A155.42,155.42,0,0,0,7.5,90.3c2.25,8,8,12.45,15.86,9.77C40.69,93.63,56.21,80.89,70.67,67.65Z"/><g class="cls-3"><g class="cls-4"><g class="cls-3"><path class="cls-5" d="M-82,114.47q-2.32-3.57-4.74-7C-21.5,45.1,23-61,5.2-184.31q5.37,2.79,10.7,5.73C31.32-54.12-15.21,52.27-82,114.47Z"/><path class="cls-5" d="M-73.1,129.15q-2.14-3.77-4.38-7.45c68.41-62,117-168.65,104-294.25q5.28,3.09,10.5,6.34C47.5-39.5-3.09,67.32-73.1,129.15Z"/><path class="cls-5" d="M-64.92,144.65q-1.94-4-4-7.85C2.74,75.2,55.4-31.79,47.4-159.56q5.17,3.39,10.28,6.94C63.14-23.81,8.39,83.32-64.92,144.65Z"/><path class="cls-5" d="M-57.57,160.93q-1.73-4.17-3.57-8.24c75-61,131.88-168.27,129-298.08q5,3.69,10,7.54C78.18-7.07,19.15,100.24-57.57,160.93Z"/><path class="cls-5" d="M-51.09,178q-1.5-4.35-3.12-8.61C24.25,109,85.45,1.7,87.73-130q4.91,4,9.74,8.13C92.55,10.73,29.14,118.05-51.09,178Z"/><path class="cls-5" d="M-45.56,195.71q-1.26-4.52-2.64-9C33.82,127.29,99.46,20,107.05-113.46q4.75,4.28,9.42,8.71C106.19,29.54,38.29,136.74-45.56,195.71Z"/><path class="cls-5" d="M-41,214.13q-1-4.68-2.13-9.29C42.54,146.39,112.72,39.32,125.72-95.74q4.58,4.57,9.07,9.29C119,49.34,46.55,156.25-41,214.13Z"/><path class="cls-5" d="M-37.57,233.17q-.73-4.84-1.59-9.6c89.49-57.26,164.33-164,182.85-300.45q4.4,4.86,8.69,9.86C131.05,70.11,53.85,176.57-37.57,233.17Z"/><path class="cls-5" d="M-35.24,252.8q-.44-5-1-9.88C57.12,187,136.72,80.86,160.87-56.89q4.2,5.14,8.29,10.41C142.15,91.83,60.13,197.64-35.24,252.8Z"/><path class="cls-5" d="M-34.09,273q-.13-5.1-.42-10.15C62.87,208.45,147.34,103,177.22-35.8q4,5.41,7.85,11C152.27,114.44,65.33,219.44-34.09,273Z"/><path class="cls-5" d="M-34.2,293.62q.19-5.22.21-10.38C67.51,230.59,157,126.08,192.69-13.63Q196.44-8,200.06-2.16C161.37,137.92,69.39,241.91-34.2,293.62Z"/><path class="cls-5" d="M-35.61,314.69q.52-5.32.87-10.59C71,253.38,165.51,150,207.2,9.58q3.5,5.93,6.88,12C169.37,162.23,72.25,265-35.61,314.69Z"/><path class="cls-5" d="M-38.39,336.14q.87-5.4,1.57-10.77c110-48.6,209.77-150.69,257.52-291.57Q223.93,40,227,46.28C176.22,187.33,73.85,288.69-38.39,336.14Z"/></g></g></g><path class="cls-6" d="M65.12,63.65c-4.39,3.87-8.88,7.63-13.49,11.14L53.75,70a32.06,32.06,0,0,0-9.5,0c-5.75.75-13,6.5-9.5,8.25,2,1,6.19,1.59,9.56,1.77a100.8,100.8,0,0,1-21,11C15.5,93.75,9.75,89.25,7.5,81.3A153.19,153.19,0,0,1,2.73,48.13C2.65,49,2.59,50,2.59,51A155.42,155.42,0,0,0,7.5,90.3c2.25,8,8,12.45,15.86,9.77,17.33-6.44,32.85-19.18,47.32-32.42Z"/><path class="cls-2" d="M57.36,67.63c18.48-15.4,36.72-30,54-37.07,7.84-2.31,12.84,2.94,13.8,9,.47,17.22-.21,32.92-3.12,45.67-2.59,7.52-7.84,11.77-15.3,10.52C90.15,91.93,73.7,80.4,57.36,67.63Z"/><g class="cls-3"><g class="cls-7"><g class="cls-3"><path class="cls-5" d="M16,90.35q-2.21-3-4.49-5.85C66.81,29,102.9-64.66,82.83-172q4.84,2.21,9.64,4.55C110.44-59,72.63,34.91,16,90.35Z"/><path class="cls-5" d="M24.6,102.64q-2.06-3.17-4.2-6.24c57.95-55.34,97.49-149.54,81.65-259q4.77,2.48,9.5,5.09C125.23-47,83.92,47.42,24.6,102.64Z"/><path class="cls-5" d="M32.53,115.67q-1.9-3.35-3.89-6.61C89.38,54,132.47-40.65,121-152.14q4.68,2.75,9.32,5.63C139.6-34,94.69,60.78,32.53,115.67Z"/><path class="cls-5" d="M39.8,129.43q-1.73-3.53-3.54-7C99.86,67.78,146.6-27.2,139.5-140.62q4.59,3,9.12,6.16C153.48-20.12,104.88,75,39.8,129.43Z"/><path class="cls-5" d="M46.33,143.88q-1.54-3.7-3.17-7.31C109.73,82.39,160.22-12.8,157.64-128q4.48,3.28,8.9,6.69C166.83-5.25,114.43,90,46.33,143.88Z"/><path class="cls-5" d="M52.07,159q-1.33-3.86-2.77-7.64c69.65-53.55,124-148.83,126-265.75q4.35,3.54,8.64,7.22C179.58,10.54,123.29,105.82,52.07,159Z"/><path class="cls-5" d="M57,174.75q-1.12-4-2.35-8C127.45,114,185.72,18.78,192.46-99.7q4.22,3.8,8.36,7.74C191.69,27.24,131.42,122.4,57,174.75Z"/><path class="cls-5" d="M61,191.1q-.89-4.16-1.89-8.25C135.19,131,197.49,35.92,209-84q4.07,4.06,8.05,8.25C203.1,44.82,138.75,139.73,61,191.1Z"/><path class="cls-5" d="M64.07,208q-.65-4.29-1.41-8.52C142.1,148.66,208.53,53.94,225-67.22q3.9,4.31,7.72,8.75C213.76,63.26,145.23,157.76,64.07,208Z"/><path class="cls-5" d="M66.15,225.44q-.39-4.42-.91-8.77C148.13,167,218.79,72.8,240.23-49.48q3.72,4.56,7.36,9.24C223.61,82.54,150.81,176.47,66.15,225.44Z"/><path class="cls-5" d="M67.16,243.34q-.12-4.53-.37-9c86.45-48.26,161.43-141.85,188-265.09q3.53,4.8,7,9.72C232.6,102.61,155.42,195.82,67.16,243.34Z"/><path class="cls-5" d="M67.07,261.67q.17-4.63.19-9.22c90.1-46.73,169.5-139.51,201.22-263.53Q271.8-6,275-.89C240.68,123.46,159,215.77,67.07,261.67Z"/><path class="cls-5" d="M65.82,280.38q.46-4.72.78-9.4C160.44,226,244.35,134.16,281.36,9.52q3.11,5.26,6.11,10.64C247.78,145,161.57,236.27,65.82,280.38Z"/><path class="cls-5" d="M63.35,299.42q.77-4.8,1.39-9.56C162.42,246.72,250.95,156.09,293.34,31q2.88,5.49,5.64,11.08C253.86,167.32,163,257.29,63.35,299.42Z"/></g></g></g><path class="cls-8" d="M9.06,48.79c6.36-.52,14.38.61,23.09,2.61a2,2,0,0,0,1.4-3.71C27.59,44.41,22,41.92,17,40.76A18.64,18.64,0,0,0,12.46,40,4.11,4.11,0,0,0,8.3,42.4a13.2,13.2,0,0,0-1.39,4.4,1.74,1.74,0,0,0,1.84,2Z"/><path class="cls-8" d="M119.39,41.87h0A1.81,1.81,0,0,0,121.22,40v-.07C120.7,37.15,118.8,34,115,34a8.78,8.78,0,0,0-2.33.34,108.58,108.58,0,0,0-17,9A2,2,0,0,0,97.42,47,115.18,115.18,0,0,1,119.39,41.87Z"/><path class="cls-6" d="M125.31,44.42c-.18,11.78-1.11,22.57-3.21,31.8-2.59,7.52-7.84,11.77-15.3,10.52-7.91-1.81-15.77-5.38-23.6-10A24.35,24.35,0,0,0,92.33,75c5.67-2.5-5.58-9-15.83-5.75l.87,3.9C72.56,70,67.77,66.58,63,63l-5.63,4.67C73.7,80.4,90.15,91.93,106.8,95.75c7.45,1.25,12.7-3,15.3-10.52C124.72,73.69,125.52,59.73,125.31,44.42Z"/><path class="cls-6" d="M45.52,50.19c-2.61,9.17-3.39,22.1-1.41,31.6A8.71,8.71,0,0,0,47.29,87,246.06,246.06,0,0,0,70.67,67.65C62.14,61.49,53.63,55.38,45.52,50.19Z"/><path class="cls-6" d="M57.36,67.63a249.74,249.74,0,0,0,24.92,17.6A9.45,9.45,0,0,0,84,77.61c-1.43-7-2.51-22.12-1.53-29.93C74.18,53.74,65.8,60.6,57.36,67.63Z"/><path class="cls-2" d="M76.24,84.3,52,84.55A4.19,4.19,0,0,1,48,81a65.73,65.73,0,0,1-.17-27.35,4.19,4.19,0,0,1,3.73-3.53l24-1c2.61-.11,4.58,2.7,4.06,5.72a63.17,63.17,0,0,0,.38,23.62C80.67,81.39,78.83,84.27,76.24,84.3Z"/><g class="cls-9"><circle class="cls-5" cx="31.3" cy="56.23" r="3.65" transform="translate(-5.61 3.52) rotate(-5.9)"/><circle class="cls-5" cx="45.82" cy="54.73" r="3.65" transform="translate(-5.38 5) rotate(-5.9)"/><circle class="cls-5" cx="60.33" cy="53.23" r="3.65" transform="translate(-5.15 6.48) rotate(-5.9)"/><circle class="cls-5" cx="74.85" cy="51.73" r="3.65" transform="translate(-4.92 7.97) rotate(-5.9)"/><circle class="cls-5" cx="89.36" cy="50.23" r="3.65" transform="translate(-4.69 9.45) rotate(-5.9)"/><circle class="cls-5" cx="32.8" cy="70.74" r="3.65" transform="translate(-7.1 3.75) rotate(-5.9)"/><circle class="cls-5" cx="47.32" cy="69.24" r="3.65" transform="translate(-6.87 5.23) rotate(-5.9)"/><circle class="cls-5" cx="61.83" cy="67.74" r="3.65" transform="translate(-6.64 6.71) rotate(-5.9)"/><circle class="cls-5" cx="76.35" cy="66.24" r="3.65" transform="translate(-6.4 8.2) rotate(-5.9)"/><circle class="cls-5" cx="90.86" cy="64.74" r="3.65" transform="translate(-6.17 9.68) rotate(-5.9)"/><circle class="cls-5" cx="34.3" cy="85.25" r="3.65" transform="translate(-8.58 3.98) rotate(-5.9)"/><circle class="cls-5" cx="48.82" cy="83.75" r="3.65" transform="translate(-8.35 5.46) rotate(-5.9)"/><circle class="cls-5" cx="63.33" cy="82.25" r="3.65" transform="translate(-8.12 6.95) rotate(-5.9)"/><circle class="cls-5" cx="77.85" cy="80.75" r="3.65" transform="translate(-7.89 8.43) rotate(-5.9)"/><circle class="cls-5" cx="92.36" cy="79.25" r="3.65" transform="translate(-7.66 9.91) rotate(-5.9)"/><circle class="cls-5" cx="37.81" cy="48.22" r="3.65" transform="translate(-4.76 4.14) rotate(-5.9)"/><circle class="cls-5" cx="52.32" cy="46.72" r="3.65" transform="translate(-4.53 5.63) rotate(-5.9)"/><circle class="cls-5" cx="66.84" cy="45.22" r="3.65" transform="translate(-4.29 7.11) rotate(-5.9)"/><circle class="cls-5" cx="81.35" cy="43.72" r="3.65" transform="translate(-4.06 8.59) rotate(-5.9)"/><circle class="cls-5" cx="95.87" cy="42.22" r="3.65" transform="translate(-3.83 10.08) rotate(-5.9)"/><circle class="cls-5" cx="39.31" cy="62.73" r="3.65" transform="translate(-6.24 4.37) rotate(-5.9)"/><circle class="cls-5" cx="53.82" cy="61.23" r="3.65" transform="translate(-6.01 5.86) rotate(-5.9)"/><circle class="cls-5" cx="68.34" cy="59.73" r="3.65" transform="translate(-5.78 7.34) rotate(-5.9)"/><circle class="cls-5" cx="82.85" cy="58.23" r="3.65" transform="translate(-5.55 8.83) rotate(-5.9)"/><circle class="cls-5" cx="97.37" cy="56.73" r="3.65" transform="translate(-5.32 10.31) rotate(-5.9)"/><circle class="cls-5" cx="40.81" cy="77.25" r="3.65" transform="translate(-7.72 4.6) rotate(-5.9)"/><circle class="cls-5" cx="55.32" cy="75.75" r="3.65" transform="translate(-7.49 6.09) rotate(-5.9)"/><circle class="cls-5" cx="69.84" cy="74.25" r="3.65" transform="translate(-7.26 7.57) rotate(-5.9)"/><circle class="cls-5" cx="84.35" cy="72.75" r="3.65" transform="translate(-7.03 9.06) rotate(-5.9)"/><circle class="cls-5" cx="98.87" cy="71.25" r="3.65" transform="translate(-6.8 10.54) rotate(-5.9)"/><circle class="cls-5" cx="42.31" cy="91.76" r="3.65" transform="translate(-9.21 4.84) rotate(-5.9)"/><circle class="cls-5" cx="56.82" cy="90.26" r="3.65" transform="translate(-8.98 6.32) rotate(-5.9)"/><circle class="cls-5" cx="71.34" cy="88.76" r="3.65" transform="translate(-8.75 7.8) rotate(-5.9)"/><circle class="cls-5" cx="85.85" cy="87.26" r="3.65" transform="translate(-8.52 9.29) rotate(-5.9)"/><circle class="cls-5" cx="100.37" cy="85.76" r="3.65" transform="translate(-8.28 10.77) rotate(-5.9)"/></g><path class="cls-10" d="M80.06,78.41a63.17,63.17,0,0,1-.38-23.62c.45-2.63-1-5.1-3.1-5.62a63.14,63.14,0,0,0,.48,22.94c.61,3-1.23,5.86-3.82,5.88L49,78.25a3.48,3.48,0,0,1-1.5-.34c.17,1,.35,2,.56,3.05A4.19,4.19,0,0,0,52,84.55l24.28-.25C78.83,84.27,80.67,81.39,80.06,78.41Z"/><path class="cls-8" d="M58.5,55.18h0A1.37,1.37,0,0,0,58,53.28l0,0c-2-.73-4.8-.7-6.24,1.74A6.64,6.64,0,0,0,51,56.64a82.1,82.1,0,0,0-.62,14.52,1.51,1.51,0,0,0,3,.29A87.09,87.09,0,0,1,58.5,55.18Z"/></svg>