<?xml version="1.0" ?><svg data-name="Layer 1" id="Layer_1" viewBox="0 0 128 128" xmlns="http://www.w3.org/2000/svg"><defs><style>.cls-1{fill:#515570;}.cls-2,.cls-5{fill:#393c54;}.cls-2{opacity:0.3;}.cls-3{fill:#f85565;}.cls-4{fill:none;stroke:#f8dc25;stroke-linecap:round;stroke-linejoin:round;stroke-width:5px;}.cls-6{fill:#fff;}</style></defs><title/><path class="cls-1" d="M117.88,62.58a16,16,0,0,0-14.94-15.95A20,20,0,0,0,83,28H45A20,20,0,0,0,25.07,46.64a16,16,0,0,0-8.25,28.95,16,16,0,0,0,8.48,26.08,18.05,18.05,0,0,0,23.42,13.91,18.06,18.06,0,0,0,31.13-.86,18,18,0,0,0,22.64-13,16,16,0,0,0,8.69-26.14A16,16,0,0,0,117.88,62.58Z"/><path class="cls-2" d="M117.88,62.58a16,16,0,0,0-7.77-13.71,17.36,17.36,0,0,1-6.75,9.92,17.31,17.31,0,0,1-9.42,28.32A19.54,19.54,0,0,1,69.42,101.2a19.57,19.57,0,0,1-33.73.93,19.27,19.27,0,0,1-10.17.55,18,18,0,0,0,23.19,12.91,18.06,18.06,0,0,0,31.13-.86,18,18,0,0,0,22.64-13,16,16,0,0,0,8.69-26.14A16,16,0,0,0,117.88,62.58Z"/><path class="cls-2" d="M46.44,28A7.48,7.48,0,0,0,53.5,38h3a9,9,0,0,0,17,0h3a7.48,7.48,0,0,0,7.07-10L83,28Z"/><path class="cls-3" d="M75.5,21H71V11a7,7,0,0,0-14,0V21H52.5a7.5,7.5,0,0,0,0,15h3a9,9,0,0,0,17,0h3a7.5,7.5,0,0,0,0-15Z"/><path class="cls-2" d="M76.43,30.14H73a10.27,10.27,0,0,1-19.38,0H50.14A8.52,8.52,0,0,1,45,28.42s0,.05,0,.08A7.5,7.5,0,0,0,52.5,36h3a9,9,0,0,0,17,0h3a7.47,7.47,0,0,0,7.38-8.8A8.54,8.54,0,0,1,76.43,30.14Z"/><line class="cls-4" x1="61.5" x2="53.5" y1="21.5" y2="21.5"/><path class="cls-5" d="M76,61H54.21a7.12,7.12,0,0,1-7-5.45A7,7,0,0,1,54,47H75.79a7.12,7.12,0,0,1,7,5.45A7,7,0,0,1,76,61Z"/><path class="cls-6" d="M53,47H77a0,0,0,0,1,0,0v0a4,4,0,0,1-4,4H57a4,4,0,0,1-4-4v0A0,0,0,0,1,53,47Z"/><path class="cls-3" d="M57,61H76a7,7,0,0,0,7-7,6.92,6.92,0,0,0-.1-1H69A13,13,0,0,0,57,61Z"/><path class="cls-2" d="M52.05,82.2A15.79,15.79,0,0,1,48.36,74c-.36.37-.73.74-1.13,1.08a15.87,15.87,0,0,1-21.14-.36A12.94,12.94,0,0,0,43.4,84.9a12.94,12.94,0,0,0,22.87,2.64A15.85,15.85,0,0,1,52.05,82.2Z"/></svg>