<?xml version="1.0" ?><svg data-name="Layer 1" id="Layer_1" viewBox="0 0 128 128" xmlns="http://www.w3.org/2000/svg"><defs><style>.cls-1{fill:#393c54;}.cls-2{fill:#515570;}.cls-3{fill:#f85565;}.cls-4,.cls-5{fill:none;stroke:#2e313f;stroke-linecap:round;stroke-linejoin:round;}.cls-4{stroke-width:1.84px;}.cls-5{stroke-width:2px;}</style></defs><title/><path class="cls-1" d="M40.46,32.71S32.23,60.27,22.08,60.27V14.33C32.23,14.33,40.46,32.71,40.46,32.71Z"/><path class="cls-1" d="M22.08,60.27V14.33c10.15,0,18.37,18.37,18.37,18.37"/><path class="cls-2" d="M22.08,68.31a6.89,6.89,0,0,1-6.89-6.89V44.19c0-23,6.89-29.86,6.89-29.86S29,21.22,29,29.26V61.42A6.89,6.89,0,0,1,22.08,68.31Z"/><path class="cls-3" d="M22.08,64.86a3.45,3.45,0,0,1-3.45-3.45V44.19c0-12.51,2.13-19.89,3.83-23.8a17,17,0,0,1,3.06,8.87V61.42A3.45,3.45,0,0,1,22.08,64.86Z"/><path class="cls-1" d="M86.39,32.71s8.23,24.12,18.37,24.12V14.33C94.62,14.33,86.39,32.71,86.39,32.71Z"/><path class="cls-1" d="M104.77,56.82V14.33c-10.15,0-18.37,18.37-18.37,18.37"/><path class="cls-2" d="M104.77,64.86A6.89,6.89,0,0,0,111.66,58V44.19c0-23-6.89-29.86-6.89-29.86s-6.89,6.89-6.89,14.93V58A6.89,6.89,0,0,0,104.77,64.86Z"/><path class="cls-3" d="M104.77,61.42A3.45,3.45,0,0,0,108.21,58V44.19c0-12.51-2.13-19.89-3.83-23.8a17,17,0,0,0-3.06,8.87V58A3.45,3.45,0,0,0,104.77,61.42Z"/><path class="cls-1" d="M114.53,72.92A50.53,50.53,0,0,0,63.14,22.4C35.43,22.86,13.47,46,13.47,73.75v33.07l13.3,9.6a2,2,0,0,0,2.19.1L58.23,99.19a10.56,10.56,0,0,1,11.6-.09l30.48,17.47a2,2,0,0,0,2.24-.17l12-9.58ZM55.33,95.43c-1.44,1-5.81,3.37-9.26,5.67s-6.82,5.81-11.41,3.52S24.32,93.13,24.32,86.24s3.45-11.48,10.34-10.34,18,10.88,20.67,14.93C57.63,94.28,56.27,94.77,55.33,95.43Zm38,9.19c-4.59,2.3-8-1.22-11.41-3.52s-7.82-4.67-9.26-5.67c-.94-.66-2.3-1.15,0-4.59,2.7-4.05,13.78-13.78,20.67-14.93s10.34,3.45,10.34,10.34S97.94,102.32,93.34,104.62Z"/><path class="cls-2" d="M64,42a51.79,51.79,0,0,1,37.14,15.63,2.42,2.42,0,0,0,4-2.66A44.79,44.79,0,0,0,22.9,55a2.42,2.42,0,0,0,4,2.66A51.79,51.79,0,0,1,64,42Z"/><path class="cls-4" d="M55.48,46.14a48,48,0,0,1,8.6-.77"/><path class="cls-4" d="M44.54,49.54q1.83-.82,3.73-1.49"/><path class="cls-4" d="M30,59.71a47.86,47.86,0,0,1,10.52-8.12"/><path class="cls-5" d="M44.85,76.15c6.15,4,11.89,9.6,13.81,12.47"/><path class="cls-5" d="M32.63,71.73a16.37,16.37,0,0,1,2.68.23A20.88,20.88,0,0,1,41,74"/><path class="cls-5" d="M96.66,71.73A16.37,16.37,0,0,0,94,72c-8.57,1.43-20.42,12.27-23.34,16.66"/></svg>