<?xml version="1.0" ?><svg data-name="Layer 1" id="Layer_1" viewBox="0 0 128 128" xmlns="http://www.w3.org/2000/svg" xmlns:xlink="http://www.w3.org/1999/xlink"><defs><style>.cls-1{fill:none;}.cls-2{fill:#f85565;}.cls-3,.cls-5{opacity:0.2;}.cls-4{fill:#fff;}.cls-5{fill:#393c54;}.cls-6{fill:#515570;}.cls-7{opacity:0.6;}.cls-8{clip-path:url(#clip-path);}.cls-9{fill:#00adfe;}.cls-10{clip-path:url(#clip-path-2);}</style><clipPath id="clip-path"><path class="cls-1" d="M70.67,215.65c-19.06-13.76-38-27.32-52.64-30.76-6.29-1.64-10.54-1.12-13.2,3.51h0c-1,1.71-2.24,5.1-2.24,10.64A155.42,155.42,0,0,0,7.5,238.3c2.25,8,8,12.45,15.86,9.77C40.69,241.63,56.21,228.89,70.67,215.65Z"/></clipPath><clipPath id="clip-path-2"><path class="cls-1" d="M57.36,215.63c18.48-15.4,36.72-30,54-37.07,7.84-2.31,12.84,2.94,13.8,9,.47,17.22-.21,32.92-3.12,45.67-2.59,7.52-7.84,11.77-15.3,10.52C90.15,239.93,73.7,228.4,57.36,215.63Z"/></clipPath></defs><title/><path class="cls-2" d="M10.24,78.3s4.32,29.78,52,29.78,53.6-25.81,53.6-29.78S84,60.43,64.19,60.43,10.24,72.34,10.24,78.3Z"/><g class="cls-3"><path class="cls-4" d="M41.95,96.17a50.46,50.46,0,0,1-6.28-1.78,38.72,38.72,0,0,1-6-2.79,28.53,28.53,0,0,1-10-9.36v0a2.44,2.44,0,0,1,4.13-2.6,2.67,2.67,0,0,1,.16.31A21.93,21.93,0,0,0,27,84.87a27.17,27.17,0,0,0,4.31,4.21,36.13,36.13,0,0,0,5.19,3.37A48.78,48.78,0,0,0,42.28,95h0a.6.6,0,0,1-.35,1.15Z"/></g><path class="cls-5" d="M104.86,71c1.23.94,1.94,1.74,1.94,2.32,0,4-6,29.78-53.6,29.78-12.5,0-22-2.05-29.2-5.08,7.65,5.54,19.59,10.08,38.2,10.08,47.64,0,53.6-25.81,53.6-29.78C115.8,76.82,111.4,74,104.86,71Z"/><path class="cls-2" d="M7.56,68.7,34.28,38.87a11,11,0,0,1,15.52-.8l11,10a4,4,0,0,0,5.34,0l11-10a11,11,0,0,1,15.52.8l26.16,29.26a5.15,5.15,0,0,1-.55,7.76l-3.19,2.39s-25.81-9.93-51.61-9.93S10.24,78.3,10.24,78.3L7.56,76A5.15,5.15,0,0,1,7.56,68.7Z"/><path class="cls-5" d="M56.47,68.37c-19,0-39,5.37-48.31,8.21l2.08,1.72s24.62-8.92,49.2-9.84C58.46,68.41,57.47,68.37,56.47,68.37Z"/><path class="cls-5" d="M60.8,48.08l-11-10a10.94,10.94,0,0,0-10.86-2.27h0a10.9,10.9,0,0,1,3.86,2.27l14.5,13.5a4,4,0,0,0,5.34,0l2.83-3A4,4,0,0,1,60.8,48.08Z"/><path class="cls-5" d="M118.83,68.15,92.66,38.89A11,11,0,0,0,81,35.81a10.89,10.89,0,0,1,4.67,3.07C95.2,50.67,102,62.75,105.83,75.15l.11.13c5.67,1.69,9.14,3,9.14,3l3.19-2.39A5.15,5.15,0,0,0,118.83,68.15Z"/><g class="cls-3"><path class="cls-4" d="M23.42,58.46l9.63-11.28,4.89-5.71a6.56,6.56,0,0,1,4.41-2A6.83,6.83,0,0,1,47.11,41l.15.12a2,2,0,1,1-2.59,3.08,2.17,2.17,0,0,1-.24-.24,3.17,3.17,0,0,0-4.32-.28,8.08,8.08,0,0,0-.6.57l-.66.65-1.32,1.31-2.63,2.62L24.36,59.33a.64.64,0,0,1-.94-.87Z"/></g><g class="cls-3"><path class="cls-4" d="M80.18,41.43a6.65,6.65,0,0,1,4.32-2.19l.29,0a2,2,0,0,1,.4,4.08,2.09,2.09,0,0,1-.68,0,3.13,3.13,0,0,0-2.33.38l-.11.06a1.49,1.49,0,0,1-1.88-2.25Z"/></g><path class="cls-6" d="M10.24,78c4.6-1.57,29.92-9.66,53.23-9.66,25.81,0,51.61,9.93,51.61,9.93l.6-.45c-2.06-4.47-32.32-12.42-51.49-12.42C44.62,65.43,11.18,72,10.24,78Z"/><path class="cls-5" d="M85,69.37c0,4.39-9.78,1.94-21.84,1.94s-21.84,2.45-21.84-1.94,9.78-7.94,21.84-7.94S85,65,85,69.37Z"/><g class="cls-7"><g class="cls-8"><g class="cls-7"><path class="cls-9" d="M-82,262.47q-2.32-3.57-4.74-7C-21.5,193.1,23,87,5.2-36.31q5.37,2.79,10.7,5.73C31.32,93.88-15.21,200.27-82,262.47Z"/><path class="cls-9" d="M-73.1,277.15q-2.14-3.77-4.38-7.45c68.41-62,117-168.65,104-294.25Q31.78-21.45,37-18.2C47.5,108.5-3.09,215.32-73.1,277.15Z"/><path class="cls-9" d="M-64.92,292.65q-1.94-4-4-7.85C2.74,223.2,55.4,116.21,47.4-11.56q5.17,3.39,10.28,6.94C63.14,124.19,8.39,231.32-64.92,292.65Z"/><path class="cls-9" d="M-57.57,308.93q-1.73-4.17-3.57-8.24c75-61,131.88-168.27,129-298.08q5,3.69,10,7.54C78.18,140.93,19.15,248.24-57.57,308.93Z"/><path class="cls-9" d="M-51.09,326q-1.5-4.35-3.12-8.61C24.25,257,85.45,149.7,87.73,18q4.91,4,9.74,8.13C92.55,158.73,29.14,266.05-51.09,326Z"/><path class="cls-9" d="M-45.56,343.71q-1.26-4.52-2.64-9C33.82,275.29,99.46,168,107.05,34.54q4.75,4.28,9.42,8.71C106.19,177.54,38.29,284.74-45.56,343.71Z"/><path class="cls-9" d="M-41,362.13q-1-4.68-2.13-9.29c85.7-58.44,155.89-165.52,168.89-300.58q4.58,4.57,9.07,9.29C119,197.34,46.55,304.25-41,362.13Z"/><path class="cls-9" d="M-37.57,381.17q-.73-4.84-1.59-9.6c89.49-57.26,164.33-164,182.85-300.45q4.4,4.86,8.69,9.86C131.05,218.11,53.85,324.57-37.57,381.17Z"/><path class="cls-9" d="M-35.24,400.8q-.44-5-1-9.88C57.12,335,136.72,228.86,160.87,91.11q4.2,5.14,8.29,10.41C142.15,239.83,60.13,345.64-35.24,400.8Z"/><path class="cls-9" d="M-34.09,421q-.13-5.1-.42-10.15C62.87,356.45,147.34,251,177.22,112.2q4,5.41,7.85,11C152.27,262.44,65.33,367.44-34.09,421Z"/></g></g></g><g class="cls-7"><g class="cls-10"><g class="cls-7"><path class="cls-9" d="M16,238.35q-2.21-3-4.49-5.85C66.81,177,102.9,83.34,82.83-24q4.84,2.21,9.64,4.55C110.44,89,72.63,182.91,16,238.35Z"/><path class="cls-9" d="M24.6,250.64q-2.06-3.17-4.2-6.24c57.95-55.34,97.49-149.54,81.65-259q4.77,2.48,9.5,5.09C125.23,101,83.92,195.42,24.6,250.64Z"/><path class="cls-9" d="M32.53,263.67q-1.9-3.35-3.89-6.61C89.38,202,132.47,107.35,121-4.14q4.68,2.75,9.32,5.63C139.6,114,94.69,208.78,32.53,263.67Z"/><path class="cls-9" d="M39.8,277.43q-1.73-3.53-3.54-7C99.86,215.78,146.6,120.8,139.5,7.38q4.59,3,9.12,6.16C153.48,127.88,104.88,223,39.8,277.43Z"/><path class="cls-9" d="M46.33,291.88q-1.54-3.7-3.17-7.31C109.73,230.39,160.22,135.2,157.64,20q4.48,3.28,8.9,6.69C166.83,142.75,114.43,238,46.33,291.88Z"/><path class="cls-9" d="M52.07,307q-1.33-3.86-2.77-7.64c69.65-53.55,124-148.83,126-265.75q4.35,3.54,8.64,7.22C179.58,158.54,123.29,253.82,52.07,307Z"/><path class="cls-9" d="M57,322.75q-1.12-4-2.35-8c72.82-52.78,131.09-148,137.82-266.5q4.22,3.8,8.36,7.74C191.69,175.24,131.42,270.4,57,322.75Z"/><path class="cls-9" d="M61,339.1q-.89-4.16-1.89-8.25C135.19,279,197.49,183.92,209,64q4.07,4.06,8.05,8.25C203.1,192.82,138.75,287.73,61,339.1Z"/><path class="cls-9" d="M64.07,356q-.65-4.29-1.41-8.52C142.1,296.66,208.53,201.94,225,80.78q3.9,4.31,7.72,8.75C213.76,211.26,145.23,305.76,64.07,356Z"/><path class="cls-9" d="M66.15,373.44q-.39-4.42-.91-8.77c82.9-49.63,153.55-143.86,175-266.14q3.72,4.56,7.36,9.24C223.61,230.54,150.81,324.47,66.15,373.44Z"/><path class="cls-9" d="M67.16,391.34q-.12-4.53-.37-9c86.45-48.26,161.43-141.85,188-265.09q3.53,4.8,7,9.72C232.6,250.61,155.42,343.82,67.16,391.34Z"/></g></g></g></svg>