<?xml version="1.0" ?><svg data-name="Layer 1" id="Layer_1" viewBox="0 0 128 128" xmlns="http://www.w3.org/2000/svg"><defs><style>.cls-1,.cls-11{fill:#f2bc0f;}.cls-10,.cls-2,.cls-3,.cls-8,.cls-9{fill:none;stroke-linecap:round;stroke-linejoin:round;}.cls-2{stroke:#f2bc0f;}.cls-2,.cls-3,.cls-9{stroke-width:4px;}.cls-3,.cls-8{stroke:#f8dc25;}.cls-4{fill:#f8dc25;}.cls-5{fill:#4bc190;}.cls-13,.cls-14,.cls-16,.cls-6{fill:#fff;}.cls-15,.cls-6{opacity:0.2;}.cls-15,.cls-7{fill:#393c54;}.cls-14,.cls-7{opacity:0.3;}.cls-8{stroke-width:9px;}.cls-10,.cls-9{stroke:#fff;}.cls-9{opacity:0.4;}.cls-10{stroke-width:2px;opacity:0.6;}.cls-11{opacity:0.5;}.cls-12{fill:#f85565;}.cls-13{opacity:0.15;}</style></defs><title/><circle class="cls-1" cx="76.88" cy="75.63" r="7.38"/><circle class="cls-1" cx="89" cy="77.75" r="6.75"/><circle class="cls-1" cx="98.87" cy="79.87" r="5.63"/><circle class="cls-1" cx="51.13" cy="75.63" r="7.38"/><circle class="cls-1" cx="39" cy="77.75" r="6.75"/><circle class="cls-1" cx="29.13" cy="79.87" r="5.63"/><path class="cls-2" d="M16.75,85.75S22.75,55,32.5,40C51.25,51,64,79,64,79"/><path class="cls-2" d="M113.25,85.75S107.25,55,97.5,40C78.75,51,66,79,66,79"/><path class="cls-3" d="M122.25,89.5a124.7,124.7,0,0,0-8.5-35.5S98.5,69.25,92.5,81.75C85.17,38.67,64,21.5,64,21.5S42.33,39.67,35,81.75C29,69.25,13.75,54,13.75,54,9,66.12,6,78,5.25,89.5"/><circle class="cls-4" cx="64" cy="74.5" r="8.5"/><rect class="cls-5" height="9.27" rx="0.94" ry="0.94" transform="translate(-33.51 66.9) rotate(-45)" width="9.27" x="59.37" y="69.26"/><path class="cls-6" d="M66.34,71.56l-1.68-1.68a.94.94,0,0,0-1.32,0L60.72,72.5l1.68,1.68a.94.94,0,0,0,1.32,0Z"/><path class="cls-7" d="M69.89,73.24,68.68,72l-5,5a.94.94,0,0,1-1.32,0l-4-4-.27.27a.94.94,0,0,0,0,1.32l5.23,5.23a.94.94,0,0,0,1.32,0l5.23-5.23A.94.94,0,0,0,69.89,73.24Z"/><path class="cls-8" d="M6.67,92S17,81.67,64,81.67,121.33,92,121.33,92"/><path class="cls-9" d="M105.07,85.44q2.14.5,3.94,1"/><path class="cls-9" d="M89.7,82.92q3.49.38,6.51.84"/><path class="cls-9" d="M64,81.67c6.31,0,12,.19,17,.51"/><path class="cls-10" d="M73.83,81.83q3.77.13,7.17.35"/><path class="cls-11" d="M118.31,95C115.67,93.13,103,85.7,65,84.19,21.86,82.48,10.65,91,10.56,91a4.48,4.48,0,0,1-7.32-1.92,4.49,4.49,0,0,0,6.61,6.06c.09-.09,11-9,54.15-9,43.39,0,54.15,9,54.26,9.12l-.1-.1Z"/><path class="cls-1" d="M65.26,19.95a2,2,0,0,0-2.54,0c-.45.38-5.89,5.05-12.17,14.76,0,.26,0,.51,0,.77a14.33,14.33,0,0,0,1.09,5.33A81.68,81.68,0,0,1,64,24.23,75.64,75.64,0,0,1,76.4,40.86a14.34,14.34,0,0,0,1.1-5.36c0-.25,0-.5,0-.75C71.18,24.86,65.7,20.31,65.26,19.95Z"/><path class="cls-4" d="M75.5,35.5c0,7.29-7.36,13.48-10.31,15.66a2,2,0,0,1-2.39,0C59.86,49,52.5,42.79,52.5,35.5S59.86,22,62.81,19.84a2,2,0,0,1,2.39,0C68.14,22,75.5,28.21,75.5,35.5Z"/><path class="cls-12" d="M64,47c-3.82-3.11-7.5-7.51-7.5-11.52S60.18,27.08,64,24c3.82,3.11,7.5,7.51,7.5,11.52S67.82,43.92,64,47Z"/><path class="cls-13" d="M64,41.6c-2.16-2.27-3.5-4.54-3.5-6.1s1.34-3.83,3.5-6.1c2.16,2.27,3.5,4.54,3.5,6.1S66.16,39.33,64,41.6Z"/><path class="cls-14" d="M60.87,33.89A15.05,15.05,0,0,1,64,29.4V24a25.26,25.26,0,0,0-6.23,7.13Z"/><path class="cls-15" d="M69.42,41.24l-3.15-2.5A18.91,18.91,0,0,1,64,41.6V47A27.5,27.5,0,0,0,69.42,41.24Z"/><path class="cls-16" d="M82.07,76.75,83,75.19a.32.32,0,0,1,.59.06L84.13,77l1.56.91a.32.32,0,0,1-.06.59L83.92,79,83,80.59a.32.32,0,0,1-.59-.06l-.57-1.72-1.56-.91a.32.32,0,0,1,.06-.59Z"/><path class="cls-16" d="M70.13,30.9,71,29a.38.38,0,0,1,.69,0l.9,1.92,1.95.84a.38.38,0,0,1,0,.69l-1.92.9-.84,1.95a.38.38,0,0,1-.69,0l-.9-1.92-1.95-.84a.38.38,0,0,1,0-.69Z"/></svg>