<?xml version="1.0" ?><svg data-name="Layer 1" id="Layer_1" viewBox="0 0 128 128" xmlns="http://www.w3.org/2000/svg"><defs><style>.cls-1{fill:#515570;}.cls-2,.cls-3,.cls-4,.cls-5{fill:none;stroke:#00adfe;stroke-miterlimit:10;}.cls-2,.cls-3,.cls-4,.cls-5,.cls-6{stroke-linecap:round;}.cls-2,.cls-5{stroke-width:4px;}.cls-3,.cls-4{stroke-width:3px;}.cls-4{stroke-dasharray:0.09 8.71;}.cls-5{stroke-dasharray:0.09 8.92;}.cls-6{fill:#fff;stroke:#393c54;stroke-linejoin:round;stroke-width:6px;}.cls-7{fill:#f8dc25;}</style></defs><title/><path class="cls-1" d="M41.48,93.8l-1.25,0-.6,14.28a2.07,2.07,0,0,1-1.89,2l-12.65,1.12A2.07,2.07,0,0,1,22.83,109L23.6,94.2,6.21,94.6a2.07,2.07,0,0,1-2.09-2.42L8.93,63.66a2.07,2.07,0,0,1,2-1.73h9.85a2.07,2.07,0,0,1,2,2.44L19.21,84.74l4.92-.15,1.32-26.28a2.07,2.07,0,0,1,2.07-2h12a2.07,2.07,0,0,1,2.07,2.16L40.59,84l.73,0A2.07,2.07,0,0,1,43.5,86v5.71A2.07,2.07,0,0,1,41.48,93.8Z"/><path class="cls-1" d="M121.48,50.8l-1.25,0-.6,14.28a2.07,2.07,0,0,1-1.89,2l-12.65,1.12A2.07,2.07,0,0,1,102.83,66l.77-14.83-17.39.39a2.07,2.07,0,0,1-2.09-2.42l4.81-28.51a2.07,2.07,0,0,1,2-1.73h9.85a2.07,2.07,0,0,1,2,2.44L99.21,41.74l4.92-.15,1.32-26.28a2.07,2.07,0,0,1,2.07-2h12a2.07,2.07,0,0,1,2.07,2.16l-1,25.49.73,0A2.07,2.07,0,0,1,123.5,43v5.71A2.07,2.07,0,0,1,121.48,50.8Z"/><path class="cls-2" d="M75.83,54.64l.69.48a14.84,14.84,0,0,1,4.26,19,11.87,11.87,0,0,1-16.07,4.85,9.5,9.5,0,0,1-3.88-12.86A7.6,7.6,0,0,1,71.12,63a6.08,6.08,0,0,1,2.48,8.23,4.86,4.86,0,0,1-6.58,2,3.89,3.89,0,0,1-1.59-5.27,3.11,3.11,0,0,1,4.21-1.27,2.49,2.49,0,0,1,1,3.37,2,2,0,0,1-2.7.81,1.59,1.59,0,0,1-.65-2.16A1.27,1.27,0,0,1,69,68.14a1,1,0,0,1,.42,1.38"/><path class="cls-3" d="M56,91a23.19,23.19,0,0,1-6.42-29.44,18.55,18.55,0,0,1,21.64-9"/><path class="cls-3" d="M87,92.64l0,0"/><path class="cls-4" d="M78.88,95.74a28.9,28.9,0,0,1-13.12-.21"/><path class="cls-3" d="M61.62,94.16l0,0"/><path class="cls-3" d="M98.32,81.11a28.9,28.9,0,0,1-6.83,8.44"/><path class="cls-2" d="M62.52,85.08A14.84,14.84,0,0,1,56.46,65a11.87,11.87,0,0,1,16.07-4.85A9.5,9.5,0,0,1,76.41,73a7.6,7.6,0,0,1-10.29,3.1,6.08,6.08,0,0,1-2.48-8.23,4.86,4.86,0,0,1,6.58-2,3.89,3.89,0,0,1,1.59,5.27,3.11,3.11,0,0,1-4.21,1.27,2.49,2.49,0,0,1-1-3.37,2,2,0,0,1,2.7-.81,1.59,1.59,0,0,1,.65,2.16,1.27,1.27,0,0,1-1.73.52,1,1,0,0,1-.42-1.38"/><path class="cls-3" d="M61,42.87a28.85,28.85,0,0,1,17.13,3.24A23.18,23.18,0,0,1,87.63,77.5,18.55,18.55,0,0,1,68.4,87.06"/><path class="cls-2" d="M41.49,54l0,0"/><path class="cls-5" d="M48,47.81a29,29,0,0,1,3.93-2.28"/><path class="cls-2" d="M56,43.92h0"/><ellipse class="cls-6" cx="68.42" cy="69.5" rx="7.58" ry="7.43"/><circle class="cls-7" cx="55.22" cy="55.5" r="4"/><path class="cls-7" d="M39.64,81.33l.47-1.2a.4.4,0,0,1,.75,0l.47,1.2a3.63,3.63,0,0,0,2,2l1.2.47a.4.4,0,0,1,0,.75l-1.2.47a3.63,3.63,0,0,0-2,2l-.47,1.2a.4.4,0,0,1-.75,0l-.47-1.2a3.63,3.63,0,0,0-2-2l-1.2-.47a.4.4,0,0,1,0-.75l1.2-.47A3.63,3.63,0,0,0,39.64,81.33Z"/><path class="cls-7" d="M94,48.27l.47-1.2a.4.4,0,0,1,.75,0l.47,1.2a3.63,3.63,0,0,0,2,2l1.2.47a.4.4,0,0,1,0,.75l-1.2.47a3.63,3.63,0,0,0-2,2l-.47,1.2a.4.4,0,0,1-.75,0L94,54.07a3.63,3.63,0,0,0-2-2l-1.2-.47a.4.4,0,0,1,0-.75l1.2-.47A3.63,3.63,0,0,0,94,48.27Z"/><circle class="cls-7" cx="95.61" cy="95.63" r="1.6"/><circle class="cls-7" cx="42.02" cy="63.64" r="1.6"/><circle class="cls-7" cx="85.48" cy="42.04" r="1.6"/></svg>