<?xml version="1.0" ?><svg data-name="Layer 1" id="Layer_1" viewBox="0 0 128 128" xmlns="http://www.w3.org/2000/svg"><defs><style>.cls-1{fill:#393c54;}.cls-2{fill:#f85565;}.cls-3,.cls-4,.cls-5{fill:none;stroke:#4bc190;stroke-linecap:round;stroke-linejoin:round;stroke-width:3.07px;}.cls-4{stroke-dasharray:0.1 6.16;}.cls-5{stroke-dasharray:0.1 6.21;}.cls-6{fill:#fff;}</style></defs><title/><path class="cls-1" d="M126.17,57.65c-2.1-2.69-3.8-4.78-3.8-4.78s-43.18-19.31-43-16.4L80,46c-23.82,4.66-46.67,6-68.2,2.79A4,4,0,0,0,7.2,52.9L8.69,89.35l-1.77-.56L5.79,90.67,9.44,95.1A4,4,0,0,0,12.82,97,358.55,358.55,0,0,0,87,90l.91,3.41L86.17,95l3.7,4.62.14.18.1.12h0a4,4,0,0,0,5.82.08c11.83-12.23,22.48-24.52,31-36.91C128.13,61.33,128,60,126.17,57.65Z"/><path class="cls-2" d="M122.17,52.65c-13.79-11.27-27.58-20-41.37-25.18a4,4,0,0,0-5.42,4L76,41c-23.82,4.66-46.67,6-68.2,2.79A4,4,0,0,0,3.2,47.9L4.84,88.19a4,4,0,0,0,4,3.84A358.55,358.55,0,0,0,83,85l2.19,8.22A4,4,0,0,0,91.94,95c11.83-12.23,22.48-24.52,31-36.91A4,4,0,0,0,122.17,52.65Z"/><path class="cls-3" d="M9.46,49.8h0"/><path class="cls-4" d="M15.65,50.21c7,.36,14.33.37,21.72,0a303.36,303.36,0,0,0,49.08-6.55l.73-.15"/><line class="cls-3" x1="90.2" x2="90.25" y1="42.9" y2="42.89"/><line class="cls-3" x1="98.06" x2="98.01" y1="76.51" y2="76.53"/><path class="cls-5" d="M92,78C68.86,83.9,40,87.21,13.65,86.59"/><path class="cls-3" d="M10.55,86.5H10.5"/><path class="cls-6" d="M25.3,76.19c0,.34-.29.52-1,.55a2.09,2.09,0,0,1-.54,0c-.93-.22-1.45-.67-1.53-1.34a2.65,2.65,0,0,1,0-.36c0-.14,0-.31,0-.5s0-.36,0-.51a2.69,2.69,0,0,0,0-.36c0-.19,0-.44,0-.74s0-.65,0-1.05a14.62,14.62,0,0,1-4.62,2.08A2.63,2.63,0,0,1,17,74a4.28,4.28,0,0,1-2.77-1.06,2.09,2.09,0,0,1-.84-1.49,4.32,4.32,0,0,1,.35-1.85A19.45,19.45,0,0,1,18.25,63a4.55,4.55,0,0,1,2.93-1.61q1.2,0,1.42.6a.33.33,0,0,1,0,.16q0,.39-.47.58l-1.07.45a17.28,17.28,0,0,0-2.2,2.2A20.27,20.27,0,0,0,17,68.21a5.46,5.46,0,0,0-1,3.38l0,.27a1.28,1.28,0,0,0,.06.27.57.57,0,0,1,.19.17.36.36,0,0,0,.28.15h.09a25.32,25.32,0,0,0,5.83-2.91,1.82,1.82,0,0,0,.59-1,.78.78,0,0,1,.42-.45A1.42,1.42,0,0,1,24,68a.22.22,0,0,1,.12,0h.17l.26,0h.15a.56.56,0,0,1,.35.07,1.81,1.81,0,0,1,.71.93.59.59,0,0,1-.07.39,7,7,0,0,0-.52,1.56,6.55,6.55,0,0,0-.11,1.85Q25.2,74.45,25.3,76.19Z"/><path class="cls-6" d="M38.3,69.39a5.8,5.8,0,0,1-.88,1.37,6.64,6.64,0,0,1-1.22,1.12,6.18,6.18,0,0,1-1.52.77,6.37,6.37,0,0,1-1.77.34,5.83,5.83,0,0,1-1.51-.15,6.46,6.46,0,0,1-1.65-.6,5.42,5.42,0,0,1-1.4-1,2.6,2.6,0,0,1-.72-1.48,3.81,3.81,0,0,1,.16-1.57,6.71,6.71,0,0,1,.77-1.72A5.42,5.42,0,0,1,29.82,65a2.74,2.74,0,0,1,1.61-.62,1.27,1.27,0,0,1,.35,0l.32.09.43.14a6.49,6.49,0,0,0,.7.19l.65.14.86.15a4.55,4.55,0,0,1,1.62.56,5.13,5.13,0,0,1,1.13.9,3.8,3.8,0,0,1,.67,1,3.37,3.37,0,0,1,.28.78A1.49,1.49,0,0,1,38.3,69.39Zm-2.66-1.1A3.83,3.83,0,0,0,34.93,67a1.25,1.25,0,0,0-1-.44,1,1,0,0,0-.45.18q-.27.17-.53.36l-.5.36a.82.82,0,0,1-.33.17,1.46,1.46,0,0,1-.6-.14,1.5,1.5,0,0,0-.48-.14.68.68,0,0,0-.5.24,1.62,1.62,0,0,0-.31.52,2.39,2.39,0,0,0-.14.64,2.69,2.69,0,0,0,0,.58,2.06,2.06,0,0,0,.39.94,3.43,3.43,0,0,0,.7.7,3.14,3.14,0,0,0,.77.43,1.56,1.56,0,0,0,.56.13,2.93,2.93,0,0,0,1.19-.34,4.4,4.4,0,0,0,1.07-.76,3.76,3.76,0,0,0,.74-1,1.59,1.59,0,0,0,.19-1Z"/><path class="cls-6" d="M46.92,74a3.39,3.39,0,0,1,.29-1.91,5.84,5.84,0,0,0,.58-2.19c0-.11-.18-.21-.47-.32s-.48-.22-.5-.3a.21.21,0,0,1,.08-.21,1.14,1.14,0,0,1,.6-.24c.33-.08.51-.18.53-.27q.35-1,1-3.85.26-1.24.51-2.16t.5-1.59q.12-.29.68-.35a1.64,1.64,0,0,1,.78.1A2.6,2.6,0,0,1,52.85,62l.36.79c.12.27.23.53.33.79q1.26,2.24,2.49,4a38.71,38.71,0,0,0,2.42,3.2,1.4,1.4,0,0,1,.32.52.73.73,0,0,1-.35.75,1.58,1.58,0,0,1-.64.36,2.38,2.38,0,0,1-2.26-1.31,11.45,11.45,0,0,0-1.58-2.37l-2,.35a4.3,4.3,0,0,0-1.75.67q-.09.33-.2.89T49.72,72a9.26,9.26,0,0,1-.54,2.29q-.1.25-.57.3l-.2,0a.79.79,0,0,1-.24,0c-.71-.06-1.11-.23-1.21-.49Zm6.22-6.36q-.15-.38-.33-.78a9.11,9.11,0,0,0-.43-.81q-.24-.38-.46-.76l-.46-.76a31.09,31.09,0,0,0-.86,3.43C50.93,67.87,51.77,67.76,53.14,67.61Z"/><path class="cls-6" d="M61.84,70.19a15.12,15.12,0,0,1-1-1.71q-.53-1.05-1.13-2.5t-1.11-2.5a15.83,15.83,0,0,0-.94-1.7.42.42,0,0,1,0-.46A.59.59,0,0,1,58.1,61a4.48,4.48,0,0,1,.58-.11,1.84,1.84,0,0,1,1.39.33q.43.79,1.31,2.76c.59,1.32,1.33,3,2.25,5.18A23.54,23.54,0,0,0,64,66.65c0-.26,0-.55,0-.88s0-.7,0-1.12c0-.26.06-.52.08-.77s0-.51,0-.77a.82.82,0,0,1,.78-1,4.29,4.29,0,0,1,.67,0c0,.07.14.11.3.1a.56.56,0,0,1,.28,0,7.7,7.7,0,0,1,1.66,2.37q.6,1.06,1.14,2.09t1,2q-.07-1.78-.07-3.09c0-.87,0-1.6,0-2.2a9.32,9.32,0,0,1,.69-3.46q.14-.28.78-.38a2.78,2.78,0,0,1,.85,0q.73.1.85.5a1.25,1.25,0,0,1-.14.78,4.85,4.85,0,0,0-.2.53c0,.13-.06.2-.07.23q-.15.76-.26,1.89t-.17,2.66q-.06,1.52-.14,2.64a16.18,16.18,0,0,1-.22,1.84c0,.27-.35.46-.92.55a2.86,2.86,0,0,1-.73,0,3,3,0,0,1-2-1.15,2.69,2.69,0,0,1-.25-.44q-.21-.41-.64-1.18Q67,67.77,66.66,67t-.83-1.75q-.08,1.11-.12,2.05c0,.63-.06,1.21-.08,1.73a3.76,3.76,0,0,1-.8,2.55,1.23,1.23,0,0,1-.84.16,1.72,1.72,0,0,1-1.49-.51Z"/><path class="cls-6" d="M75.82,70a3.25,3.25,0,0,1,.13-1.87A5.56,5.56,0,0,0,76.32,66c0-.1-.19-.19-.49-.27s-.49-.17-.51-.25a.2.2,0,0,1,.06-.21A1.14,1.14,0,0,1,76,65c.32-.11.49-.21.5-.31q.25-1,.61-3.8.15-1.22.32-2.13t.36-1.58q.09-.29.64-.39a1.65,1.65,0,0,1,.78,0,2.57,2.57,0,0,1,1.47,1.15l.42.73q.21.38.39.74,1.44,2.06,2.81,3.69A38.38,38.38,0,0,0,86.93,66a1.36,1.36,0,0,1,.36.48.7.7,0,0,1-.28.75,1.56,1.56,0,0,1-.6.4,2.37,2.37,0,0,1-2.35-1.08,11.18,11.18,0,0,0-1.76-2.16l-2,.51a4.28,4.28,0,0,0-1.67.79q-.06.33-.12.88t-.1,1.35a8.84,8.84,0,0,1-.34,2.27q-.08.25-.53.34l-.2,0a.8.8,0,0,1-.24,0c-.71,0-1.12-.13-1.23-.37Zm5.59-6.68c-.12-.24-.25-.48-.39-.73a8.48,8.48,0,0,0-.49-.75L80,61.16l-.52-.7a29.6,29.6,0,0,0-.55,3.4C79.24,63.76,80.07,63.58,81.41,63.32Z"/><path class="cls-6" d="M90,61.18q-1.66-1.55-3-2.62t-2.32-1.76a.28.28,0,0,1-.15-.17c0-.14,0-.29.23-.45a1.48,1.48,0,0,1,.65-.32h.66l.5,0a9.75,9.75,0,0,1,1,.65l1.12.84,2,1.58q.19-1.22.38-2.43a7,7,0,0,1,.72-2.41.94.94,0,0,1,.71-.44,2.72,2.72,0,0,1,1.47,0,18.2,18.2,0,0,1-.26,2.62q-.25,1.5-.74,3.41-.6,2.23-.93,3.74t-.45,2.32a2,2,0,0,0,.12.76,2.61,2.61,0,0,0,.11.27,2.23,2.23,0,0,1,.1.22,1,1,0,0,1,0,.17.63.63,0,0,0,0,.11q.15.66-1,.91a2.9,2.9,0,0,1-1.1,0c-.41-.07-.65-.2-.72-.39a6.29,6.29,0,0,1-.2-1.5,7.81,7.81,0,0,1,.21-1.81Q89.62,62.85,90,61.18Z"/></svg>