<?xml version="1.0" ?><svg data-name="Layer 1" id="Layer_1" viewBox="0 0 128 128" xmlns="http://www.w3.org/2000/svg" xmlns:xlink="http://www.w3.org/1999/xlink"><defs><style>.cls-1{fill:none;}.cls-2{fill:#393c54;}.cls-3{clip-path:url(#clip-path);}.cls-4{fill:#f85565;}.cls-5{fill:#f8dc25;}.cls-6{fill:#4bc190;}.cls-7{fill:#00adfe;}.cls-8{fill:#356cb6;}.cls-9{clip-path:url(#clip-path-2);}.cls-10{clip-path:url(#clip-path-3);}.cls-11{clip-path:url(#clip-path-4);}</style><clipPath id="clip-path"><path class="cls-1" d="M3,44H16.87A10.11,10.11,0,0,1,24,46.5a8.55,8.55,0,0,1,2.73,6.61,8.8,8.8,0,0,1-1.63,5.34,11.27,11.27,0,0,1-4.93,3.61A11.43,11.43,0,0,1,27,65.16a9.27,9.27,0,0,1,2.29,6.63A10,10,0,0,1,25.6,80q-3.73,3-10.08,3H3Zm9,7v7h1A4.41,4.41,0,0,0,16,57a3.53,3.53,0,0,0,1.12-2.77,3.13,3.13,0,0,0-.87-2.42A3.78,3.78,0,0,0,13.61,51Zm0,15v9h2.9a5.2,5.2,0,0,0,3.58-1.26,4.43,4.43,0,0,0,0-6.52A5.29,5.29,0,0,0,14.9,66Z"/></clipPath><clipPath id="clip-path-2"><path class="cls-1" d="M41.76,44h9L61.06,83H51.34L49.9,75H42.18l-1.47,8H31.57Zm4.34,10.36L43.58,68h5Z"/></clipPath><clipPath id="clip-path-3"><path class="cls-1" d="M66,44H79.87A10.11,10.11,0,0,1,87,46.5a8.55,8.55,0,0,1,2.73,6.61,8.8,8.8,0,0,1-1.63,5.34,11.27,11.27,0,0,1-4.93,3.61A11.43,11.43,0,0,1,90,65.16a9.27,9.27,0,0,1,2.29,6.63A10,10,0,0,1,88.6,80q-3.73,3-10.08,3H66Zm9,7v7h1A4.41,4.41,0,0,0,79,57a3.53,3.53,0,0,0,1.12-2.77,3.13,3.13,0,0,0-.87-2.42A3.78,3.78,0,0,0,76.61,51Zm0,15v9h2.9a5.2,5.2,0,0,0,3.58-1.26,4.43,4.43,0,0,0,0-6.52A5.29,5.29,0,0,0,77.9,66Z"/></clipPath><clipPath id="clip-path-4"><path class="cls-1" d="M98,44h22v8H107v7h12v8H107v8h13v8H98Z"/></clipPath></defs><title/><path class="cls-2" d="M8,47l10-3c5,0,9.16,3.83,11,5.5a8.55,8.55,0,0,1,2.73,6.61,8.8,8.8,0,0,1-1.63,5.34,11.27,11.27,0,0,1-4.93,3.61A11.43,11.43,0,0,1,32,68.16a9.27,9.27,0,0,1,2.29,6.63A10,10,0,0,1,30.6,83q-3.73,3-10.08,3H8L3,83Zm9,7v7h1A4.41,4.41,0,0,0,21,60a3.53,3.53,0,0,0,1.12-2.77,3.13,3.13,0,0,0-.87-2.42A3.78,3.78,0,0,0,18.61,54Zm0,15v9h2.9a5.2,5.2,0,0,0,3.58-1.26,4.43,4.43,0,0,0,0-6.52A5.29,5.29,0,0,0,19.9,69Z"/><path class="cls-2" d="M50.75,44.08l5,2.92L66.06,86H56.34l-5-3,3.57-5H47.18l-1.47,8H36.57l-5-3Zm.34,13.28L48.58,71h5Z"/><path class="cls-2" d="M71,47l9.75-2.87c5.75,0,9.41,3.71,11.23,5.38a8.55,8.55,0,0,1,2.73,6.61,8.8,8.8,0,0,1-1.63,5.34,11.27,11.27,0,0,1-4.93,3.61A11.43,11.43,0,0,1,95,68.16a9.27,9.27,0,0,1,2.29,6.63A10,10,0,0,1,93.6,83q-3.73,3-10.08,3H71l-4.87-3Zm9,7v7h1A4.41,4.41,0,0,0,84,60a3.53,3.53,0,0,0,1.12-2.77,3.13,3.13,0,0,0-.87-2.42A3.78,3.78,0,0,0,81.61,54Zm0,15v9h2.9a5.2,5.2,0,0,0,3.58-1.26,4.43,4.43,0,0,0,0-6.52A5.29,5.29,0,0,0,82.9,69Z"/><path class="cls-2" d="M103,47l16.75-2.75L125,47v8H112v7l6.75-2.87L124,62v8H112v8l7.88-2.75L125,78v8H103l-4.87-3.12Z"/><g class="cls-3"><rect class="cls-4" height="8" width="30" x="1" y="75"/><rect class="cls-5" height="8" width="30" x="1" y="67"/><rect class="cls-6" height="8" width="30" x="1" y="59"/><rect class="cls-7" height="8" width="30" x="1" y="51"/><rect class="cls-8" height="8" width="30" x="1" y="43"/></g><g class="cls-9"><rect class="cls-4" height="8" width="31" x="31" y="75"/><rect class="cls-5" height="8" width="31" x="31" y="67"/><rect class="cls-6" height="8" width="31" x="31" y="59"/><rect class="cls-7" height="8" width="31" x="31" y="51"/><rect class="cls-8" height="8" width="31" x="31" y="43"/></g><g class="cls-10"><rect class="cls-4" height="8" width="30" x="64" y="75"/><rect class="cls-5" height="8" width="30" x="64" y="67"/><rect class="cls-6" height="8" width="30" x="64" y="59"/><rect class="cls-7" height="8" width="30" x="64" y="51"/><rect class="cls-8" height="8" width="30" x="64" y="43"/></g><g class="cls-11"><rect class="cls-4" height="8" width="30" x="93" y="75"/><rect class="cls-5" height="8" width="30" x="93" y="67"/><rect class="cls-6" height="8" width="30" x="93" y="59"/><rect class="cls-7" height="8" width="30" x="93" y="51"/><rect class="cls-8" height="8" width="30" x="93" y="43"/></g></svg>