<?xml version="1.0" ?><svg data-name="Layer 1" id="Layer_1" viewBox="0 0 128 128" xmlns="http://www.w3.org/2000/svg"><defs><style>.cls-1{fill:#00adfe;}.cls-2{fill:#f85565;}.cls-3{fill:#fff;}.cls-4,.cls-7{fill:none;stroke:#393c54;stroke-linecap:round;stroke-linejoin:round;stroke-width:2.28px;}.cls-5{fill:#393c54;}.cls-6{opacity:0.2;}.cls-7{stroke-dasharray:0.16 4.89;}</style></defs><title/><path class="cls-1" d="M125.3,48.88l-4.18-8.05L3.4,81.11l4.35,7.53a8.73,8.73,0,0,0,5.82,4.19L107.76,112a6.55,6.55,0,0,0,7.72-5.11l10.62-52.24A8.73,8.73,0,0,0,125.3,48.88Z"/><path class="cls-2" d="M113,110.83l-7.86-15.9L1.59,78.15,7.74,88.68a8.73,8.73,0,0,0,5.8,4.15L107.76,112A6.53,6.53,0,0,0,113,110.83Z"/><rect class="cls-3" height="65.49" rx="6.55" ry="6.55" transform="translate(13 -11) rotate(11.5)" width="110.24" x="6.04" y="26.33"/><rect class="cls-4" height="65.49" rx="6.55" ry="6.55" transform="translate(13 -11) rotate(11.5)" width="110.24" x="6.04" y="26.33"/><path class="cls-5" d="M28.57,70.14a8.69,8.69,0,0,1-6.81-10.25l3.41-16.75a8.71,8.71,0,0,1,10.28-6.8A8.38,8.38,0,0,1,41,40.06a8.47,8.47,0,0,1,1.25,6.54l-1,4.7-7.19-1.46,1-4.79a1.51,1.51,0,0,0-1.18-1.78,1.36,1.36,0,0,0-1.11.22,1.42,1.42,0,0,0-.64,1l-3.42,16.8A1.47,1.47,0,0,0,29.87,63,1.42,1.42,0,0,0,31,62.78a1.37,1.37,0,0,0,.64-.94l1.1-5.43,7.19,1.46-1.11,5.48a8.69,8.69,0,0,1-10.25,6.78Z"/><polygon class="cls-5" points="52.24 74.54 54.88 61.54 51.69 60.89 49.04 73.89 42.02 72.47 48.75 39.39 55.77 40.82 53.12 53.85 56.32 54.5 58.97 41.47 65.98 42.89 59.25 75.97 52.24 74.54"/><rect class="cls-5" height="7.16" transform="translate(-2.86 118.9) rotate(-78.5)" width="33.75" x="54.45" y="57.62"/><path class="cls-5" d="M85.08,81.63a8.68,8.68,0,0,1-6.81-10.25l3.41-16.75a8.7,8.7,0,1,1,17.06,3.47l-1,4.7L90.6,61.33l1-4.79a1.52,1.52,0,0,0-1.18-1.78,1.36,1.36,0,0,0-1.11.22,1.42,1.42,0,0,0-.64,1l-3.42,16.8a1.47,1.47,0,0,0,1.16,1.75,1.42,1.42,0,0,0,1.14-.22,1.36,1.36,0,0,0,.64-.94l1.1-5.43,7.19,1.46-1.11,5.48a8.68,8.68,0,0,1-10.25,6.78Z"/><g class="cls-6"><line class="cls-4" x1="19.57" x2="19.65" y1="23.51" y2="23.53"/><line class="cls-7" x1="24.44" x2="111.22" y1="24.5" y2="42.15"/><line class="cls-4" x1="113.61" x2="113.69" y1="42.64" y2="42.66"/></g><g class="cls-6"><line class="cls-4" x1="8.91" x2="8.99" y1="75.92" y2="75.94"/><line class="cls-7" x1="13.78" x2="100.56" y1="76.92" y2="94.56"/><line class="cls-4" x1="102.95" x2="103.03" y1="95.05" y2="95.07"/></g></svg>