<?xml version="1.0" ?><svg data-name="Layer 1" id="Layer_1" viewBox="0 0 128 128" xmlns="http://www.w3.org/2000/svg"><defs><style>.cls-1{fill:#393c54;}.cls-2{fill:#f85565;}.cls-3{fill:#f8dc25;}</style></defs><title/><path class="cls-1" d="M40.78,96.1,28.65,97.28l-3-1.95,2.72-24.61L22,71.54l0,23.65L9.81,96.64l-3-1.89L19.67,25.5l3.07,1.83-.4,29.38,5.91-.45L38.42,25.5l3,1.93S40.78,79.54,40.78,96.1Z"/><path class="cls-1" d="M119.29,44.25l-7.1,1.27-.75,51.3L99.62,98.46l-3-2.13,2.6-50.44-8.07.27-2.86-2,30-18.17,3.29,1.79Z"/><path class="cls-2" d="M37.78,94.1,25.65,95.28l-.26-26.56L19,69.54l0,23.65L6.81,94.64c0-22.1-.22-50-.44-66.58,2.82-.27,11.25-2.18,13.36-2.73l-.4,29.38,5.91-.45L25,27.7a113,113,0,0,0,13.45-2.27C38.09,42.89,37.78,77.54,37.78,94.1Z"/><path class="cls-2" d="M68.22,88.92c-14.1,0-23.46-10.14-23.46-23.4,0-14.4,9-23.46,23.4-23.46S91.62,52.37,91.62,65.88C91.62,79.8,81.84,88.92,68.22,88.92ZM66,52.61c-2.64,0-3.84,1.68-3.84,4.74,0,6.18,3.78,21.06,8.7,21.06,2.58,0,4-1.62,4-5.52C74.88,67.62,70.62,52.61,66,52.61Z"/><path class="cls-2" d="M116.29,42.25l-7.1,1.27-.75,51.3L96.62,96.46l-.35-52.57-8.07.27S89.74,33.52,90.88,27a260.66,260.66,0,0,0,27.74-1.18Z"/><path class="cls-3" d="M68.22,93.92a28.62,28.62,0,0,1-19.5-7.16l-4,25.67a1,1,0,0,0,1.87.62L53,100.85l3.06,14.75a1,1,0,0,0,2,0l4-14.52,3.84,13.12a1,1,0,0,0,2-.07c1-6.44,2.78-12.82,3-12.3a72.76,72.76,0,0,1,4,10.7,1,1,0,0,0,2-.13l1.83-10.33,7.6,10.11a1,1,0,0,0,1.86-.61L85.36,88.85A29.62,29.62,0,0,1,68.22,93.92Z"/><path class="cls-3" d="M47.92,44.39c4.92-4.69,11.86-7.34,20.24-7.34a29.5,29.5,0,0,1,16,4.43l3.76-23.9A1,1,0,0,0,86.07,17L79.63,29.15,76.56,12.4a1,1,0,0,0-2,0l-4,15.52L66.79,12.78a1,1,0,0,0-2,.07c-1,6.44-2.78,16.82-3,16.3s-2.47-9.09-4-14.7a1,1,0,0,0-2,.13L54.13,30.9l-7.6-13.11a1,1,0,0,0-1.86.61l3,26Z"/></svg>