<?xml version="1.0" ?><svg data-name="Layer 1" id="Layer_1" viewBox="0 0 128 128" xmlns="http://www.w3.org/2000/svg"><defs><style>.cls-1{fill:#515570;}.cls-2{fill:none;stroke:#393c54;stroke-linecap:round;stroke-linejoin:round;stroke-width:2.28px;}.cls-3{fill:#fff;}.cls-4{fill:#f85565;}.cls-5{fill:#393c54;opacity:0.2;}</style></defs><title/><path class="cls-1" d="M92.5,96h-4c-1.93,5.43-1.4,9.16,0,15-7-4.07-11.55-7.39-14.25-15H35.5A31.5,31.5,0,0,1,4,64.5H4A31.29,31.29,0,0,1,35.25,33c1.86-4.93,1.47-8.75,0-15,5.9,4.95,11.81,8.56,13.25,15h44A31.5,31.5,0,0,1,124,64.5h0A31.5,31.5,0,0,1,92.5,96Z"/><path class="cls-2" d="M92.5,96h-4c-1.93,5.43-1.4,9.16,0,15-7-4.07-11.55-7.39-14.25-15H35.5A31.5,31.5,0,0,1,4,64.5H4A31.29,31.29,0,0,1,35.25,33c1.86-4.93,1.47-8.75,0-15C42,22,47.06,26.56,48.5,33h44A31.5,31.5,0,0,1,124,64.5h0A31.5,31.5,0,0,1,92.5,96Z"/><path class="cls-3" d="M41.83,52.15,34,65.4,40.37,77a2,2,0,0,1-1.75,3h-5a2,2,0,0,1-1.83-1.19l-3.11-7-3.48,6.72a2,2,0,0,1-2.46,1L18,77.68a2,2,0,0,1-1-3l6.1-9.61-5.52-10a2,2,0,0,1,1.28-2.91l5-1.21a2,2,0,0,1,2.32,1.19l2.66,6.53,4.66-8.52a2,2,0,0,1,1.75-1h4.85A2,2,0,0,1,41.83,52.15Z"/><path class="cls-3" d="M89.49,52.15,81.68,65.4l7.09,13a2,2,0,0,1-1.75,3H82.2a2,2,0,0,1-1.8-1.13L76.31,71.7l-3.48,6.72a2,2,0,0,1-2.46,1l-4.73-1.71a2,2,0,0,1-1-3l6.1-9.61-5.52-10a2,2,0,0,1,1.28-2.91l5-1.21a2,2,0,0,1,2.32,1.19l2.66,6.53,4.66-8.52a2,2,0,0,1,1.75-1h4.85A2,2,0,0,1,89.49,52.15Z"/><path class="cls-4" d="M52,52A13.31,13.31,0,1,0,64.9,65.29,13.1,13.1,0,0,0,52,52Zm0,18a4.74,4.74,0,1,1,4.29-4.72A4.52,4.52,0,0,1,52,70Z"/><path class="cls-4" d="M100.1,52A13.31,13.31,0,1,0,113,65.29,13.1,13.1,0,0,0,100.1,52Zm0,18a4.74,4.74,0,1,1,4.29-4.72A4.52,4.52,0,0,1,100.1,70Z"/><path class="cls-4" d="M59,60.07h0A4.92,4.92,0,0,0,52.05,60L52,60a4.92,4.92,0,0,0-7,0h0a4.92,4.92,0,0,0,0,7L51.09,73l.4.4a.8.8,0,0,0,1.13,0L59,67A4.92,4.92,0,0,0,59,60.07Z"/><path class="cls-5" d="M59,60.07h0A4.92,4.92,0,0,0,52.05,60L52,60a4.92,4.92,0,0,0-7,0h0a4.92,4.92,0,0,0,0,7L51.09,73l.4.4a.8.8,0,0,0,1.13,0L59,67A4.92,4.92,0,0,0,59,60.07Z"/><path class="cls-4" d="M107,60.07h0a4.92,4.92,0,0,0-6.91-.05L100,60a4.92,4.92,0,0,0-7,0h0a4.92,4.92,0,0,0,0,7L99.09,73l.4.4a.8.8,0,0,0,1.13,0L107,67A4.92,4.92,0,0,0,107,60.07Z"/><path class="cls-5" d="M107,60.07h0a4.92,4.92,0,0,0-6.91-.05L100,60a4.92,4.92,0,0,0-7,0h0a4.92,4.92,0,0,0,0,7L99.09,73l.4.4a.8.8,0,0,0,1.13,0L107,67A4.92,4.92,0,0,0,107,60.07Z"/></svg>