<?xml version="1.0" ?><svg data-name="Layer 1" id="Layer_1" viewBox="0 0 128 128" xmlns="http://www.w3.org/2000/svg"><defs><style>.cls-1{fill:#fff;}.cls-2{fill:#f8dc25;}.cls-3,.cls-4{fill:none;stroke-linejoin:round;}.cls-3{stroke:#393c54;stroke-linecap:round;stroke-width:3px;}.cls-4{stroke:#f85565;stroke-width:2px;}.cls-5{fill:#f2bc0f;}.cls-6{fill:#393c54;}.cls-7{fill:#f85565;}.cls-8{fill:#00adfe;}</style></defs><title/><path class="cls-1" d="M64.27,81.4a24.26,24.26,0,0,1-9.63-2A24.73,24.73,0,0,1,41.48,66.29a24.75,24.75,0,0,1,0-19.27A24.74,24.74,0,0,1,54.64,33.86a24.75,24.75,0,0,1,19.27,0A24.73,24.73,0,0,1,87.07,47a24.75,24.75,0,0,1,0,19.27A24.74,24.74,0,0,1,73.91,79.45,24.27,24.27,0,0,1,64.27,81.4Z"/><path class="cls-2" d="M64.27,34.9a21.19,21.19,0,0,1,8.45,1.71A21.74,21.74,0,0,1,84.31,48.2a21.75,21.75,0,0,1,0,16.9A21.74,21.74,0,0,1,72.73,76.69a21.75,21.75,0,0,1-16.9,0A21.74,21.74,0,0,1,44.24,65.1a21.75,21.75,0,0,1,0-16.9A21.74,21.74,0,0,1,55.82,36.61a21.18,21.18,0,0,1,8.45-1.71m0-6a27.24,27.24,0,0,0-10.82,2.2A27.74,27.74,0,0,0,38.72,45.83a27.75,27.75,0,0,0,0,21.64A27.74,27.74,0,0,0,53.46,82.2a27.75,27.75,0,0,0,21.64,0A27.74,27.74,0,0,0,89.83,67.47a27.75,27.75,0,0,0,0-21.64A27.74,27.74,0,0,0,75.1,31.1a27.25,27.25,0,0,0-10.82-2.2Z"/><path class="cls-3" d="M42.53,56.65a21.17,21.17,0,0,1,1.71-8.45A21.74,21.74,0,0,1,55.82,36.61a21.75,21.75,0,0,1,16.9,0A21.74,21.74,0,0,1,84.31,48.2a21.75,21.75,0,0,1,0,16.9A21.74,21.74,0,0,1,72.73,76.69a21.75,21.75,0,0,1-16.9,0A21.74,21.74,0,0,1,44.24,65.1,21.16,21.16,0,0,1,42.53,56.65Z"/><path class="cls-1" d="M17,95.14a3,3,0,0,1-3-2.55l-6.16-41a3,3,0,0,1,2.52-3.41l13.64-2.05a3.07,3.07,0,0,1,.45,0,3,3,0,0,1,3,2.55l4,26.28,10.32-1.55a3.07,3.07,0,0,1,.45,0,3,3,0,0,1,3,2.55l1.77,11.74a3,3,0,0,1-2.52,3.41l-26.93,4A3.07,3.07,0,0,1,17,95.14Z"/><path class="cls-2" d="M24.52,49.1l4.4,29.24,13.28-2L44,88.09,17,92.14l-6.16-41L24.52,49.1M22.45,86.3,37.81,84l-.22-1.47L23.83,84.58,19.36,54.9l-1.6.24L22.45,86.3m2.07-43.2a6,6,0,0,0-.89.07L10,45.22a6,6,0,0,0-5,6.83l6.16,41a6,6,0,0,0,6.83,5l26.93-4a6,6,0,0,0,5-6.83L48.14,75.45a6,6,0,0,0-6.83-5L34,71.52,30.46,48.21a6,6,0,0,0-5.93-5.11Z"/><path class="cls-3" d="M10.88,51.15,24.52,49.1l4.4,29.24,13.28-2L44,88.09,17,92.14Z"/><path class="cls-1" d="M114.14,96.1a3,3,0,0,1-.75-.1L87,89.17a3,3,0,0,1-2.15-3.66l10.4-40.12a3,3,0,0,1,3.66-2.15l13.35,3.46a3,3,0,0,1,2.15,3.66l-6.67,25.72,10.1,2.62A3,3,0,0,1,120,82.36l-3,11.49a3,3,0,0,1-2.9,2.25Z"/><path class="cls-2" d="M98.19,46.14l13.35,3.46-7.42,28.63,13,3.37-3,11.49L87.78,86.26l10.4-40.12m11.9,40.77.37-1.44L97,82l7.53-29.05L103,52.51,95,83l15,3.9M98.19,40.14a6,6,0,0,0-5.81,4.49L82,84.76a6,6,0,0,0,4.3,7.31l26.36,6.83a6,6,0,0,0,7.31-4.3l3-11.49a6,6,0,0,0-4.3-7.31l-7.2-1.87,5.92-22.82A6,6,0,0,0,113,43.8L99.69,40.34a6,6,0,0,0-1.51-.19Z"/><path class="cls-3" d="M98.19,46.14l13.35,3.46-7.42,28.63,13,3.37-3,11.49L87.78,86.26Z"/><polygon class="cls-4" points="37.81 83.99 37.59 82.51 23.83 84.58 19.36 54.9 17.77 55.14 22.45 86.3 37.81 83.99"/><polygon class="cls-4" points="110.08 86.91 110.46 85.47 96.98 81.97 104.52 52.92 102.95 52.52 95.04 83.01 110.08 86.91"/><path class="cls-2" d="M64.27,72.56a15.47,15.47,0,0,0,6.18-1.24,16,16,0,0,0,8.48-8.48,16,16,0,0,0,0-12.37A16,16,0,0,0,70.46,42a16,16,0,0,0-12.37,0,16,16,0,0,0-8.48,8.48,16,16,0,0,0,0,12.37,16,16,0,0,0,8.48,8.48,15.47,15.47,0,0,0,6.18,1.24"/><path class="cls-5" d="M79.06,55.15A19.43,19.43,0,0,1,68.77,65.43a19.4,19.4,0,0,1-15,0,19.72,19.72,0,0,1-4.05-2.36,15.95,15.95,0,0,0,8.37,8.25,16,16,0,0,0,12.37,0,16,16,0,0,0,8.48-8.48,15.49,15.49,0,0,0,1.24-6.18,16,16,0,0,0-.4-3.55A18.25,18.25,0,0,1,79.06,55.15Z"/><path class="cls-6" d="M71.62,59.84a1,1,0,0,1,.94,1.06,8.55,8.55,0,0,1-17,0,1,1,0,0,1,.94-1.06Z"/><path class="cls-7" d="M64.06,68.49a8.49,8.49,0,0,0,6.29-2.79,9,9,0,0,0-12.57,0A8.49,8.49,0,0,0,64.06,68.49Z"/><path class="cls-6" d="M72.4,53.84a14,14,0,0,1,4.42.7,5,5,0,0,0-8.83,0A14,14,0,0,1,72.4,53.84Z"/><path class="cls-6" d="M56.4,53.84a14,14,0,0,1,4.42.7,5,5,0,0,0-8.83,0A14,14,0,0,1,56.4,53.84Z"/><path class="cls-8" d="M78.4,58.84a2,2,0,0,1-4,0c0-1.1.9-4,2-4S78.4,57.73,78.4,58.84Z"/><path class="cls-8" d="M54.4,58.84a2,2,0,0,1-4,0c0-1.1.9-4,2-4S54.4,57.73,54.4,58.84Z"/></svg>