<?xml version="1.0" ?><svg data-name="Layer 1" id="Layer_1" viewBox="0 0 128 128" xmlns="http://www.w3.org/2000/svg"><defs><style>.cls-1{fill:#f85565;}.cls-2{fill:#f8dc25;}.cls-3{fill:#f2bc0f;}.cls-4{fill:#515570;}.cls-5{fill:#fff;}</style></defs><title/><path class="cls-1" d="M62.32,47.17,61.08,60.3a2.38,2.38,0,0,1-2.18,2.15l-29,2.27a2.38,2.38,0,0,1-2.56-2.42q.22-12.61.49-25.09.27-12.63.67-25.4A2.38,2.38,0,0,1,30.85,9.5H46.68A2.37,2.37,0,0,1,49,12.12Q48.27,19.55,47.55,27q-.84,8.72-1.2,17.59,1.88.08,3.71.08h3.71q2.24,0,4.39,0l1.74,0A2.38,2.38,0,0,1,62.32,47.17Z"/><path class="cls-1" d="M66,68.94,53.91,115a1.72,1.72,0,0,1-1.57,1.28l-15,.85a1.72,1.72,0,0,1-1.74-1.19L20.74,69.46a1.72,1.72,0,0,1,1.48-2.24L35.38,66a1.72,1.72,0,0,1,1.83,1.32L43.67,94.9l6.26-27.61A1.72,1.72,0,0,1,51.72,66l12.74.83A1.72,1.72,0,0,1,66,68.94Z"/><path class="cls-1" d="M99.39,65.51a1.72,1.72,0,0,1,1.72,1.83q-.15,2.4-.27,4.76-.14,2.52-.34,5.08a1.73,1.73,0,0,1-1.63,1.59l-13.51.7L85,83.92h8.71a1.72,1.72,0,0,1,1.72,1.84l-.54,7.59A1.72,1.72,0,0,1,93.22,95l-9.08.3-.35,5.17H97a1.72,1.72,0,0,1,1.72,1.82q-.17,3-.34,5.92t-.33,6.1a1.72,1.72,0,0,1-1.68,1.64l-27.13.63a1.72,1.72,0,0,1-1.76-1.76l1.06-47.58a1.72,1.72,0,0,1,1.72-1.68Z"/><path class="cls-2" d="M104,32.19c0,21.38-24.85,34.1-24.85,34.1S54.3,53.57,54.3,32.19a24.85,24.85,0,1,1,49.7,0Z"/><path class="cls-3" d="M104,32.19c0-.15,0-.29,0-.43-2.31,8.91-8.54,19.73-20.64,22.58-7.8,1.84-17,.67-22.18-3.25a59.21,59.21,0,0,0,18,15.2S104,53.57,104,32.19Z"/><path class="cls-4" d="M84.19,65.56h-10a14,14,0,0,0-.31,5.34,2.34,2.34,0,0,0,2,2,22.42,22.42,0,0,0,6.67,0,2.33,2.33,0,0,0,2-2A13.12,13.12,0,0,0,84.19,65.56Z"/><path class="cls-5" d="M59.7,30.23a17.39,17.39,0,0,1,.47-2.32c.19-.72.42-1.43.66-2.13a24.08,24.08,0,0,1,1.87-4,19.78,19.78,0,0,1,2.6-3.54,19.14,19.14,0,0,1,3.28-2.85,1.2,1.2,0,0,1,1.57,1.8l-.07.07a16.63,16.63,0,0,0-3.93,6.18A19.9,19.9,0,0,0,65.22,27c-.09.6-.17,1.2-.22,1.8a12.21,12.21,0,0,0,0,1.66,2.66,2.66,0,1,1-5.29-.11Z"/><circle class="cls-5" cx="73.08" cy="14" r="1.08"/></svg>