<?xml version="1.0" ?><svg data-name="Layer 1" id="Layer_1" viewBox="0 0 128 128" xmlns="http://www.w3.org/2000/svg"><defs><style>.cls-1{fill:#515570;}.cls-2{fill:#ffde39;}.cls-3{fill:#f9a74e;}.cls-4,.cls-6{fill:#382673;}.cls-4{opacity:0.2;}.cls-5{fill:#fec632;}.cls-6{opacity:0.1;}.cls-7{fill:none;stroke:#ffde39;stroke-linecap:round;stroke-linejoin:round;stroke-width:11.76px;}.cls-8{fill:#00adfe;}.cls-9{fill:#0b90d3;}</style></defs><title/><path class="cls-1" d="M118.36,88.52,100.51,89a2.19,2.19,0,0,1-2.19-2.75,82.39,82.39,0,0,0,2.67-17c0-3.91-2.12-7.05-7.22-7.05a35.87,35.87,0,0,0-5.1.43c-.34,7.22-.34,21.58-.34,24.39-5.42,0-15.24.45-21,.57a2.2,2.2,0,0,1-2.25-2.2c0-18.66-.41-42.77-.94-57.95a2.19,2.19,0,0,1,2-2.26l21-1.54a2.2,2.2,0,0,1,2.36,2.27l-.85,23.72L103,25.09A2.2,2.2,0,0,1,105.09,24l13.79,1.11a2.2,2.2,0,0,1,1.62,3.47L103.63,52.36c7.82.08,19.37,3.4,19.37,15.46a88.8,88.8,0,0,1-2.56,19A2.19,2.19,0,0,1,118.36,88.52Z"/><path class="cls-2" d="M24.15,112.82A86.36,86.36,0,0,1,8.76,100.57c-1.55-1.55-3-3.16-4.42-4.79L34.89,65.22,59,78Z"/><path class="cls-3" d="M45.47,22.62v38a6,6,0,0,1-4.63,5.93,5.89,5.89,0,0,1-7.13-5.75v-38a6,6,0,0,1,4.63-5.93A5.89,5.89,0,0,1,45.47,22.62Z"/><path class="cls-4" d="M44.28,19.14,35,30.75a5.84,5.84,0,0,0-1.28,3.65V51.86a6,6,0,0,0,4.63,5.93A5.89,5.89,0,0,0,45.47,52V22.65A5.83,5.83,0,0,0,44.28,19.14Z"/><path class="cls-5" d="M57.23,28.49a5.86,5.86,0,0,1-1.29,3.67L45.47,45.25V60.63a6,6,0,0,1-4.63,5.93,5.89,5.89,0,0,1-7.13-5.75V43.17A5.84,5.84,0,0,1,35,39.52L46.76,24.82a5.88,5.88,0,0,1,10.47,3.68Z"/><path class="cls-6" d="M55.2,33.08A23.26,23.26,0,0,0,35.37,64.63a5.81,5.81,0,0,0,5.74,1.71,6,6,0,0,0,4.37-5.84V45.23Z"/><path class="cls-7" d="M73.46,69.44C69.82,79.61,58.67,79.65,57.1,79.65a17.5,17.5,0,1,1,0-35c8.71,0,13.11,5.09,13.11,5.09"/><path class="cls-8" d="M18.92,83.13,35.73,99.94a2.09,2.09,0,0,0,3,0l7-7a2.09,2.09,0,0,0,0-3L28.89,73.16Z"/><circle class="cls-9" cx="39.28" cy="93.52" r="1.76" transform="translate(-54.63 55.17) rotate(-45)"/><circle class="cls-9" cx="34.29" cy="88.54" r="1.76" transform="translate(-52.56 50.18) rotate(-45)"/><rect class="cls-1" height="19.99" rx="2.35" ry="2.35" transform="translate(60.35 7.26) rotate(45)" width="5.88" x="18.47" y="66.49"/><path class="cls-4" d="M28.89,69.83,28.06,69a2.33,2.33,0,0,0-.47-.36,2.35,2.35,0,0,1-.36,2.85L16.42,82.3a2.35,2.35,0,0,1-2.85.36,2.33,2.33,0,0,0,.36.47l.83.83a2.35,2.35,0,0,0,3.33,0L28.89,73.16A2.35,2.35,0,0,0,28.89,69.83Z"/></svg>