<?xml version="1.0" ?><svg data-name="Layer 1" id="Layer_1" viewBox="0 0 128 128" xmlns="http://www.w3.org/2000/svg"><defs><style>.cls-1{fill:#fff;}.cls-2{fill:#00adfe;}.cls-3{fill:#f8dc25;}.cls-4{fill:#f85565;}</style></defs><title/><path class="cls-1" d="M22.42,83.25A17.29,17.29,0,0,1,5,69.1l-.24-1.19h6.5l.2.73c1.38,5,5.58,8,11,8s9.6-3.07,11-8l.2-.73H40.1l-.25,1.2A17.4,17.4,0,0,1,22.42,83.25Z"/><polygon class="cls-1" points="48.57 82.19 48.57 52.27 50.48 51.87 54.86 61.7 54.86 82.19 48.57 82.19"/><path class="cls-2" d="M22.42,46.4c11.11,0,19,8.29,19,18.81S33.53,84,22.42,84s-19-8.29-19-18.81S11.25,46.4,22.42,46.4Zm0,35.85A16.44,16.44,0,0,0,38.87,68.91H34.35c-1.41,5.11-5.76,8.76-11.93,8.76a11.87,11.87,0,0,1-11.93-8.76H6A16.3,16.3,0,0,0,22.42,82.25Zm0-6.41c6.23,0,10.23-4.7,10.23-10.64s-4-10.64-10.23-10.64-10.23,4.7-10.23,10.64S16.13,75.84,22.42,75.84Z"/><polygon class="cls-1" points="64.58 68.94 71.94 53.2 73.85 53.63 73.85 62.78 67.56 76.14 64.58 68.94"/><path class="cls-1" d="M88.21,62.56l.23-1.19A17.43,17.43,0,0,1,106,47c5.23,0,9.39,1.53,12.74,4.68l.76.72L114.74,57l-.67-.47A14.43,14.43,0,0,0,106,53.92c-5.48,0-9.72,3-11.09,7.91l-.2.73Z"/><path class="cls-3" d="M47.4,47.57h8.05l9,19,9.05-19h7.93V82.84H72.85V67.14L65.15,84H63.74L56,67V82.84H47.4Zm6.46,33.62V61.91l-4.29-9.64V81.19Zm19-18.63V53.63L65.68,69l1.94,4.7Z"/><path class="cls-4" d="M106,46.4a19.5,19.5,0,0,1,14.75,6.17l-6,5.52A13,13,0,0,0,106,54.57c-6.29,0-10.34,4.7-10.34,10.64,0,6.52,4.64,10.64,10.52,10.64,6.17,0,9.17-3.41,9.4-6.82H105.53V61.56h19.4v3.35c0,10.4-6.11,19.1-18.93,19.1-11.17,0-19.1-8.29-19.1-18.81S94.83,46.4,106,46.4Zm-12,15.16c1.41-5.05,5.88-8.64,12-8.64a15.46,15.46,0,0,1,8.64,2.82L118,52.45C115,49.57,111,48,106,48A16.47,16.47,0,0,0,89.42,61.56Z"/></svg>