<?xml version="1.0" ?><svg data-name="Layer 1" id="Layer_1" viewBox="0 0 128 128" xmlns="http://www.w3.org/2000/svg" xmlns:xlink="http://www.w3.org/1999/xlink"><defs><style>.cls-1,.cls-6{fill:none;}.cls-2{fill:#f8dc25;}.cls-3{clip-path:url(#clip-path);}.cls-4{fill:#f2bc0f;}.cls-5{fill:#fff;}.cls-6{stroke:#393c54;stroke-linecap:round;stroke-linejoin:round;stroke-width:3px;}.cls-7{fill:#356cb6;}.cls-8{fill:#00adfe;}</style><clipPath id="clip-path"><circle class="cls-1" cx="64" cy="64" r="58"/></clipPath></defs><title/><circle class="cls-2" cx="64" cy="64" r="58"/><g class="cls-3"><circle class="cls-4" cx="3.8" cy="14.65" r="3.65" transform="translate(-1.49 0.47) rotate(-5.9)"/><circle class="cls-4" cx="18.32" cy="13.15" r="3.65" transform="matrix(0.99, -0.1, 0.1, 0.99, -1.26, 1.95)"/><circle class="cls-4" cx="32.83" cy="11.65" r="3.65" transform="translate(-1.02 3.44) rotate(-5.9)"/><circle class="cls-4" cx="47.35" cy="10.15" r="3.65" transform="translate(-0.79 4.92) rotate(-5.9)"/><circle class="cls-4" cx="61.86" cy="8.65" r="3.65" transform="translate(-0.56 6.4) rotate(-5.9)"/><circle class="cls-4" cx="76.38" cy="7.15" r="3.65" transform="matrix(0.99, -0.1, 0.1, 0.99, -0.33, 7.89)"/><circle class="cls-4" cx="90.89" cy="5.65" r="3.65" transform="translate(-0.1 9.37) rotate(-5.9)"/><circle class="cls-4" cx="105.4" cy="4.16" r="3.65" transform="translate(0.13 10.86) rotate(-5.9)"/><circle class="cls-4" cx="5.3" cy="29.17" r="3.65" transform="translate(-2.97 0.7) rotate(-5.9)"/><circle class="cls-4" cx="19.82" cy="27.67" r="3.65" transform="translate(-2.74 2.18) rotate(-5.9)"/><circle class="cls-4" cx="34.33" cy="26.17" r="3.65" transform="matrix(0.99, -0.1, 0.1, 0.99, -2.51, 3.67)"/><circle class="cls-4" cx="48.85" cy="24.67" r="3.65" transform="translate(-2.28 5.15) rotate(-5.9)"/><circle class="cls-4" cx="63.36" cy="23.17" r="3.65" transform="translate(-2.05 6.64) rotate(-5.9)"/><circle class="cls-4" cx="77.88" cy="21.67" r="3.65" transform="translate(-1.81 8.12) rotate(-5.9)"/><circle class="cls-4" cx="92.39" cy="20.17" r="3.65" transform="translate(-1.58 9.6) rotate(-5.9)"/><circle class="cls-4" cx="106.9" cy="18.67" r="3.65" transform="translate(-1.35 11.09) rotate(-5.9)"/><circle class="cls-4" cx="6.8" cy="43.68" r="3.65" transform="translate(-4.45 0.93) rotate(-5.9)"/><circle class="cls-4" cx="21.32" cy="42.18" r="3.65" transform="translate(-4.22 2.41) rotate(-5.9)"/><circle class="cls-4" cx="35.83" cy="40.68" r="3.65" transform="translate(-3.99 3.9) rotate(-5.9)"/><circle class="cls-4" cx="50.35" cy="39.18" r="3.65" transform="translate(-3.76 5.38) rotate(-5.9)"/><circle class="cls-4" cx="64.86" cy="37.68" r="3.65" transform="translate(-3.53 6.87) rotate(-5.9)"/><circle class="cls-4" cx="79.38" cy="36.18" r="3.65" transform="matrix(0.99, -0.1, 0.1, 0.99, -3.3, 8.35)"/><circle class="cls-4" cx="93.89" cy="34.68" r="3.65" transform="translate(-3.07 9.83) rotate(-5.9)"/><circle class="cls-4" cx="108.4" cy="33.18" r="3.65" transform="translate(-2.84 11.32) rotate(-5.9)"/><circle class="cls-4" cx="8.3" cy="58.2" r="3.65" transform="matrix(0.99, -0.1, 0.1, 0.99, -5.94, 1.16)"/><circle class="cls-4" cx="22.82" cy="56.7" r="3.65" transform="translate(-5.71 2.65) rotate(-5.9)"/><circle class="cls-4" cx="37.33" cy="55.2" r="3.65" transform="translate(-5.48 4.13) rotate(-5.9)"/><circle class="cls-4" cx="51.85" cy="53.7" r="3.65" transform="translate(-5.25 5.61) rotate(-5.9)"/><circle class="cls-4" cx="66.36" cy="52.2" r="3.65" transform="translate(-5.01 7.1) rotate(-5.9)"/><circle class="cls-4" cx="80.88" cy="50.7" r="3.65" transform="translate(-4.78 8.58) rotate(-5.9)"/><circle class="cls-4" cx="95.39" cy="49.2" r="3.65" transform="translate(-4.55 10.07) rotate(-5.9)"/><circle class="cls-4" cx="109.9" cy="47.7" r="3.65" transform="translate(-4.32 11.55) rotate(-5.9)"/><circle class="cls-4" cx="9.8" cy="72.71" r="3.65" transform="translate(-7.42 1.39) rotate(-5.9)"/><circle class="cls-4" cx="24.32" cy="71.21" r="3.65" transform="translate(-7.19 2.88) rotate(-5.9)"/><circle class="cls-4" cx="38.83" cy="69.71" r="3.65" transform="matrix(0.99, -0.1, 0.1, 0.99, -6.96, 4.36)"/><circle class="cls-4" cx="53.35" cy="68.21" r="3.65" transform="translate(-6.73 5.84) rotate(-5.9)"/><circle class="cls-4" cx="67.86" cy="66.71" r="3.65" transform="translate(-6.5 7.33) rotate(-5.9)"/><circle class="cls-4" cx="82.37" cy="65.21" r="3.65" transform="translate(-6.27 8.81) rotate(-5.9)"/><circle class="cls-4" cx="96.89" cy="63.71" r="3.65" transform="matrix(0.99, -0.1, 0.1, 0.99, -6.04, 10.3)"/><circle class="cls-4" cx="111.4" cy="62.21" r="3.65" transform="translate(-5.8 11.78) rotate(-5.9)"/><circle class="cls-4" cx="11.3" cy="87.23" r="3.65" transform="translate(-8.91 1.62) rotate(-5.9)"/><circle class="cls-4" cx="25.82" cy="85.73" r="3.65" transform="translate(-8.68 3.11) rotate(-5.9)"/><circle class="cls-4" cx="40.33" cy="84.23" r="3.65" transform="translate(-8.44 4.59) rotate(-5.9)"/><circle class="cls-4" cx="54.85" cy="82.73" r="3.65" transform="translate(-8.21 6.08) rotate(-5.9)"/><circle class="cls-4" cx="69.36" cy="81.23" r="3.65" transform="translate(-7.98 7.56) rotate(-5.9)"/><circle class="cls-4" cx="83.87" cy="79.73" r="3.65" transform="translate(-7.75 9.04) rotate(-5.9)"/><circle class="cls-4" cx="98.39" cy="78.23" r="3.65" transform="translate(-7.52 10.53) rotate(-5.9)"/><circle class="cls-4" cx="112.9" cy="76.73" r="3.65" transform="translate(-7.29 12.01) rotate(-5.9)"/><circle class="cls-4" cx="12.8" cy="101.74" r="3.65" transform="matrix(0.99, -0.1, 0.1, 0.99, -10.39, 1.85)"/><circle class="cls-4" cx="27.32" cy="100.24" r="3.65" transform="translate(-10.16 3.34) rotate(-5.9)"/><circle class="cls-4" cx="41.83" cy="98.74" r="3.65" transform="matrix(0.99, -0.1, 0.1, 0.99, -9.93, 4.82)"/><circle class="cls-4" cx="56.35" cy="97.24" r="3.65" transform="matrix(0.99, -0.1, 0.1, 0.99, -9.7, 6.31)"/><circle class="cls-4" cx="70.86" cy="95.74" r="3.65" transform="translate(-9.47 7.79) rotate(-5.9)"/><circle class="cls-4" cx="85.37" cy="94.24" r="3.65" transform="translate(-9.23 9.27) rotate(-5.9)"/><circle class="cls-4" cx="99.89" cy="92.74" r="3.65" transform="matrix(0.99, -0.1, 0.1, 0.99, -9, 10.76)"/><circle class="cls-4" cx="114.4" cy="91.24" r="3.65" transform="translate(-8.77 12.24) rotate(-5.9)"/><circle class="cls-4" cx="14.3" cy="116.25" r="3.65" transform="translate(-11.87 2.09) rotate(-5.9)"/><circle class="cls-4" cx="28.82" cy="114.75" r="3.65" transform="matrix(0.99, -0.1, 0.1, 0.99, -11.64, 3.57)"/><circle class="cls-4" cx="43.33" cy="113.25" r="3.65" transform="translate(-11.41 5.05) rotate(-5.9)"/><circle class="cls-4" cx="57.85" cy="111.75" r="3.65" transform="translate(-11.18 6.54) rotate(-5.9)"/><circle class="cls-4" cx="72.36" cy="110.25" r="3.65" transform="translate(-10.95 8.02) rotate(-5.9)"/><circle class="cls-4" cx="86.87" cy="108.76" r="3.65" transform="translate(-10.72 9.51) rotate(-5.9)"/><circle class="cls-4" cx="101.39" cy="107.26" r="3.65" transform="matrix(0.99, -0.1, 0.1, 0.99, -10.49, 10.99)"/><circle class="cls-4" cx="115.9" cy="105.76" r="3.65" transform="translate(-10.26 12.47) rotate(-5.9)"/><circle class="cls-4" cx="11.81" cy="21.16" r="3.65" transform="translate(-2.11 1.33) rotate(-5.9)"/><circle class="cls-4" cx="26.33" cy="19.66" r="3.65" transform="translate(-1.88 2.81) rotate(-5.9)"/><circle class="cls-4" cx="40.84" cy="18.16" r="3.65" transform="translate(-1.65 4.29) rotate(-5.9)"/><circle class="cls-4" cx="55.35" cy="16.66" r="3.65" transform="translate(-1.42 5.78) rotate(-5.9)"/><circle class="cls-4" cx="69.87" cy="15.16" r="3.65" transform="translate(-1.19 7.26) rotate(-5.9)"/><circle class="cls-4" cx="84.38" cy="13.66" r="3.65" transform="matrix(0.99, -0.1, 0.1, 0.99, -0.96, 8.75)"/><circle class="cls-4" cx="98.9" cy="12.16" r="3.65" transform="translate(-0.73 10.23) rotate(-5.9)"/><circle class="cls-4" cx="113.41" cy="10.66" r="3.65" transform="translate(-0.5 11.71) rotate(-5.9)"/><circle class="cls-4" cx="13.31" cy="35.68" r="3.65" transform="matrix(0.99, -0.1, 0.1, 0.99, -3.6, 1.56)"/><circle class="cls-4" cx="27.83" cy="34.18" r="3.65" transform="matrix(0.99, -0.1, 0.1, 0.99, -3.37, 3.04)"/><circle class="cls-4" cx="42.34" cy="32.68" r="3.65" transform="matrix(0.99, -0.1, 0.1, 0.99, -3.13, 4.53)"/><circle class="cls-4" cx="56.85" cy="31.18" r="3.65" transform="translate(-2.9 6.01) rotate(-5.9)"/><circle class="cls-4" cx="71.37" cy="29.68" r="3.65" transform="translate(-2.67 7.49) rotate(-5.9)"/><circle class="cls-4" cx="85.88" cy="28.18" r="3.65" transform="matrix(0.99, -0.1, 0.1, 0.99, -2.44, 8.98)"/><circle class="cls-4" cx="100.4" cy="26.68" r="3.65" transform="translate(-2.21 10.46) rotate(-5.9)"/><circle class="cls-4" cx="114.91" cy="25.18" r="3.65" transform="translate(-1.98 11.95) rotate(-5.9)"/><circle class="cls-4" cx="14.81" cy="50.19" r="3.65" transform="matrix(0.99, -0.1, 0.1, 0.99, -5.08, 1.79)"/><circle class="cls-4" cx="29.33" cy="48.69" r="3.65" transform="matrix(0.99, -0.1, 0.1, 0.99, -4.85, 3.27)"/><circle class="cls-4" cx="43.84" cy="47.19" r="3.65" transform="translate(-4.62 4.76) rotate(-5.9)"/><circle class="cls-4" cx="58.35" cy="45.69" r="3.65" transform="translate(-4.39 6.24) rotate(-5.9)"/><circle class="cls-4" cx="72.87" cy="44.19" r="3.65" transform="translate(-4.16 7.72) rotate(-5.9)"/><circle class="cls-4" cx="87.38" cy="42.69" r="3.65" transform="matrix(0.99, -0.1, 0.1, 0.99, -3.93, 9.21)"/><circle class="cls-4" cx="101.9" cy="41.19" r="3.65" transform="translate(-3.69 10.69) rotate(-5.9)"/><circle class="cls-4" cx="116.41" cy="39.69" r="3.65" transform="translate(-3.46 12.18) rotate(-5.9)"/><circle class="cls-4" cx="16.31" cy="64.7" r="3.65" transform="matrix(0.99, -0.1, 0.1, 0.99, -6.56, 2.02)"/><circle class="cls-4" cx="30.82" cy="63.2" r="3.65" transform="matrix(0.99, -0.1, 0.1, 0.99, -6.33, 3.5)"/><circle class="cls-4" cx="45.34" cy="61.7" r="3.65" transform="translate(-6.1 4.99) rotate(-5.9)"/><circle class="cls-4" cx="59.85" cy="60.2" r="3.65" transform="translate(-5.87 6.47) rotate(-5.9)"/><circle class="cls-4" cx="74.37" cy="58.7" r="3.65" transform="translate(-5.64 7.96) rotate(-5.9)"/><circle class="cls-4" cx="88.88" cy="57.2" r="3.65" transform="matrix(0.99, -0.1, 0.1, 0.99, -5.41, 9.44)"/><circle class="cls-4" cx="103.4" cy="55.71" r="3.65" transform="translate(-5.18 10.92) rotate(-5.9)"/><circle class="cls-4" cx="117.91" cy="54.21" r="3.65" transform="translate(-4.95 12.41) rotate(-5.9)"/><circle class="cls-4" cx="17.81" cy="79.22" r="3.65" transform="translate(-8.05 2.25) rotate(-5.9)"/><circle class="cls-4" cx="32.32" cy="77.72" r="3.65" transform="translate(-7.82 3.73) rotate(-5.9)"/><circle class="cls-4" cx="46.84" cy="76.22" r="3.65" transform="translate(-7.59 5.22) rotate(-5.9)"/><circle class="cls-4" cx="61.35" cy="74.72" r="3.65" transform="translate(-7.36 6.7) rotate(-5.9)"/><circle class="cls-4" cx="75.87" cy="73.22" r="3.65" transform="translate(-7.12 8.19) rotate(-5.9)"/><circle class="cls-4" cx="90.38" cy="71.72" r="3.65" transform="translate(-6.89 9.67) rotate(-5.9)"/><circle class="cls-4" cx="104.9" cy="70.22" r="3.65" transform="translate(-6.66 11.15) rotate(-5.9)"/><circle class="cls-4" cx="119.41" cy="68.72" r="3.65" transform="translate(-6.43 12.64) rotate(-5.9)"/><circle class="cls-4" cx="19.31" cy="93.73" r="3.65" transform="translate(-9.53 2.48) rotate(-5.9)"/><circle class="cls-4" cx="33.82" cy="92.23" r="3.65" transform="translate(-9.3 3.97) rotate(-5.9)"/><circle class="cls-4" cx="48.34" cy="90.73" r="3.65" transform="matrix(0.99, -0.1, 0.1, 0.99, -9.07, 5.45)"/><circle class="cls-4" cx="62.85" cy="89.23" r="3.65" transform="translate(-8.84 6.93) rotate(-5.9)"/><circle class="cls-4" cx="77.37" cy="87.73" r="3.65" transform="translate(-8.61 8.42) rotate(-5.9)"/><circle class="cls-4" cx="91.88" cy="86.23" r="3.65" transform="translate(-8.38 9.9) rotate(-5.9)"/><circle class="cls-4" cx="106.4" cy="84.73" r="3.65" transform="translate(-8.15 11.39) rotate(-5.9)"/><circle class="cls-4" cx="120.91" cy="83.23" r="3.65" transform="translate(-7.92 12.87) rotate(-5.9)"/><circle class="cls-4" cx="20.81" cy="108.25" r="3.65" transform="translate(-11.02 2.71) rotate(-5.9)"/><circle class="cls-4" cx="35.32" cy="106.75" r="3.65" transform="translate(-10.79 4.2) rotate(-5.9)"/><circle class="cls-4" cx="49.84" cy="105.25" r="3.65" transform="translate(-10.55 5.68) rotate(-5.9)"/><circle class="cls-4" cx="64.35" cy="103.75" r="3.65" transform="translate(-10.32 7.16) rotate(-5.9)"/><circle class="cls-4" cx="78.87" cy="102.25" r="3.65" transform="matrix(0.99, -0.1, 0.1, 0.99, -10.09, 8.65)"/><circle class="cls-4" cx="93.38" cy="100.75" r="3.65" transform="translate(-9.86 10.13) rotate(-5.9)"/><circle class="cls-4" cx="107.9" cy="99.25" r="3.65" transform="matrix(0.99, -0.1, 0.1, 0.99, -9.63, 11.62)"/><circle class="cls-4" cx="122.41" cy="97.75" r="3.65" transform="translate(-9.4 13.1) rotate(-5.9)"/><circle class="cls-4" cx="22.31" cy="122.76" r="3.65" transform="matrix(0.99, -0.1, 0.1, 0.99, -12.5, 2.94)"/><circle class="cls-4" cx="36.82" cy="121.26" r="3.65" transform="matrix(0.99, -0.1, 0.1, 0.99, -12.27, 4.43)"/><circle class="cls-4" cx="51.34" cy="119.76" r="3.65" transform="matrix(0.99, -0.1, 0.1, 0.99, -12.04, 5.91)"/><circle class="cls-4" cx="65.85" cy="118.26" r="3.65" transform="translate(-11.81 7.4) rotate(-5.9)"/><circle class="cls-4" cx="80.37" cy="116.76" r="3.65" transform="matrix(0.99, -0.1, 0.1, 0.99, -11.58, 8.88)"/><circle class="cls-4" cx="94.88" cy="115.26" r="3.65" transform="translate(-11.35 10.36) rotate(-5.9)"/><circle class="cls-4" cx="109.4" cy="113.76" r="3.65" transform="matrix(0.99, -0.1, 0.1, 0.99, -11.11, 11.85)"/><circle class="cls-4" cx="123.91" cy="112.26" r="3.65" transform="translate(-10.88 13.33) rotate(-5.9)"/></g><path class="cls-5" d="M68.89,99.66c26.35-3.26,45.62-22.89,43-43.85S85.87,20.49,59.51,23.74s-45.62,22.89-43,43.85c2,16,16.17,28.2,34.51,31.58l1,14.49Z"/><path class="cls-6" d="M68.89,99.66c26.35-3.26,45.62-22.89,43-43.85S85.87,20.49,59.51,23.74s-45.62,22.89-43,43.85c2,16,16.17,28.2,34.51,31.58l1,14.49Z"/><path class="cls-7" d="M33,71.11a22.13,22.13,0,0,1-4.29,0,9.27,9.27,0,0,0-1.23-2.65,10.14,10.14,0,0,0,3.13.1c1.06-.14,1.56-.47,1.26-1.13s-.66-.83-3-1.4a7.11,7.11,0,0,1-4.2-2.36c-1.51-2.08,0-4.47,3.28-6.06a15.45,15.45,0,0,1,3.61-1.28c.79,1.69,1.21,2.47,2,3.93a6.06,6.06,0,0,0-2.24.18c-.68.2-1.15.73-.75,1.47s1.34.87,2.78,1.31c1.62.5,3.49,1.39,4.2,3.2C38.65,69.22,36.27,70.7,33,71.11Z"/><path class="cls-7" d="M53.2,68.41l-4.35.89c-.07-.4-.11-.6-.2-1A5.46,5.46,0,0,1,46,69.54c-2,.25-4.09-.1-4.62-.85C40,66.76,38,60.31,36.22,55c0,0,4.37-2.47,5.15-3,2.07,8.07,3.07,10.12,4.06,14a2.32,2.32,0,0,0,1.49.25,3.25,3.25,0,0,0,1-.29c-1-3.79-1.94-5.74-4.09-13.69,1.15-.61,4.42-2,5.47-2.58C51.52,60.27,52.72,64.37,53.2,68.41Z"/><path class="cls-7" d="M60.84,63.4s.35,2.67.51,4l-4.46.79c-.7-4.89-1.29-6.06-3.71-18.19A17.86,17.86,0,0,1,59.11,48c5.2-.82,7.84,3.61,8.24,7.82C67.94,62.16,64.28,63,60.84,63.4Zm-.73-8.81a1.74,1.74,0,0,0-.55.15c.4,2.71.55,3.78.83,5.68,1.32-.29,2-1.19,1.69-3.14C61.88,55.8,61.21,54.43,60.12,54.59Z"/><path class="cls-7" d="M80.26,56.36c-.39,1.62-.58,2.33-.93,3.66l-3.66.74c0,.8,0,1.16.05,1.88l4.41-.93c-.35,1.39-.51,2-.74,3.3l-8,1.18c-.67-4.84-.58-6.17-1.62-18.51a90.61,90.61,0,0,1,10.49-.76c-.35,2.89-.55,4.14-.93,6.39-1.51.26-2.27.39-3.76.67,0,1.37,0,2,0,3.12C77.47,56.8,78.4,56.64,80.26,56.36Z"/><path class="cls-7" d="M92.2,57.87c1.67.08,2.71.88,2.51,2.86-.1,1-.13,2.34-.15,2.8l-4.49.72c0-.72.06-2.08.1-2.84.06-1.3-.52-1.79-1.55-1.68-.24,0-.4.1-.6.12A18.43,18.43,0,0,0,87.9,64l-4.48.86s.29-12.05.33-17.36a27.26,27.26,0,0,1,5.86-.14c4.2.5,7.44,2.38,6.57,6.18A6.26,6.26,0,0,1,92.2,57.87Zm-2.65-5.25c-.13,0-.41.05-.63.06-.25,2-.37,2.84-.58,4.4a2.6,2.6,0,0,0,2.52-2.46C91,53.55,90.57,52.62,89.55,52.62Z"/><path class="cls-7" d="M101.84,57.85l-2.74.44c.44-2.3,1.36-6.34,1.57-8.63l4.7.67C104.2,53.09,102.86,55.09,101.84,57.85Zm-1.92,5.09c-.86.11-2-.16-2-1.14s1.18-1.64,2.06-1.74,1.71.28,1.67,1.29A1.81,1.81,0,0,1,99.92,62.94Z"/><path class="cls-8" d="M33.7,76.13l36.1-4.78h.06a1,1,0,0,1,.93,1.59l-7,9.33-1.11-1.55L96,67.67a3.16,3.16,0,1,1,2.3,5.88l-.36.12-34.66,9-.06,0a1,1,0,0,1-1-1.57l7-9.33,1,1.58L35,82.54a3.27,3.27,0,0,1-1.66-6.33Z"/></svg>